<svg id="Layer_1" data-name="Layer 1" xmlns="http://www.w3.org/2000/svg" viewBox="0 0 296.04 291.38"><defs><style>.cls-1{fill:#231f20;}.cls-2{fill:#fff;}</style></defs><title>Artboard 5</title><rect class="cls-1" width="296.92" height="291.49"/><path class="cls-2" d="M122.4,47.07C103.81,52.4,87,64.3,80.7,83.23a50.53,50.53,0,0,0-2,25A35.57,35.57,0,0,0,91,129.13c7.49,6.32,16.74,10.33,25.94,13.48l6.47-25.2c-6.46-2.28-13-5.21-18.14-9.79-5.34-4.72-8-11-9.09-17.94-1.07-7.16-.53-15,3.18-21.37,3.45-5.92,9.06-10.39,15-13.56a73.13,73.13,0,0,1,27.07-7.68l.88-3.45A99,99,0,0,0,122.4,47.07Zm90.32.94c-1.84,0-2.65,1.63-3.8,2.78A8.56,8.56,0,0,1,205.5,53c-3.27,1.06-7.15.49-10.41-.29-3.92-.94-7.65-2.52-11.45-3.83a100.71,100.71,0,0,0-12.54-3.45l1.24,4.79s19.61,9.33,27,18.24a68,68,0,0,1,9.53,15c.59,1.29,1.13,2.61,1.61,4s.59,3.16,1.3,4.28,3.65,1,4-.43a14,14,0,0,0,0-3.24V52.87C215.77,50.72,215.64,48.06,212.72,48Z"/><path class="cls-2" d="M184.19,234.3a123.1,123.1,0,0,1-18.51,2.9,168.6,168.6,0,0,1-38-.9,187.1,187.1,0,0,1-18.6-3.71c-5.68-1.4-11.24-3.45-17-4.3a20,20,0,0,0-8.62.27,10.24,10.24,0,0,0-3.27,1.63c-1.11.83-1.73,2-2.76,2.91-2.41,2-5.12-.23-5.16-2.88,0-4,0-8,0-12V184.59c0-1.09-.31-2.32,1.12-2.42a6.89,6.89,0,0,1,1.87,0c1.08.28,1.09,1.73,1.4,2.67a54.18,54.18,0,0,0,3.42,8.09c5.37,10.42,12.44,20.73,21.83,27.91,10,7.64,22.27,11.29,34.61,12.85A121.1,121.1,0,0,0,174,232.61a65.09,65.09,0,0,0,9.11-2.44Z"/><path class="cls-2" d="M172.34,50.2l1.71.6Z"/><path class="cls-2" d="M238.67,183.33c-.48,14.71-10.18,27.89-22.36,36.82l-3.06-11.85c-.38-1.48-1.18-3.14-.76-4.63a28.6,28.6,0,0,0,.11-14.09,38.19,38.19,0,0,0-16.52-23c-8.5-5.61-18.49-8.52-28.29-10.93-11.85-2.92-23.81-5.41-35.62-8.5l6.51-25.3c8.69,2.19,17.39,4.34,26.08,6.52,9,2.24,18,4.22,26.88,6.6,15.18,4.06,30.86,10.27,40.45,23.43C237.35,165.6,239,174.56,238.67,183.33Z"/><path class="cls-2" d="M115.53,247.93v4.4H87.13v-4.4h9.16l3-11.62,0,0c1.11.37,2.12.65,3.13.93L99.7,247.93Z"/><path class="cls-2" d="M165.49,48.37l6.6,25.51,11.07,42.79,2.71,10.49c-8.19-2-16.38-4.06-24.59-6L146.88,65.2l-8.33,32.34q-3.2,12.46-6.42,24.92-4.14,16.11-8.29,32.21c-2.3,9-4.76,17.92-7.07,26.9l-9,35.1-.18.69c-1-.68-1.93-1.39-2.87-2.15l4.3-16.74,8-31.12q2.17-8.43,4.34-16.86,2.9-11.27,5.78-22.53,2.07-8,4.13-16.06l6.2-24.16,7.42-28.87q2-7.77,4-15.54,1.26-4.87,2.5-9.75l1.95-7.6a9.16,9.16,0,0,1,.45-1.73c.51-1,1.76-.74,2.75-.74s2.26-.29,2.76.74a8.86,8.86,0,0,1,.42,1.63l1.9,7.33,2.73,10.57c.4,1.53.79,3,1.19,4.57"/><path class="cls-2" d="M190.16,232.7q-2.81-10.86-5.59-21.73l-9.75-37.89-2.55-9.89c7.27,2,14.6,4.56,20.89,8.83a36.6,36.6,0,0,1,3.82,3,6.73,6.73,0,0,1,1.72,1.73,14,14,0,0,1,.63,2.41l5.52,21.34q3.81,14.73,7.63,29.47,2.34,9,4.65,18h12.81v4.4H181v-4.4h13.05q-2-7.6-3.92-15.22"/></svg>