<svg id="Layer_1" data-name="Layer 1" xmlns="http://www.w3.org/2000/svg" viewBox="0 0 237.68 326.73"><defs><style>.cls-1{fill:#2b292a}</style></defs><path class="cls-1" d="M71.63 33.69C45.09 41.3 21 58.29 12.09 85.32a72.05 72.05 0 0 0-2.8 35.76 50.87 50.87 0 0 0 17.56 29.77c10.69 9 23.9 14.74 37 19.24l9.24-36c-9.23-3.26-18.5-7.44-25.9-14-7.63-6.75-11.48-15.65-13-25.61-1.48-10.18-.7-21.36 4.59-30.48 4.92-8.46 12.93-14.85 21.49-19.37 11.92-6.29 25.29-9.66 38.65-11l1.26-4.93a141.15 141.15 0 0 0-28.55 4.99zm129 1.34c-2.63 0-3.78 2.34-5.41 4a12.4 12.4 0 0 1-4.89 3.11c-4.68 1.52-10.21.7-14.86-.41-5.6-1.34-10.93-3.59-16.35-5.47a146.37 146.37 0 0 0-17.9-4.93l1.76 6.85s28 13.32 38.5 26A97 97 0 0 1 195 85.58c.84 1.84 1.61 3.72 2.29 5.63s.85 4.52 1.87 6.11 5.2 1.37 5.7-.6c.36-1.4.05-3.22.05-4.64V42c.03-3.1-.16-6.9-4.33-7zM159.86 301a176.47 176.47 0 0 1-26.44 4.14 240.23 240.23 0 0 1-54.2-1.29 266 266 0 0 1-26.56-5.29c-8.11-2-16-4.94-24.34-6.15-4.05-.59-8.34-.79-12.31.4a14.59 14.59 0 0 0-4.67 2.32c-1.57 1.19-2.47 2.91-3.93 4.15C4 302.19.09 299 0 295.17c-.07-5.7 0-11.41 0-17.11V230c0-1.55-.44-3.3 1.6-3.45a9.87 9.87 0 0 1 2.66 0c1.54.4 1.56 2.47 2 3.82a79.09 79.09 0 0 0 4.89 11.54c7.66 14.89 17.76 29.6 31.16 39.84 14.27 10.92 31.79 16.13 49.42 18.35a172.79 172.79 0 0 0 53.56-1.53 94.58 94.58 0 0 0 13-3.49z"/><path class="cls-1" d="M142.93 38.16l2.44.86c-.81-.31-1.63-.6-2.44-.86zM237.63 228.22c-.68 21-14.53 39.82-31.92 52.57l-4.37-16.91c-.54-2.11-1.68-4.49-1.09-6.62a40.63 40.63 0 0 0 .16-20.11c-3.22-13.7-11.92-25.17-23.58-32.86-12.14-8-26.4-12.15-40.39-15.6-16.92-4.17-34-7.72-50.86-12.13l9.29-36.13c12.41 3.13 24.83 6.21 37.24 9.32 12.77 3.2 25.65 6 38.37 9.42 21.68 5.79 44.07 14.67 57.75 33.45 7.51 10.3 9.82 23.09 9.4 35.6zM61.83 320.46v6.27H21.28v-6.27h13.08l4.27-16.6h.07c1.58.54 3 .94 4.46 1.34l-3.94 15.3z"/><path class="cls-1" d="M133.15 35.54L142.57 72l15.81 61.09 3.88 15c-11.71-2.87-23.4-5.79-35.11-8.61l-20.57-79.9-11.88 46.17q-4.58 17.79-9.17 35.58-5.91 23-11.84 46c-3.29 12.8-6.79 25.57-10.09 38.38l-12.9 50.12-.25 1q-2.09-1.46-4.09-3.06l6.13-23.9 11.41-44.45q3.09-12 6.19-24.08 4.13-16.08 8.26-32.17 2.94-11.46 5.89-22.93l8.86-34.49 10.58-41.21q2.85-11.1 5.7-22.19l3.58-13.92 2.78-10.85a13.45 13.45 0 0 1 .63-2.46c.73-1.48 2.53-1.06 3.94-1.06s3.22-.43 3.94 1.05a13 13 0 0 1 .6 2.32l2.7 10.47q2 7.55 3.91 15.1l1.69 6.52M168.38 298.71q-4-15.51-8-31l-13.9-54.11-3.64-14.13c10.38 2.89 20.84 6.51 29.81 12.61a53.38 53.38 0 0 1 5.47 4.25 9.78 9.78 0 0 1 2.45 2.48 18.2 18.2 0 0 1 .89 3.43l7.89 30.47q5.44 21 10.89 42.08 3.34 12.82 6.64 25.67h18.29v6.27h-69.83v-6.27H174q-2.81-10.86-5.59-21.73"/></svg>