<svg data-name="Layer 1" xmlns="http://www.w3.org/2000/svg" viewBox="0 0 268.5 287.68"><path d="M263.71 52.74h-37.48A31.14 31.14 0 0 0 203.79 0a45.94 45.94 0 0 0-32.18 13.25l-37.36 37.5-37.36-37.5A45.59 45.59 0 0 0 64.88 0h-.15a31.14 31.14 0 0 0-22.46 52.74H4.8a4.8 4.8 0 0 0-4.8 4.8v43.15a4.8 4.8 0 0 0 4.8 4.79h14.38v177.4a4.8 4.8 0 0 0 4.79 4.8h220.56a4.79 4.79 0 0 0 4.79-4.8v-177.4h14.39a4.79 4.79 0 0 0 4.79-4.79V57.54a4.79 4.79 0 0 0-4.79-4.8zM178.39 20a36 36 0 0 1 25.26-10.41 21.58 21.58 0 1 1 .12 43.15h-3.2l9.73-7.84a14.42 14.42 0 0 0-8.92-25.72h-1.18a14.31 14.31 0 0 0-9.51 3.59l-34.27 30H145.8zm-20.17 42.3h11.65L211 132.25l-13.46-2.7a4.82 4.82 0 0 0-5.24 2.56L186.83 143l-28.61-53.12zM171 52.74L197 30a4.77 4.77 0 0 1 3.19-1.2h1.17a4.83 4.83 0 0 1 2.93 8.64l-19 15.33zM43.15 31.17a21.61 21.61 0 0 1 21.6-21.58h.12A36 36 0 0 1 90.1 20l32.61 32.72h-10.63l-34.26-30a14.36 14.36 0 0 0-9.5-3.59h-1.19a14.42 14.42 0 0 0-9 25.69l9.76 7.87h-3.2a21.6 21.6 0 0 1-21.54-21.52zm67.13 58.73L81.67 143l-5.45-10.9a4.8 4.8 0 0 0-5.22-2.55l-13.47 2.69 41.11-69.91h11.64zM83.2 52.74l-19-15.36a4.83 4.83 0 0 1 3-8.61h1.18A4.81 4.81 0 0 1 71.5 30l26 22.76zM9.59 62.33h77.93L67.77 95.89H9.59zm19.18 43.15h33.36l-18.31 31.13a4.79 4.79 0 0 0 5.07 7.13l20.38-4.07 8 15.9a4.81 4.81 0 0 0 4.22 2.65h.07a4.8 4.8 0 0 0 4.23-2.52l24.54-45.58v168H28.77zm91.1 172.61V62.33h28.77v215.76zm119.86 0h-81.51v-168l24.55 45.58a4.79 4.79 0 0 0 4.22 2.52h.08a4.81 4.81 0 0 0 4.22-2.65l8-15.91 20.38 4.08a4.8 4.8 0 0 0 5.08-7.13l-18.32-31.14h33.35zm19.18-182.2h-58.17L181 62.33h77.91z"/></svg>