<svg data-name="Layer 1" xmlns="http://www.w3.org/2000/svg" viewBox="0 0 192.88 192.88"><path d="M190.8 153.35l-41-41a111 111 0 0 0-30.95-20.19l-.11-.05C104.8 86 88.82 71.79 82.49 65.87a6.75 6.75 0 0 0 0-1.1A7.1 7.1 0 0 0 80 59.64l-4.17-3.47a7.1 7.1 0 0 0-9.57.43l-9.66 9.65a7.07 7.07 0 0 0-.44 9.56L59.63 80a7.14 7.14 0 0 0 5.15 2.55 6.62 6.62 0 0 0 1.09 0c5.93 6.29 20.13 22.25 26.22 36.2a111.41 111.41 0 0 0 20.24 31l41 41a7.1 7.1 0 0 0 10 0l27.4-27.4a7.12 7.12 0 0 0 0-10.05zm-44.22-33.75L167 140l-27 27-20.4-20.42zM69.67 75.74a3.7 3.7 0 0 0-4.51-.69L62 71.29 71.28 62 75 65.16a3.71 3.71 0 0 0 .7 4.51l.26.24c6.62 6.32 23.56 21.64 39.16 28.68l-.65 15.92-15.92.65C91.53 99.53 76.22 82.59 69.89 76zm32.4 46.68l16.15-.65a3.7 3.7 0 0 0 3.55-3.55l.65-16.15a107 107 0 0 1 18.75 12.48l-26.62 26.61a108.41 108.41 0 0 1-12.48-18.74zm56.31 62.94l-8-8-.06-.06-5.09-5.09 27-27 13.17 13.17zm0 0M56.25 51L37.58 32.35a3.7 3.7 0 0 0-5.23 5.23L51 56.25A3.7 3.7 0 1 0 56.25 51zm0 0M18 31.7a3.69 3.69 0 0 0 2.62-1.08l10-10a3.7 3.7 0 0 0 .19-5L18.5 1.29A3.71 3.71 0 0 0 15.84 0a3.78 3.78 0 0 0-2.76 1.08l-12 12a3.69 3.69 0 0 0 .21 5.42l14.32 12.31a3.65 3.65 0 0 0 2.39.89zM15.49 9.14L23 17.83 17.83 23l-8.69-7.51zm0 0M62.81 47.85a3.7 3.7 0 0 0 2.68-6.26A15 15 0 0 1 66 20.34 3.7 3.7 0 1 0 60.87 15a22.45 22.45 0 0 0-.73 31.71 3.64 3.64 0 0 0 2.67 1.15zm0 0M15 60.88A3.7 3.7 0 0 0 20.34 66a15 15 0 0 1 21.25-.5 3.7 3.7 0 1 0 5.11-5.35 22.45 22.45 0 0 0-31.7.73zm0 0"/></svg>