<svg data-name="Layer 1" xmlns="http://www.w3.org/2000/svg" viewBox="0 0 293.6 285.84"><path d="M149.1 106.43a49.77 49.77 0 1 0 49.77 49.77 49.83 49.83 0 0 0-49.77-49.77zm0 86.13a36.36 36.36 0 1 1 36.37-36.36 36.41 36.41 0 0 1-36.37 36.36zm0 0"/><path d="M283.22 98.66c-9.13-20.56-24.65-24.62-36-27.59-5.57-1.46-10.38-2.72-13.51-5.42-4.21-3.63-8.11-12.74-11.55-20.77-3.87-9-7.53-17.57-12.78-22.86C195.49 8 175.78 0 155.33 0 141 0 126.28 3.74 111.59 11.12 80.05 27 74.29 47.62 70.08 62.7c-1.46 5.23-2.72 9.75-4.76 13-2.72 4.3-7.98 6.5-14.65 9.3-7.87 3.22-17.67 7.28-26.25 16.59C-.83 129-6.83 167 8 205.81c8.19 21.49 22.84 35.25 47.51 44.6 11.3 4.28 22.25 5.05 32.84 5.79a165.25 165.25 0 0 1 17.79 1.87c6.86 1.23 16.35 5.67 26.4 10.37 17.44 8.15 37.21 17.4 56.89 17.4h.41c31-.2 59.07-17.25 78.92-48 26.61-41.22 32.57-98.44 14.49-139.17zm-25.75 131.9c-17.32 26.83-41.38 41.7-67.75 41.87h-.32c-16.7 0-35-8.58-51.21-16.14-11.34-5.3-21.13-9.88-29.72-11.42a181 181 0 0 0-19.22-2.06c-10.06-.7-19.56-1.36-29-4.94-21-8-32.94-19-39.73-36.84-13.11-34.43-8.22-66.52 13.77-90.37 6.58-7.13 14.18-10.28 21.53-13.32 7.8-3.23 15.88-6.58 20.86-14.51 3.07-4.9 4.65-10.55 6.32-16.53 3.92-14.07 8.37-30 34.6-43.2 12.82-6.44 25.51-9.69 37.73-9.69 16.91 0 33.16 6.58 44.57 18.06 3.45 3.47 6.76 11.2 10 18.68 4.21 9.83 8.56 20 15.12 25.65 5.49 4.73 12.29 6.51 18.86 8.24 10.6 2.77 20.6 5.39 27.12 20.06 16.35 36.83 10.8 88.83-13.5 126.46zm0 0"/></svg>