<svg id="Layer_1" data-name="Layer 1" xmlns="http://www.w3.org/2000/svg" viewBox="0 0 296.74 279.27"><defs><style>.cls-1{fill:#fff;}</style></defs><title>Artboard 4</title><path class="cls-1" d="M116.42,49C97.83,54.34,81,66.24,74.72,85.17a50.52,50.52,0,0,0-2,25,35.6,35.6,0,0,0,12.3,20.85c7.49,6.32,16.74,10.33,25.94,13.47l6.47-25.19c-6.46-2.28-13-5.21-18.14-9.79-5.34-4.73-8-11-9.09-17.94-1.07-7.16-.53-15,3.18-21.37,3.45-5.93,9.06-10.4,15-13.56A73.13,73.13,0,0,1,135.53,49l.88-3.45A98.31,98.31,0,0,0,116.42,49Zm90.32.94c-1.84,0-2.65,1.63-3.79,2.78a8.64,8.64,0,0,1-3.43,2.18c-3.27,1.07-7.15.5-10.41-.29-3.92-.94-7.65-2.51-11.45-3.83a102.47,102.47,0,0,0-12.54-3.45l1.24,4.8s19.61,9.33,27,18.24a68,68,0,0,1,9.53,15c.59,1.29,1.13,2.61,1.61,4s.59,3.16,1.3,4.27,3.65,1,4-.42a14,14,0,0,0,0-3.24V54.8C209.79,52.66,209.66,50,206.74,50Z"/><path class="cls-1" d="M178.21,236.24a123.1,123.1,0,0,1-18.51,2.9,168.6,168.6,0,0,1-38-.9c-6.26-.9-12.46-2.19-18.6-3.71-5.68-1.4-11.24-3.46-17-4.3a20,20,0,0,0-8.62.27,10.24,10.24,0,0,0-3.27,1.63c-1.11.83-1.73,2-2.76,2.9-2.41,2-5.12-.22-5.16-2.87,0-4,0-8,0-12V186.53c0-1.09-.31-2.32,1.12-2.42a6.51,6.51,0,0,1,1.87,0c1.08.28,1.09,1.73,1.4,2.67a55.25,55.25,0,0,0,3.42,8.09c5.37,10.42,12.44,20.73,21.83,27.9,10,7.65,22.27,11.3,34.61,12.86A121.1,121.1,0,0,0,168,234.55a66.5,66.5,0,0,0,9.11-2.44Z"/><path class="cls-1" d="M166.36,52.14l1.71.6Q167.22,52.41,166.36,52.14Z"/><path class="cls-1" d="M232.69,185.26c-.48,14.71-10.18,27.9-22.36,36.82l-3.06-11.84c-.38-1.48-1.18-3.15-.76-4.64a28.56,28.56,0,0,0,.11-14.08,38.24,38.24,0,0,0-16.52-23c-8.5-5.6-18.49-8.51-28.29-10.92-11.85-2.93-23.81-5.41-35.62-8.5l6.51-25.31c8.69,2.2,17.39,4.35,26.08,6.53,8.95,2.24,18,4.22,26.88,6.6,15.18,4,30.86,10.27,40.45,23.43C231.37,167.54,233,176.5,232.69,185.26Z"/><path class="cls-1" d="M109.55,249.87v4.39H81.15v-4.39h9.16l3-11.63,0,0c1.11.37,2.12.65,3.13.93l-2.76,10.72Z"/><path class="cls-1" d="M159.51,50.3l6.6,25.52,11.07,42.79,2.71,10.48c-8.19-2-16.38-4-24.59-6L140.9,67.14l-8.33,32.34q-3.19,12.47-6.42,24.92-4.14,16.11-8.29,32.21c-2.3,9-4.76,17.92-7.07,26.9l-9,35.1-.18.68c-1-.67-1.92-1.38-2.87-2.14l4.3-16.74,8-31.12q2.18-8.43,4.34-16.87,2.89-11.25,5.78-22.52,2.07-8,4.13-16.06l6.2-24.16,7.42-28.87q2-7.77,4-15.54,1.26-4.87,2.5-9.75l1.95-7.6a9.16,9.16,0,0,1,.45-1.73c.51-1,1.76-.74,2.75-.74s2.26-.3,2.76.74a8.86,8.86,0,0,1,.42,1.63l1.9,7.32,2.73,10.58c.4,1.53.79,3.05,1.19,4.57"/><path class="cls-1" d="M184.18,234.64q-2.81-10.87-5.59-21.73L168.84,175l-2.55-9.89c7.27,2,14.6,4.56,20.89,8.83a39.19,39.19,0,0,1,3.83,3,7.05,7.05,0,0,1,1.71,1.74,14,14,0,0,1,.63,2.41l5.52,21.33q3.81,14.75,7.63,29.48,2.34,9,4.65,18H224v4.39H175.05v-4.39h13q-2-7.6-3.92-15.22"/></svg>