<svg xmlns="http://www.w3.org/2000/svg" viewBox="0 0 437.336 438.283"><defs><style>.a{fill:#18311c;fill-rule:evenodd;opacity:0.2;}</style></defs><path class="a" d="M405,3.1c.7-.7-18.8-2.5-17.5-3.1,1.6,1.2,1.7,4,1.9,6.7,1-.3,1.3-1.7,2.7-1.2a16.68,16.68,0,0,1,.2,3.2c1.3-1,2.1-3,4.2-2.9.1,1.2.4,2.3.4,3.7.7-.1.7-.9,1.6-.8.8-.7,1.9-2.1,3.3-1.4a22.94,22.94,0,0,1-.7,5.5c1.8.8,4.3.8,4.3,3.3-1.7.8-4,.9-5.4,2.1-.2.2-.3.7-.7,1.1-.9.8-2.4,1.3-3.2,2.3-1.8,4.2-1.3,9.9.4,13.9a62.7,62.7,0,0,0,1.7,8c-.4,2.6.8,5.2.4,7.6.8,0,.5-1.1,1-1.4,1.1,1.3,0,3.2.1,5.1.1,1.5.6,3.1.7,4.5a9.6,9.6,0,0,1-1.3,6.7c-1.1.4-1.1,1.9-2.5,2-.1-1.5,1.6-2.5,2.1-4.2,1-3.1-.4-6.9-.2-10.6-.7.6-.7,1.9-1.8,2-.5,1.2-.3,3.2-1,4.3-1.1-.1-.8-1.6-1.5-2.1-.1-1.7-1.1-2.6-1.7-3.9a7.965,7.965,0,0,0-1.7-1.5c-.8,1.6-1.9,4.7-1.1,7.3.2.7,1,1.3.5,1.9-1.8-.5-1.6-3-3.6-3.3a2.507,2.507,0,0,0-.4-.7c-1.2-.4-2.2-1.3-3.8-1,1.2,3,2.1,6.3,3.7,8.9,1.7.8,2.7,2.4,5.4,2.3.6.2.6-.8,1-.5.9,1,.8,2.6,1.1,3.9.6,3,1.2,6,1.7,9,.1.9.6,1.7.7,2.5a35.242,35.242,0,0,1,0,6.5c-.1,2.4.3,4.9-.5,7.3-.2,4.5-.4,9.9-2,13.8-.7-.8-.6-1.9-.7-3.2-.6-5-2.4-9.5-3.9-13.8-.6-.8-.6-2.2-1.3-2.9.1-.5-.2-.7-.1-1.2a1.794,1.794,0,0,0-.5-.7,90.651,90.651,0,0,0-5.4-10.8c-.4-.4-.6-1-1.2-1.3-1.4-3.4-4.3-5.4-6.2-8.3-.5-.3-.8-.8-1.4-1-.2-.7-.8-1.1-1.2-1.7.3-5.2-.8-9.8-3.2-12.6a2.975,2.975,0,0,0-1-2c-1.8,2.2-1.7,6.6-1.1,9.9-1.5.5-2.9-.7-4.4-1a11.442,11.442,0,0,0-6.1,1,4.665,4.665,0,0,0,1.2,2c.4.6.9,1.2,1.3,1.8.3.4.7.4,1.2.7.4.2.6.7,1,1a11.5,11.5,0,0,0,1.7.6c1.7.7,6,1.6,7.4-.2.8.5,1.4-.6,1.9-.4.1.7-.3.9-.2,1.5a35.2,35.2,0,0,1,7.7,9.8c.2.3.5.4.7.6-.1.4.2.5.1,1a14.439,14.439,0,0,1,3.1,4.5c.9.5.9,1.2,1.3,2.3.5,1.4,1.3,2.4,1.9,3.9,1,2.5,2.1,4.8,2.9,7.5.4,1.3,1.2,2.6,1.7,3.9a6.752,6.752,0,0,1,.2,1.4c.3,1,1.2,1.9,1,3.2-1.5.5-1.9-1.1-2.1-2.4-2.5-3.6-4.4-7.9-7.6-11-.1-.4-.4-.6-.5-1.1-.3-.2-.7-.4-1-.6,0-.6-.5-.7-.6-1.2-3.5-2.3-5.6-6.1-10-7.6a2.507,2.507,0,0,0-.4-.7c-.9-.2-1.8-.3-2.1-1.1a10.616,10.616,0,0,1-3.8-1.2c-2.9-.5-7-1.3-10-1.7.5-1,1.9-.4,2.9-.2,2.5.3,5.7.5,7.5,1.4,1-.2,1.3.4,2,.7,1.2.5,2.5.5,3,1.4.3,0,.3-.2.6-.1,6.2,3.3,10.8,8.2,15.4,13.1a19.019,19.019,0,0,0,3,4.4,36.217,36.217,0,0,0-3-6.7c-1.3-5.4-4.4-9-6.8-13.5-.1-.2-.6-.1-.6-.4-.6-.8-.9-1.7-1.4-2.5a17.326,17.326,0,0,0-1.7-2.1c-.4-.5-.5-1.2-1-1.7-1.1-1.1-2.8-1.6-3.5-3.2a16.7,16.7,0,0,1-8.6-.2c-.5-.8-1.5-1-2.3-1.5a14.239,14.239,0,0,1-5-6.3,10.074,10.074,0,0,0,4.2-1.1c-1.8-.2-2.8-1.3-4.8-1.4a5.01,5.01,0,0,1-.7-.8h-.7c-1.5-1.5-4.1-1.8-5.5-3.3-.7,0-.8-.4-1.4-.5-1.6-2-3.9-3.3-5-5.8a10.144,10.144,0,0,0-1.3-.9c-.1-.6-.4-.9-.5-1.4-1.6-2.5-2.9-5.2-4.8-7.4a1.612,1.612,0,0,0-.7-.4l-.2-1c-2.4-2-4.9-3.8-6.1-7a6.817,6.817,0,0,1,2.5-.1c.4-2.2-1.1-3.5-1.3-5.5,2.5-.5,3.4,1.6,5.1,2.4a5.359,5.359,0,0,1,.4-3.1c2.3.3,2.5,2.8,4.2,3.8.6-1.5-.4-3.7,0-5a3.387,3.387,0,0,1,2.7.8c.6-.7.4-2.2,1-2.9,1,.5,1.3,1.6,2,2.3.5-.3.4-1.1,1.1-1.3,2.7,1.4-.1,5.1.4,7.7.1.4.7.2,1,.4a44.933,44.933,0,0,0,6.9,6.1,33.653,33.653,0,0,0,4.8,5.2c.5,1.6,1.9,2.3,2.4,3.9,2.1,2.5,3.5,5.8,5.1,8.9a7.189,7.189,0,0,0,1.3-3.2c.1-.7-.2-1.8.7-2,1.5,1.3,1.7,4,3.1,5.5.4,2.3,2.1,3.2,2.1,5.8a10.41,10.41,0,0,1,.6,1.6c.2,1.5-.5,3.6-.1,4.9.2.6.7.7,1.2,1.2,1.6,1.7,2.9,4.3,5,5.4-.2.8.6.9,1,1.4.6.9.8,2,1.4,2.9s1.1,1.7,1.7,2.5c1.3,2,2.4,4.2,3.8,6.1a11.15,11.15,0,0,0,1.8,3.8c-.1,1.4,1,2.4,1.4,3.6a12.863,12.863,0,0,0,.4,1.9,29.624,29.624,0,0,1,1.5,3.1c.1.4,0,.9.1,1.3.5,1.8,1.4,4.1,1.8,6.2.3-1.7.2-3.3.4-5,.2-2.6.9-5.3,1-7.9,0-1-.4-2-.4-3a34.945,34.945,0,0,0-.5-8.6c-.7-3.7-1.4-7.2-2.3-10.7a8.141,8.141,0,0,1-5.4-2.3c-2-1.7-2.2-3.4-3.5-6.3a14.81,14.81,0,0,0-.8-1.3c-.4-.8-.3-1.9-.8-2.5-.4-.5-1.4-.4-1.8-.8.2-1.9,3.6-.8,4.6-.7-.5-1.8-1.9-3.6-2.4-5.8-.1-.6,0-1.3-.1-2-.1-.8-.5-1.6-.6-2.4-.3-2.7-.1-5.5-.6-8a28.041,28.041,0,0,0-2.4-6.9c-.8-1.3-1.9-2.2-2.7-3.5-2.8-1-4.1-3.5-6.2-5.5-.6-.6-1.6-.9-1.8-2-.4-.4-1.1-.4-1-1.3a13.01,13.01,0,0,1,4.4.1,15.321,15.321,0,0,1-1.7-5.1,15.384,15.384,0,0,1,5.6,1.8,46.839,46.839,0,0,1-.6-4.9c.3-.4.6-.1,1.1-.4-.2-3.1.9-5,1.7-7.3.1,0,.2,0,.2-.1,1.5.2,1.6,1.8,2.4,2.7.5-.6.9-1.4,1.4-2.1.4-.7,1-2.2,1.9-2.3C384.2-.1,404.5,1.9,405,3.1ZM383.4,1.7c-2.1.6-2.3,3-3.2,4.8h-.7c-.6-1.2-.9-2.8-2-3.5-.5,2.4-2.5,6.6.2,8,.6-.6.6-1.7,1.3-2.1,3,2.7,4.9,6.7,6.9,10.5a55.4,55.4,0,0,0,3.8,8.9c.1.5.1,1.1.6,1.2,2.5-6.3,6.5-11.1,12.5-13.9.4,0,.7.3,1,0-.4-1.9-3-1-4.6-1.5.8-1.2.8-3.2,1.2-4.9a16.831,16.831,0,0,0-4.2,3.1c-.8-.9-.3-3.1-.7-4.5-1.4.7-2.1,2.1-3.3,3-1.2-.3-1-1.7-.8-3.1-1.5.3-1.9,1.8-2.5,3.1-1.5,1.3-1.7,3.8-2.4,5.8-.1.5.2.7.1,1.2-.2.1-.3.3-.7.2a3.559,3.559,0,0,1-.2-3,41.546,41.546,0,0,1,1.8-4.8c.4-.8,1.1-1.3,1.2-1.9.1-.8-.6-2.4-.5-3.7a5.66,5.66,0,0,0-.2-2.3c-1.3.3-1.2,2-2,2.7h-.8A17.921,17.921,0,0,1,383.4,1.7ZM379,13.1c-1.5-.1-1.8-1.4-3.1-1.8-.3,2,1.4,3.7.4,5-1.8-.9-3.3-2.1-5.6-2.5,0,2.1,1.7,2.4,1.9,4.3.5.3,1.3.3,1.2,1.2-1.5.1-3.4-1-5.1-.7.3,1.4,1.4,1.8,2.3,2.6.6.5.9,1.4,1.4,1.9A14.292,14.292,0,0,0,375,25a16.854,16.854,0,0,0,4.3,2,3.328,3.328,0,0,1,.6,1,8.843,8.843,0,0,1,5.4,5.6c.4.5,1.1,1.1.8,1.8-.9,0-1.1-.8-1.7-1.2a3.073,3.073,0,0,0-1.1-1.8c-.7-2.4-3-3.2-4.9-4.4a34.879,34.879,0,0,1,3.3,7.7c1.4,5.7.2,12.9,3.2,17.1.5,2.1,2,3.3,3.5,4.5a19.606,19.606,0,0,1,1.7-7.3c2.6,1.3,3.7,4.1,5.2,6.4.8-2.6,2.1-4.3,1.9-7.6a15.984,15.984,0,0,0-.5-2.1c-.1-.8.1-1.5,0-2.3-.1-1.3-.6-2.6-.8-4-.1-.8-.1-1.7-.2-2.5-.2-.8-.6-1.5-.8-2.3-.1-.4,0-.9-.1-1.4-.5-2.6-2.3-6.8-.6-9.2a7.805,7.805,0,0,0-2.6,3.8c-.5,1.5-.3,3.3-1.1,4.5-2-1.5-1.4-5.6-3.2-7.3a14.861,14.861,0,0,0-1.2,7.5c-1.9-1.3-.6-5.7-.2-7.4,1.5-2-.5-4.3-1.2-6.4a11.333,11.333,0,0,0-1.3-2.7c-.9-1.7-1.5-3.5-2.3-4.8-.9-.2-.9-1.2-1.5-1.7h-.4C378.8,11.5,379.2,12.5,379,13.1ZM341.6,24.5c-1.2-.2-1.4-1.4-2.3-2-.9,1.3-.1,3.8-.4,6.1a11.239,11.239,0,0,1,2.1,5.1,8.355,8.355,0,0,1,1.5,3.3,11.329,11.329,0,0,1,2,1.3c.6.4,1.8.8,1.4,1.8-1.9-.9-3.6-2.8-6.3-3.1-1.2-.2-2.9.1-4.3,0,1.3,1.4,1.8,3.5,3.1,4.9a10.288,10.288,0,0,0,1.5,2.7c.3.5.4,1.1.7,1.5.2.3.6.4.8.7.1.2.1.5.2.7a10.279,10.279,0,0,0,1.5,1.4c.5.5,1,1.3,1.4,1.7.3.2.8.3,1.1.5s.4.6.7.8c.8.5,1.9.4,2.4,1.4,1.1.1,1.4.9,2.6,1,3.6,2.6,8.7,3.6,13.3,5.1a26.643,26.643,0,0,1-.1-6.3c-.2-.2-.7-.1-.8-.4a67.82,67.82,0,0,0-11.8-17.6c-.5-.1-.6-.4-1.1-.5-1.1-1.7-3-2.6-4.2-4.2-.3,0-.5,0-.6-.1-.4-.4-.5-1.1-1.3-1.1a16.107,16.107,0,0,0-.4,5.8c.2,1.5,1.1,2.4,1.4,3.5-1.3-.3-2.1-1.7-2.4-3-.8-3.1-.2-7.7,0-11.2a6.317,6.317,0,0,0,.8-3.2c-1.4.2-.8,2.6-1.9,3.1-.7-.7-.2-2.8-1.2-3.2C341.1,22.3,341.9,23.9,341.6,24.5Zm-6.9,4h-.8c-1-1.9-2.2-3.6-4.4-4.3.8,1.2.8,3.4,1.8,4.4.5.1,1,.2,1.1.8-.1,0-.1.2-.1.4-1,.3-2.5-.8-3.6-.1.2,1.6,2.2,2.8,3.3,3.8.3.2.3.6.6.8a8.068,8.068,0,0,0,5.9,1.4,4.331,4.331,0,0,0,2.4.4c-.4-1.7-1.5-2.9-1.8-4.8-.1-.2-.4-.2-.5-.4-.6-2.3-2.2-3.5-2.9-5.7-.7-.1-.8-.9-1.4-1.2C333.7,25.7,335.4,27.1,334.7,28.5Zm83.6,12.6c.2.3.4-.2.1-.2C418.4,41,418.3,41,418.3,41.1ZM395,73.5c0-.1.3-.5,0-.5C395.2,73.2,394.7,73.4,395,73.5Zm.9,5c-.1.7,0-.5,0,0ZM225.3,97c-1.3-.5-1.2-2.5-2.1-3.3a12.572,12.572,0,0,0-2.7,6.7c1.7,2.3,2.3,7,1.9,10.2.8-.2,1.5-1.6,2.6-2.5.3-.2.7-.3,1-.5,1.2-.9,2.5-3,4-1.1.5,2.5,0,6-.1,8.1,0,.7.4,1.9-.8,1.7,0-3.3.2-6.4-.1-9.4-1.8.5-3.2,2.6-5,3.6a5.125,5.125,0,0,1-2.7,2.9,31.148,31.148,0,0,0-.6-11c-.9.1-.7,1.4-1.5,1.5-.7,2-1.9,3.5-2.7,5.2-.5,2.7-1.7,5.3-2.1,8.3-.1.9,0,2-.1,3-.1.5-.4,1-.5,1.5a22.878,22.878,0,0,0,.1,3.7c.1.8.6,2-.6,2.3-1.8-5.8-5.1-10.1-8.9-13.9-2.1-1.1-3.9-2.4-6.1-3.5-1.6-.8-4.4-1.1-6.3-1.8.1,2.6,1.9,4.6,2.6,7-2.1.5-3.9-.9-6.1-.5a36.921,36.921,0,0,0,3,6.7c-2.2.8-5.6-.3-8.2-.2a64.2,64.2,0,0,0,3.3,6.4c.3.3,1.2,0,1.3.6.1.5-.5.4-.7.5-2.1.4-5.2-.2-6.9.7.6,1.1,1.7,1.6,2.3,2.6a3.2,3.2,0,0,1,2.1,1.3c1.1,0,1.8.8,2.7,1.2a53.031,53.031,0,0,0,8.3,2.1c.7.2,1.7.4,2.4.6.5.2.8.7,1.3.8.4.1.8.1,1.2.2,3,1.2,5.6,3.6,8.4,4.6a2.177,2.177,0,0,1,.5.8,6.031,6.031,0,0,1,2.1,2.1c.6.4,1.8,1.6.8,2.4-.9-.2-.9-1.2-1.4-1.8-.4-.4-1-.6-1.4-1.1a29.372,29.372,0,0,0-3.7-3.2c-.5.1-.6-.2-1.1-.1a29.912,29.912,0,0,0-13-5.2c-3.2-.4-7.6.2-10.1,1.9a31.239,31.239,0,0,0-3.6,3.7,3.076,3.076,0,0,0-1.5.8c1.1,1.5,4.4.6,6.1,1.5-.1,1.2-1.1,1.4-1.7,2.1,0,1.1-.6,1.5-1.1,2.1,1.1,1.2,3.1-.1,4.4-.5,2,1-.3,3-.2,4.9,1.7.1,2.5-1.6,4.2-1.9.5,1.2,0,3.5,1.1,4.2,1.1-.2,1.2-1.3,1.9-1.9,1.1-2.9,3.8-4.2,6-6.1a14.994,14.994,0,0,1,7.7-.7c.9.2,2.9.7,3.1,1.8-1.2.3-2.1-.6-3.1-.8-2-.1-4.5-.4-6.2.5-3.3,2.7-7.2,5-8.5,9.8a6.667,6.667,0,0,1-3.1-4.6c-1.3.3-3.3,1.8-4.4.2.1-1.3.5-2.3.7-3.6-1.3.2-3.7.7-4.6-.6.1-1.6,1.2-2.2,1.2-3.9a17.219,17.219,0,0,1-6.5-2.3c.2-.7,1-.9,1.8-1.1a78.372,78.372,0,0,0,6.4-5,36.066,36.066,0,0,1,6.3-1.7c-.2-.5-.9-.6-1.7-.6a24.032,24.032,0,0,0-2.3-1.1c-1.8-.9-2.9-2.3-4.5-3.3-.3-.7-1.2-.9-1.1-2,1.8-.8,4.8-.4,6.4-1.4-.8-2.7-3.2-4.4-3.3-7.4,2.8,0,5.7,1,8.1.6-1-2.1-2.4-3.9-2.6-6.8,2-.8,4.2.6,6,.5-.1-.8-.7-.9-1.1-1.4-.7-1.9-1.8-4.1-2-6.1,1.2-.8,2.1.6,3.2.8a29.182,29.182,0,0,1,7.4,2.4c.3-.8-.5-1.6-1-2.1a27.87,27.87,0,0,1-.2-10c2.4-1.8,4.9,3.1,6.4,4,.9-2,1.3-4.4,2.3-6.3.1,0,.2,0,.2-.1a9.264,9.264,0,0,1,3.3,4.8c.9-.6,1.3-4.2,2.3-4.4.9-.2,1.1.9,1.9,1.2,1.3-2,3.3,0,3.5,1.9.7-.8.2-2,.6-3,.1-.2.4-.5.5-.7.6-1.4,1.5-2.8,2-4.3.1-.1.3-.1.4-.2,1.1,0,1,1.1,1.7,1.5C224.3,94.4,225.9,95.6,225.3,97Zm-14.4,4.3a21.29,21.29,0,0,0-2.3-3.3c0-.1-.1-.1-.2-.1-.5.9-.6,2.3-1.2,3.5-.5.9.3,2.8-1,3.2a4.129,4.129,0,0,1-.7-1.1c-2.2-.8-2.7-3.3-4.9-4-1.4,2.6-.4,8.4.8,10.7-.2.3-.5.4-.6.7a33.5,33.5,0,0,0,4.5,2.7,45.826,45.826,0,0,1,6.9,9.3c.6-1.3.4-2.7.6-4a40.806,40.806,0,0,1,5.8-16.2c-.5-1.7-.7-3.6-1.8-4.6-.5.6,0,2.2-1.1,2.3-1-.3-.3-2-1.4-1.9-1.2.1-1.3,3.9-2.4,4.6C211.4,102.8,211.3,101.9,210.9,101.3Zm20.2-9.8c-.8,1.2-2.4,2.1-3.3,3.2-.7.8-1.6,1.8-1.5,2.9a1.613,1.613,0,0,0,1.4-1.2,22.034,22.034,0,0,0,4.3-4.8A2.483,2.483,0,0,0,231.1,91.5Zm1.7,5.3c1.7-.4.4-4.3-.1-5h-.4C232.1,93.6,232.6,95,232.8,96.8Zm3.1-1.6c-.7.1-1.6,0-1.5.8,1.4.3,2.2-1,4-.7.5,1.3,0,3.6,1,4.5,1.9.2,3.1-.4,5-.2.3,1.9-.7,4,0,5.9,1.7-.3,3.4-1.2,5.2-1,.1,1.9-1.3,3.3-.6,5,1,.1,1.9-.6,2.6-.4,0,1.3-1.1,1.6-.8,3.2,1.4.2,2.2-.8,3.3-.5-3.2,2.4-5.6,5.7-8,8.9-.2,1.1-.6,2-.8,3.1-1.3.9-2.8,2.3-4.3,2.6.3-1.1,1.1-1.6,1.5-2.6.5-2.3,1-4.5,1.5-6.8a.781.781,0,0,1-.4-.4c-1.2-.2-1.6.9-2.5.5,0-.9.5-1.9.1-2.7-1.8.7-3,2-4.8,2.7.4-2.3.3-4.2.5-6.7-.6.1-.9-.4-1.5-.5-2.1,1.9-4.8,3.1-5.5,6.3.9.4.9-.8,1.5-1.1.2-.8,1-.9,1.2-1.7,1.3-.6,1.9-1.9,3.3-2.4a41.454,41.454,0,0,1-1.2,8.5c1.7.1,1.9-2.2,4-2,.4-.6.4-1.5,1.3-1.5.1.7-.3.8-.2,1.5.3,1.4,1.9.5,2.7.5-.9,5.4-2.9,9.8-7,11.9-3.1,3.3-6.9,6.2-9.9,9.5a50.5,50.5,0,0,0-4.2,5c-.7,1.1-1.9,2.2-1.7,3.6,1.8-1.7,2.9-4.1,4.5-5.9,1.3-.9,1.9-2.5,3.5-3.2a26.588,26.588,0,0,1,3.9-4.3c1.6-1.4,3.4-3.2,5.1-4.5a9.128,9.128,0,0,1,1.3-.8c1.7-.7,2.8-1.9,4.3-2.9a13.888,13.888,0,0,1,3.1-1.8c3.2-2.8,8-4.2,11.9-6.2.5-.2.8-.8,1.4-.6a14.6,14.6,0,0,1-4,4.2,1.427,1.427,0,0,0,.2,1.3c.9,0,1.7-.8,2.6-.5a3.813,3.813,0,0,0-1.5,2.5c.4.5.9.9,1.3,1.4-.3.8-1.3,1-1.4,1.9.2.6.7.9.8,1.6-.1.2-.3.3-.4.6-1.9.8-4.8,1.2-6.9,1.8-.3.1-1-.2-1,.5a17.157,17.157,0,0,0,4.6-.4c.9.8,2.5.4,3.7.8-.3,1-2,.8-1.8,2.4.2.4.9.5,1.2.8-.6,1-2.5.6-2.7,1.7-.2,1,.8.8.8,1.9-3.9-.7-8.3-1.8-12.6-1.7a5.284,5.284,0,0,0-1.2.1c-3.2.7-6.4,1.7-8.2,3.5a1.028,1.028,0,0,0-1,1.1c1.1,0,1.9-.8,2.7-1.3a25.163,25.163,0,0,1,7.6-2.5c.3.2.2.7.7.7,1.1-.3,1.9.5,2.9.8-.8.5-1.8.8-2.6,1.2-.2,1.4,1,1.3,1.3,2.1-1.8.8-3.6-.2-5.2,0,.3,1.1,1.5,2.3.5,3.3-1.5-1.1-4.3-.4-6.4-.6-.9-.1-2.5-.4-3,.6,1,.6,2.4.1,3.8.1,2.4,0,4.6.9,6.2.7.9-.6.7-2.3.6-3.2,1.7,0,4.1.7,5.2-.7,0-.3-.2-.4-.1-.8-.4-.5-1.6-.2-1.6-1.1.9-.7,2.8-.4,3-1.8-.4-.8-1.9-.5-2.1-1.4,3.6.4,7.1,1.5,10.5,1.8a5,5,0,0,0-.6-2.6c1.2-.7,2.8-.7,2.7-1.9,0-.7-1.1-.9-1.1-1.3.1-.9,2.9-.8,2.3-2.3-.6-.6-2-.5-2.5-1.2.8-.7,2.2-.7,2.3-1.8,0-.9-.9-.9-1.1-1.9.5-.7,1.5-.6,1.7-1.4.2-1.4-1.7-1-1.9-1.8-.1-.7.5-.8,1-1.3a19.251,19.251,0,0,0,1.9-2.3c-1.1-.4-2.2.8-3.3.4,1.4-1.5,2.7-3,4-4.5a1.045,1.045,0,0,0,.8-1.7c-4.1,1.1-6.8,3.6-11,4.6a20.941,20.941,0,0,1-4.4,2.5c.9-3.1,3.2-4.7,4.5-7.3a4.178,4.178,0,0,0,2-1.7c.3.1.3-.2.6-.1.5-.9,1.5-1.2,2.1-1.9.1-.4-.2-.3-.1-.7-1.1-.6-2.6-.1-3.7-.2.1-.9.8-1.3.8-2.4-.6-.5-2-.2-2.9-.5-.2-1.8,1.1-2.8.7-4.4-1.6-.9-3.7.3-5.6.2.1-2,.5-3.6.6-5.2-1.5-.6-3.4.1-5.2.1-1.3-.9-.6-3-1.1-4.5C238.1,93.9,236.8,94.8,235.9,95.2Zm142.6,19.3h.4v-.2h-.4Zm-31.1,5.6c-.1.7.1-.5,0,0Zm64.3,14.8c.3.4.2-.4,0,0ZM232,273.7v.2c.1,0,.1,0,.1.1h.2c0-.1,0-.1.1-.1v-.2c-.1,0-.1,0-.1-.1h-.2A.1.1,0,0,1,232,273.7Zm2.8,13.9c-2.2.3-7,.5-9.5.8.2.9,1,.4,1.7.4,1.2-.1,2.7.1,4.2,0,1.1-.1,2.2-.4,3.1-.5.5,0,1.1.4,1.3-.2S235.1,287.6,234.8,287.6Zm-14,1.4c.2.7,1.3.5,1.8.1.5.4,2.1.4,2.1-.4C223.5,288.2,221.5,288,220.8,289Zm-7.9-.3c-.1.3.2.3.1.6a10.32,10.32,0,0,0,4.6.4c.6.6,1.7.1,2-.5-.1-.8-1.4-.9-1.8-.4-.4-.6-1.9-.6-2.1.1.1-.4-.1-.5-.4-.6A10.037,10.037,0,0,0,212.9,288.7Zm148.3,3.7c.5,1.3,1.4,2.2,1.9,3.3a11.45,11.45,0,0,1,.7,1.9,78.777,78.777,0,0,0,6.2,11.9v.7a18.64,18.64,0,0,1,2.9,4.4,4.831,4.831,0,0,1,1.4,2,22.255,22.255,0,0,1,2.6,2.7c.9.9,2.1,1.6,3,2.5,1.2,1.2,2,2.8,3.8,3.2.3-1.3-1.3-1.6-2-2.3a8.339,8.339,0,0,1-.8-1.2c-.1-.1-.4-.1-.7-.1-1.4-2-3.5-3.3-4.6-5.6-.2-.2-.6-.2-.7-.5-1.9-3.1-4.2-5.8-5.5-9.4-1.2-.9-1.7-2.4-2-4.2-1.5-1.7-2.3-4.1-3-6.7-.1-.3-.6-.3-.7-.6-.3-1.8-1.5-3.1-2.3-4.5-.3-.6-.3-1.5-1.1-1.8h-.2A20.878,20.878,0,0,0,361.2,292.4Zm-141.1-3.2c-.2.6.5,0,0,0Zm151.3,43.9c-3.3.6-6.8,2.5-9.5,3.8-.5.2-.9.3-1.4.5-1.4.6-2.6,1.8-3.8,2.3a10.733,10.733,0,0,0-2.4,1.2c-2.2,1.2-4.2,2.4-6.2,3.6-.9.5-2,.9-2.9,1.4-1.6.9-2.9,2.4-4.3,3.3a22.476,22.476,0,0,1-2.1,1.2,29.841,29.841,0,0,1-5.8,4c-1.3,1.6-4,2-4.5,4.3.9-.1,1.5-.9,2.1-1.4,2.4-1.7,4.9-3.2,7.5-4.8,1.1-1.5,2.8-2.1,4.3-3.1,1.3-.9,2.3-2,3.7-2.9,4.3-2.6,9.5-5,13.8-7.6,2.5-.7,4.2-2.3,7-2.7.3-.6,1.3-.5,1.7-1.1a19.165,19.165,0,0,0,3.1-1.1c.6-.2,1.5,0,1.7-.8A3.378,3.378,0,0,0,371.4,333.1ZM165.2,359.5a54.837,54.837,0,0,0-17.5,21.4c-.8,2.4-2,4.4-2.4,7.1,2.2.6,4.1-.9,5.8-.8-.3,2-.8,3.7,0,5.1,2,.5,3.4-2,5.6-1.7.1,1.5-.4,4.4.4,6,2.2-.3,2.8-2.1,4.8-2.6-.2,2.2.6,4.2,1.1,6.1,1.3,1.3,2.5-.7,3.5-1.7.9-1,2-1.8,1.9-2.6-1.9,0-2.3,2.4-4,2.9-.3-.3,0-.6,0-1-1.6-.6-.7-3.7-1.8-4.8-2.2-.1-2.5,1.6-4.3,1.9.1-.3.5-.3.4-.7-.8-.9-.4-3.5-.2-5.4-2.3-.1-3.6,1.9-6.1,2.1-.5-1.7.3-3.6-.1-5.5-1.4.6-3,1.7-5,1.3,1.3-6.1,4.2-10.7,7.4-15,.6-2.1,2.4-3,3.5-4.6a48.064,48.064,0,0,0,5.1-5c1-.8,2.6-1.7,3-2.9C165.8,359.2,165,358.9,165.2,359.5Zm-34.2,2c-.4.8-1.6.9-1.7,2,.9.1,1.4-.6,2-1.1,1.4-1,3.5-1.4,4.3-2.7C133.7,359.4,132.7,361.1,131,361.5Zm-.5,2.8c.7,1.4,3.6,2,4.9.8C134.4,364.3,132.1,364.2,130.5,364.3Zm6.4,2.1c-1.5,1.3-4.2,1.5-4.6,3.8,1.4-.4,2.5-1.5,3.7-2.1.8-.4,1.5-.6,1.7-1.4C137.4,366.5,137.3,366.3,136.9,366.4ZM369,377.6c0-.8-.8-.7-1-1.4-2.1-.5-4.5-2.8-6.4-1.1,3.3,1.1,6.4,2.3,8.3,4.8-1.2,1.1-3.7,1.7-5.8,1.8-1.2,0-2.7-.6-3.2.5,2.9,1.5,8.4-.7,10.6-1.7A3.585,3.585,0,0,0,369,377.6Zm25.3-2.9c-.3.4.4-.3,0,0ZM321,401.2c.1-.1.3-.6-.1-.5C320.9,400.9,320.8,401.1,321,401.2ZM54.6,413.3c.2.4.3-.5,0,0Zm135.7-10.8c-1.3.9-2.3-.7-3.3-.5-1.3.3-.2,1.7-.7,2.7a4.331,4.331,0,0,1-2.4.4c-.1-1.4-1.4-1.4-2.4-1.9-1.1,1,0,3.4-1.4,3.7-1,.2-2.9-1.6-3.8-2a9.639,9.639,0,0,0-2.3,1.9c-.5.5-1.4,2-2.3,1.8-.7-.2-1.2-3.5-1.3-5.1-.1-.7.1-1.5,0-1.9-.2-1.1-1.3-1.9-1.8-2.6-.8.1-.7,1-.8,1.7-.7,1.1-1.2,2.4-1.8,3.6-1.5,1-1.5,3.4-3.5,3.8-.5-1.4-.7-3.1-1.3-4.4-1.7.6-3.1,2.1-5.1,2-.1-1.2-.5-2.8-.6-4.2-.9.2-1.5,1.1-2.3,1.7-.7.6-1.5,1.5-2.9,1.3-.5-1.3-1.3-2.4-1.2-4.4-1.7-.1-1.8,1.9-3.5,1.5-1.4-.3-1.7-4.6-1.8-6.4-1.5.6-3.1,1.8-4.8,2a10.478,10.478,0,0,1-.1-5,25.449,25.449,0,0,1-4.3.5c0-.5,0-.7-.5-.9,1.2-6.9,5.6-10.7,8.5-16-3.1.3-6.9.5-9.2-.6.6-1.5,2-2.2,2.9-3.5-.7-.6-2.7.1-3-1,1.1-1.4,3.8.4,5.5-.5-.1,2-2.9,2.3-3.5,4.3a13.1,13.1,0,0,0,6,.2,9.807,9.807,0,0,0,2.1-.4c.9-.3,2-1.7,2.9-2.5,1-.9,1.9-1.9,2.6-2.6,1.7-1.5,3.8-2.8,5.6-4.3.9-.8,1.7-1.6,2.6-2.3a30.49,30.49,0,0,0,3-1.9c1-.3,1.8-1.3,3-1.1-1.8,2.2-4.4,3.1-6.5,4.9-1.7,1.4-3.3,3-5.1,4.4-3.4,2.7-6.6,5.1-8.9,8.8-.5.8-.8,1.7-1.3,2.5a60.872,60.872,0,0,0-4.2,6.2,11.76,11.76,0,0,1-1,1.9,1.553,1.553,0,0,0-.1,1c-.5.3-.6,1-.6,1.8,2.1.9,3.6-.7,5.1-1.2,0,1.8-1.1,4.3,0,5.6,1.7-.5,2.5-1.9,4.2-2.4.8,2,.3,5.3,2,6.3,1.5-.2,1.9-1.6,3.3-1.9a10.955,10.955,0,0,0,1.5,5.1c2.1-.6,2.5-2.8,4.6-3.4.2,1.7.9,3.2,1.1,4.5,2.2-.1,2.9-2.2,4.9-2.1a21.358,21.358,0,0,1,1,3.5c1.7-.7,3.1-3.3,3.7-5.5.3-.8.2-2,1.2-2.1a2.237,2.237,0,0,1,1.8,1.1,11.755,11.755,0,0,1,1.9,3.2c.6.2.7.8,1.1,1.2,1.3-1.4,1.2-3.9,1.4-6.1a22.112,22.112,0,0,0,.5-2.5c-.8,0-1.6.9-2.6,1.1-.6-.4-.3-1-.4-1.7a84.155,84.155,0,0,1-1.1-8.8c-.1-4-.4-8.6.7-11.1.2-3.2,1.4-5.4,1.9-8.2,1.1-.8.7-3.1,2.4-3.3-1.7,5.1-4.1,11.3-3.7,17.4.2,2.4-.1,5.4.1,7.9.2,2.1.7,4,.8,6.1,2.1-.4,3.1-2.6,4.9-3,.5.8,1.5,2.5,1.3,3.9,1.6-.4,1.8-2.3,3.3-2.7.2,1.5,1.9,1.6,2.6,2.5.9-.5.5-2.3,1.4-2.7a6.069,6.069,0,0,1,2.9,1.4c.3-.4.2-1.1.6-1.4.7-.5,1.2.2,2.3,0-3.6-4.4-7-8.2-8-15-.5-.7-.9-2.6,0-3.1a5.005,5.005,0,0,1,.9,2.5c.4,1.5.8,3,1.3,4.6,2.7.2,3.5-1.5,5.6-1.9,2.8-1.6,6.2-2.5,8.4-4.5,3.2-1.1,5.6-3.2,8.8-4.3,7.8-5,16.5-9.2,22.7-15.8,2.4-1.9,5-3.6,7.4-5.5.7-.5,1.2-1.3,1.9-1.8.3-.3.9-.3,1.2-.6.4-.3.5-.9.8-1.3.4-.5,1.2-.7,1.7-1.1.8-.6,1.4-1.2,2.3-1.8,1.3-.8,2.2-1.6,3.5-2.5,3.8-2.9,8-5.6,12-8.1.4-.2.5-.5.7-.8,2.3-.9,3.9-2.6,5.8-3.9,1.4-.1,2-.9,3-1.4a63.606,63.606,0,0,1-7-5.6c-4,1.2-8.3,1.7-12.3,2.9-1.8.5-3.5,1.3-5.6,1.8-3.2.8-6.4,2-9.4,3a15.451,15.451,0,0,0-2.3.6c-.9.3-1.6,1.2-2.9,1.3,0,1.4.8,2.8.8,4.4a13.926,13.926,0,0,1-1,5c-1.3,1.3-1.8,3-3,4.2s-2.8,1.9-4.3,3c-1.4,1-2,2.6-2.7,4.3-1.6-.1-1.2-2.2-1.9-3.2-.8.1-.9.8-1.2,1.3a35.523,35.523,0,0,1-3.5,2.7,16.674,16.674,0,0,1-1.5,1.4c-.6.3-1.6.5-2.4.8a40.892,40.892,0,0,0-6.8,2.9,35.148,35.148,0,0,0-11.4,5.2c-2.7,1.8-5.6,3.5-7.7,6.1-.6.7-1.3,1.4-1.8,2.1-.7,1-.7,2.3-1.4,3.1-.5.2-.8-.1-1.3.1-2-5.9-.3-13.5,2.1-17.7-3.7,1-8.8,2.2-13.8,1.9a9.484,9.484,0,0,0,0-1.7c2.4-5.2,6.4-8.7,11-11.7a20.612,20.612,0,0,1-14.3-4.8c.5,1.8,3.2,3.6,2.4,5.8a3.309,3.309,0,0,1-1.7-2.5c-1.6-1.1-1.9-3.7-3.7-4.6v-.7a7.008,7.008,0,0,1-1.9-2.6,5.12,5.12,0,0,1-2.3-2.3c-1.9-.8-2.8-2.7-4.6-3.6-.7.8,1.4,1.5.5,2.6-2.1,0-2.3-2.3-4.2-2.1-.2.9,1.3,3.2,0,3.6-1,.3-2.4-1.8-3.3-2-1.1,1.1,1.7,2.6.5,3.8-2.3-.1-4.1-1.8-6.3-2.4-.3,2.2,3.1,4.4,1.1,6.5-2-1.4-3.9-3-6.5-3.7-.3.9,1.3,1.3.5,2.5-2.2.9-4.1-1.7-5.8-.8a2.567,2.567,0,0,1,.5,3.3c-1.7,0-3.5-.8-5.8-.6,1.6,2,4.4,2.9,6.3,4.6.4,0,.5-.2,1-.1,2.7,2.4,7.3,3.3,10.6,4.6a17.572,17.572,0,0,1,5,1.3c3.9.6,7.7,1.2,11.4,1.7,1.5-.1,3.5,0,4.9,0-.1,1.7-4.2,1-5.2.7-3.9.3-7.5-.8-11.3-1.5-2.5-.5-5.2-1.5-7.1-1.7a6.9,6.9,0,0,0-2.5.4c-2.7.4-5.7.9-7.4,2.6a6.567,6.567,0,0,0,3,2.4c.2,1.1-1.2.9-1.8,1.1a6.439,6.439,0,0,0-3.1,1.5,41.048,41.048,0,0,0,4.6,1.9c-1.1,1.9-5.1-1-6.2-1.5.4-2,3.1-1.7,4.1-3.1-.8-.3-1.1-1.2-2-1.4-.3-1.6,1.6-1.8,2.5-2.6-1.1-1-3.2-1.2-5-1.7a14.579,14.579,0,0,0-1.9-.7,24,24,0,0,0-11.2,1.1c.3,1.2,1.9,1,2.4,2a7.8,7.8,0,0,1,3.2,1.4c-.8,1.8-3.6,1.6-4.5,3.3,1.3,1.4,3.1,1.7,4.5,2.7-.3,2-4,1.3-4,3,0,1,2.1,1.5,3,1.5.2.9.9.6,1.4,1.1-.8,2.5-4.1,2.6-4.6,5.4,2.2.3,4.3,1.9,7.1,1.3-.1,1.9-1.9,2.1-2.4,3.6.8,2,4.5.6,5.6,2.1-.3,1.8-2.3,1.9-3,3.3,1.5,1.4,5.3.1,7.5,1-.1,1.8-1.7,2.2-2.4,3.5.1.3.1.6.2.8,3.1.5,6.4-1.3,8.5-2.3.2.6-.4,1.3-.8,1.5a15.427,15.427,0,0,1-5.6,1.9c-1.4.2-2.9-.3-3.2,1.1-1.8.6-3.7.6-5.2,1.5a1.1,1.1,0,0,0-.8,0c-2.7,1.2-6.6,1.2-9.3,2.5a90.249,90.249,0,0,0-8.9,2.5,24.431,24.431,0,0,0-2.4,1c-1.8.5-3.5.8-5.2,1.3-2,.6-4,1.7-6.1,2.4-1.9.6-3.9.7-5.4,2.1a35.3,35.3,0,0,0-8.7,4.3,6.57,6.57,0,0,1-1.7,1.2,47.924,47.924,0,0,0-11.3,5.7,23.408,23.408,0,0,1-2.7,1.5,3.089,3.089,0,0,1-1.4.7c-1.7,1.3-3.7,2.3-5.2,3.7a11.672,11.672,0,0,0,3.9-1.5,18.639,18.639,0,0,1,2.5-.8c.9-.3,1.8-.6,3.1-1a13.348,13.348,0,0,0,1.2-.6,7.719,7.719,0,0,1,1.5-.2,20.085,20.085,0,0,1,6.3-1.5q10.5-2.4,21.9-4.5c3.4-1,6.5-1.8,9.2-3.5.4-.2.6-.7,1-1,.9-.6,2-1.1,2.9-1.7,1.1-.8,2.3-1.8,3.3-2.7s2-2.1,3.1-2.9c2.4-1.7,5.4-2.6,7.6-4.3a13.03,13.03,0,0,1,3.1-2.1c3.9-.8,7.5-2.1,11.3-3.2-.3,1.4-2.1,1.7-3.3,2.1-1.3.5-2.7,1.3-3.8,1.7-1,.3-1.9.4-2.9.7a25.822,25.822,0,0,0-2.6.8c-.7.3-1.2,1-1.9,1.4-1.9,1.2-4.5,2.1-6.4,3.5a31.967,31.967,0,0,0-2.7,2.5c-.8.7-1.8,1.3-2.7,2a25.246,25.246,0,0,1-2.5,2.1c-.8.6-1.9,1.1-2.9,1.8a27.936,27.936,0,0,1-4.9,2.4c-5.7,2.4-12.4,2.7-19.2,4.5-2.5-.2-4.4,1.3-6.7,1.5-.5.1-1.1-.1-1.5,0a33.777,33.777,0,0,0-6.8,1.9c-1,.4-2.2.5-3.2.8a25.09,25.09,0,0,0-4,1.8c-3.8,1.1-7.6,2.3-10.5,4.4-.8.1-1.5.8-2.3.2-.3-1.6,1.8-1.6,2.4-2.6h.7c.4-.5,1.2-.5,1.4-1.1,5.3-3,9.8-6.8,15.5-9.4a4.349,4.349,0,0,0,.6-.7,184.239,184.239,0,0,0,17.7-9.2c8.6-3.3,17.9-6,26.7-9.2a56.588,56.588,0,0,0,10.1-2.1c-3,0-6.1.1-9.2-.2-3.3-.3-6.9-1-10.4-1.3-1.8-.1-3.2-.6-4.9-.5-1.2-.8-2.8-.7-4.3-1.1-1-.3-3.3-1.2-5.4-.8-.8.1-.9.8-1.5,1.3-2,1.7-6.4,3.1-10.5,3.1-2.5,0-4.5-.9-6.5-.2-1,.4-1.6,1.5-3,1.2,0-.9.9-1.8,1.1-2.9.6-.5,1.4-.8,1.5-1.8-3.5.2-8.7-1.2-11.9-1.8-1.8-1.3-4.7-1.7-7.3-2.4-.7-.2-1.2-.7-1.8-.8-1-.2-2-.4-3.1-.6a13.838,13.838,0,0,0-5.4-.4c-1.6.3-2.8,1.5-4.5,1.4-.5-1.1.9-1.1.8-2.1-2.5.1-4,2.2-5.5,3.8a15.276,15.276,0,0,0-1.8,1.8c-1.3,1.8-1.9,4.5-2.5,6.9a15.238,15.238,0,0,1-1.2,3.6,2.354,2.354,0,0,1,.2.8c-.5.6-.6,2.1-1.9,2.1a2.445,2.445,0,0,1-.6-1.8c-.6-.8-1.2-1.5-1.8-2.3-1.5.9-2.8,2.7-4.6,3-.6-.8.1-2.2,0-3.2-1.1.2-2.4,1-3.7.6a15.049,15.049,0,0,1,1.2-5.4c-2-.1-4.6.9-6.4,1-1.2-2.2,1.6-3.4,1.8-5.4-1.6-.6-4.7-.8-3.2-2.7a12.5,12.5,0,0,1,3.1-2.3,34.757,34.757,0,0,1-3.8-2c.1-2.2,2.6-2.1,3.7-3.5a2.958,2.958,0,0,0,1-.2c.5-.6,1.4-.6,1.8-1.3.8-.1,1.7-.2,2-.8A18.457,18.457,0,0,1,4,367.9,7.709,7.709,0,0,1,1.9,366c-1-1-2.7-1.2-1.7-2.7A39.465,39.465,0,0,1,7,361.5c-1.5-1.4-3.2-2.4-4.8-3.7-.2-1.1.4-1.3.6-1.9A25.316,25.316,0,0,1,9,354.6c.1-.7-.8-.6-1.2-1-.2-.2-.4-.9-.8-1.4-.5-.5-1.2-.8-1.4-1.2a11.764,11.764,0,0,1-.7-2c.1-1.9,3-1.5,4.4-1.9a16.164,16.164,0,0,0-1.9-3.7c-.4-1.7-.2-3.6-.6-5.1a8.333,8.333,0,0,0,1.5-.4c.6.5.5,1.6,1.7,1.5.2.2-.1.2,0,.6a5.639,5.639,0,0,1,1.2.4c.8,1.5,2.7,1.8,3.3,3.5,1.9.4,3,1.8,4.6,2.7a21.53,21.53,0,0,0,4.8,2.4,8.42,8.42,0,0,0-2.1-3.3c0-.4-.3-.7-.4-1.1-1.6-1.4-2.1-3.8-3.5-5.4-1-3.3-2.9-6.7-2.6-10.5.7-.5,1.4-.1,2.3-.4a20.393,20.393,0,0,0,5.1,2.6,26.565,26.565,0,0,0-.1-4.9c2-1.8,4.1.8,5.4,2.1,1.1-.5.7-2.5,1.4-3.3a3.743,3.743,0,0,1,1.8-.5c.7.7,1,1.6,1.7,2.3,1.7-.3,1.4-3.5,3.8-3.6,1.5,1.9.5,5.8,1.5,8-.2.1-.2.4-.2.6.8,3.3,1.4,6.9,2.4,10.1.2.4.9,1,.6,1.5.1.3.5.4.7.7.2,2.9,2.9,4.1,3,6.8-1.9.4-2.3-1.6-3-2.7-4.3-5.2-5-13.9-6-21.9-1.2.5-.9,2.6-1.9,3.3-1.7,0-2.1-1.4-3-2.3-.8.2-.4,1.1-.5,1.7a4.88,4.88,0,0,1-1,2.3c-2.6.2-2.6-2.1-4.5-2.6-.6,1.3.7,3.6,0,5-3.2,1.2-4.5-2.6-7.6-2.9a37.014,37.014,0,0,0,1.9,6.6c.2.3.3.8.5,1.1.4.6,1.2.7,1.1,1.9,3.4,4,5.1,10.1,9.9,12.3.4-.1.2.4.5.5a13.553,13.553,0,0,1,4.3,1.1c-.3,1.4-2.7.2-4,.4-.6-.6-1.8-.6-2.9-.7a6.034,6.034,0,0,0-.8-.8c-3.4-1.2-5.9-3.2-9.2-4.4-2-1.7-4.8-2.6-6.4-4.6-1.1,0-1-1.1-2.1-1,0,1.9,1.4,3.5,2.1,5.1-.5,1.8-3.2.7-4.9,1.3,0,.8,1,.6,1.4,1,1.2,1.2,2.8,1.9,3,4a4.644,4.644,0,0,1-3.1,1.8c-1.3.3-3.2-.2-3.9,1.1a2.235,2.235,0,0,0,1.5.4c.6,1.1,1.2,2.6,2.7,2.5,2.9,3.2-4.6,2.9-6.6,4,2.3,1.1,3.8,3.2,6.2,3.9.9.2,2.1.2,2.7.7.5-.3.8.1,1.4,0,.2.2-.2.7.1,1,5.2-2.4,12.3-4.7,18.7-4.8-.1,1.7-2.8,1.4-4.5,1.7-1.8.3-3.4.7-5.1,1.1-1.2.3-2.3.9-3.5,1.3a43.842,43.842,0,0,0-10,4.5H7.6c-.8.7-2.2.9-2.7,1.9,1.5.4,1.6,1,3.1,1.2,1.2,2.2-1.8,2.8-2.6,4.2a10.012,10.012,0,0,0,3.2.8c.2,2-1.6,2.8-1.7,4.8,1.9.3,3.8-1,6-.6.4,2.2-1,3.5-1,5.5,1.1,0,2.7-1.3,4-.5.5.4-.2.9,0,1.7,1.2-.4,1.8-2.6,3.2-2.3.9.2.7,1.5,1.6,2,.6-.4.6-1.3.8-2,.3-1.3.8-2.6,1.2-4.2.4,0,.3-.5.6-.6.7-2.2,2.3-3.5,3.7-5.1,2.1-2.5,5.2-4.2,8.3-5.5,2-2.3,5.4-3.5,8.5-4.3-4.4-1.8-7.1-5.3-10-8.6.9-1.8,3.5-1.8,5.5-2,2.4-.2,4.1.6,6.2.7-.3-1.1-1.5-1.6-2.3-2.6a32.178,32.178,0,0,1-2.3-5c-.4-.9-1.1-2-.4-3.3a1.549,1.549,0,0,0,.8-.2,13,13,0,0,0,3,3.2c.3.2.9.2,1.1.4.5.3.8.8,1.3,1.1a18.027,18.027,0,0,0,2.1.8c.3.2.4.6.7.7.2.1.6,0,.8.1a22.332,22.332,0,0,0,3.1,1.5c.2.1.6-.1.8,0,.6.2,1.1.8,1.7,1.1a8.874,8.874,0,0,0,1.5.2c.7.2,1.2.9,1.9,1.2,1.8.9,3.9,1.2,5.2,2.5,1.9.3,2.9,1.6,4.4,1.9,0,.7.5.8.7,1.3.5-.1.8.1,1.2.1,1.8,2.6,5.3,3.3,8.7,4.5,1.7,1.4,3.7,2.4,5.2,3.9.9,1.6,2.2,3.8,3.1,5.8,7.3,1.1,14.8,2.9,22.9,3.6-.7-1.3-3.1-1-3.9-2.1-.4.1-.5-.2-.8-.1a87.407,87.407,0,0,1-12.1-9.5,12.485,12.485,0,0,1-1.2-.8c-.3-.3-.4-.8-.7-1.2-.6-.7-1.6-1.1-1.9-2-.3-.2-.8-.2-1.1-.4-.3-.4.2-.7-.1-1.1-.1-.5-.9-.4-1.2-.8a5.115,5.115,0,0,0-2.3-2.7,12.834,12.834,0,0,0-2.6-4.4c-2.4,1.2-4.3-.6-6.3-1.2-2.3-2.6-5.2-4.6-6.9-7.9-.8-.8-1.7-1.4-2.5-2.1-1-.1-1.7-.3-2-1.1.1-.2.3-.3.2-.7,3.7-.6,6.5,1.3,9,2.6.5-1-.3-2.1-.4-3.2-.1-1.6.7-3.3.4-4.9.6-.2,1-.3,1.4-.4a1.946,1.946,0,0,0,1.3,1q1.8,1.65,3.3,3.3c.7-.9.4-2.3.4-3.6a24.216,24.216,0,0,0-.2-3.9c-.1-.5-.4-1-.5-1.4-.1-1,.1-2.1,0-3.1s-.4-2.1-.6-3.1a37.737,37.737,0,0,0-2.5-8.8c-.1-.3-.4-.4-.6-.7-.6-1.1-.8-2.4-1.3-3.5a39.837,39.837,0,0,0-2.4-3.8,2.4,2.4,0,0,0-1.8-2.4c-.9,1.2-.8,3.5-.8,5.5a11.827,11.827,0,0,0,1.1,5.7c-.5,1.3.6,1.8.6,3-1.1.8-1.5-.7-2.3-1-1.4-2.9-4.5-4-6.1-6.8a3.6,3.6,0,0,1-1.1-.2c-.3,7.5,2.1,14.2,4,20.7,1.3,1.9,2,4.3,3.2,6.3.4.7,1.3,1.3.9,2.3-2.5.2-3.2-3.5-4.2-5.2-1-1.9-2.2-2.8-2-4.8-.1-.4-.5-.5-.7-.8-.4-2.9-1.7-6-2.1-9.4-.3-2.3-1-4.7-1-6.8,0-.3.3-.7.2-1.1,0-.4-.4-.7-.5-1.1a7.564,7.564,0,0,1,.7-3.2c-.7-1.7-1-4.9-1.7-6.8-.3-.7-1.7-2-.4-2.5.9-.3,1.4.4,1.8.7.8.6,2,.8,2,1.2.3-1.8-.3-4.9,0-7,2.1-.9,2.5,2,3.8,2.7,0,.5,0,.9.4,1.1,1-.3.8-2.2,2.1-1.8.7.2,1.7,3.3,1.7,5,0,.5-.2.9-.1,1.3.2.9,1.4,1.7,1.8,2.3.8,1,1,1.7,1.8,2.3,1.4,3.9,4.3,7.5,5.5,12.1a12.252,12.252,0,0,1,.2,1.9,48.375,48.375,0,0,1,1.4,5.1c.5,2.6.4,5.9,1.1,8,.1.5-.3.5-.2,1,1.9-.5,1.9-2.8,4.2-3,.8,1.4-.6,2.8-.8,4.4-.4,2.4.6,5.1,1.1,7.1.2.7,0,1.3.5,1.8a9.688,9.688,0,0,1-.7,6.2c.6.6.6,1.6,1.1,2.4.5.9,1.6,1.6,2.1,2.5.2.4.1.7.4,1,.7.9,1.4,1.1,2.1,2.1.2.3.7.8.8,1,.1.1-.1.5,0,.6.6.8,1.8,1.4,2.5,2.3.4.5.5,1.2,1,1.5,1.2,1,2.6,1.4,3.3,2.9.7,0,.8.6,1.5.5.5,1.1,1.8,1.6,2.7,2.4,1.7,1.3,3.2,3.1,5.4,3.5-.7-1-1.9-1.6-2.4-2.9-.6-.2-.8-.9-1.5-1.1-.6-1.4-2-2-2.9-3.3a28.582,28.582,0,0,1-2.1-4.3L99,364.7a38.351,38.351,0,0,1-3.3-9.4,27.15,27.15,0,0,1-.1-2.9,43.269,43.269,0,0,1-.5-11c.3-2,1.1-4.1,1.5-6.2.1-.6,0-1,.1-1.4.8-2.5,1.4-5.9,2.6-8.3,1.1-1.7,1.8-4.3,2.9-6.3.7-1.5,1.7-2.7,2.5-4.2.6-1.1,2.3-1.8,2.7-3.2,1.6-.9,2.7-2.9,4.2-4,.6-.5,1.4-.7,2-1.2,5.3-4.3,14.2-5.6,23.8-5.1,1,.8,2.2.4,3.3.6.3,0,.6.4,1,.5,2.2.8,5.1.9,6.8,2.3,4.2,1.5,7.5,3.8,12.6,4.3.3.1.5.3.8.4a14.938,14.938,0,0,0,4-.4c-.1,1.2-1.6,1.2-2.7,1.4-1.3.2-2.7.9-3.8,1.1-4.8.8-10.4-.9-14.8-1.2-.1-.2-.4-.2-.5-.4-1.8.2-3.4-.8-5.1-1.2-.6-.1-1.3,0-1.9-.1-1-.2-2-.6-3-.8a42.222,42.222,0,0,0-7.6-1.1,9.633,9.633,0,0,0-1.7,0c-1.4.3-2.4,1.7-3.7,2.4-.2.1-.5,0-.7.1a12.225,12.225,0,0,0-1.9,1.2c-1.7,1.2-3,3.1-4.4,4.4-.8,2.7-3,3.9-4.3,6.3-.2.4-.3.9-.5,1.3-1.2,2.3-3.2,5.2-3.8,8.1-.2.8,0,1.7-.2,2.5-.1.5-.5.8-.6,1.3-.3,1.3-.3,3.1-.5,4.6-.2,3,.1,6.3-.6,8.9a51.034,51.034,0,0,0,3.3,13.2c-.1,2.6,1.5,5,2.6,7.3a6.606,6.606,0,0,0,.5,1.5,48.915,48.915,0,0,0,3.5,5,8.794,8.794,0,0,0,1,.6,9.154,9.154,0,0,0,4,3.8,3.088,3.088,0,0,0,.7,1.4c1.7,0,2.4,1.8,3.9,1.9.4.5.6,1.1,1.1,1.4,2.7.3,3.2-1.7,4.3-3.1-2.4.3-5.7.3-7.7-.8.6-1.7,2-2.6,3.1-3.8-1.9-.4-3.9-.8-5.6-1.3-.4-1.5,1.1-2.2,1.4-3.5-1.1-.4-2.6-.6-3.9-1.2-1.4-.6-2.6-1.3-1.7-2.9,1.1-1.7,3.8-2.6,5-4.2a3.714,3.714,0,0,1-2.1.2,15.046,15.046,0,0,0-3.1-2.4c.3-1.8,2.4-1.7,3.2-3a11.552,11.552,0,0,1-4.2-2.4c.9-1.7,2.8-2.5,4.4-3.6a7.853,7.853,0,0,0-3.1-1.3c-.7-1-1.8-1.6-2-3.1.7-.7,1.8-.5,2.9-.8.4-.1.7-.5,1.1-.6.5-.1,1.2.1,1.8,0,.4,0,.7-.3,1.1-.4,1.8-.3,4.1.2,6,.2a18.456,18.456,0,0,1,2.3.4c1,.1,2.1-.4,2.6.7,1.4-.2,2.3.9,3.5,1.1,1.7.3,3.1-1,4.9-.7-1.1-1.2-3.7-.9-4.5-2.4-2.1-.2-3.5-1.8-5-2.6a6.945,6.945,0,0,1-1.3-.5c-1.3-.8-2.1-2.4-3.8-2.6-.3-.8-.9-.5-1-1.4,1.7-1.6,5.1.1,7.4-.2-.1-1-1-1.8-.4-2.9,1.4-.9,3.6,0,4.9.5.5-.6-.9-1.6-.1-2.6,3-.6,4.9,1.7,7.1,2.6-.2-1.4-1.5-2.8-1.5-4.8.3-.2.5-.5.7-.6,1.6-.4,3.6,1.6,4.8,1.2,0-.5-.6-1.9-.1-2.6,1.5-1.3,2.7,1,4.2.8.3-.6-.5-1.9.1-2.5a3.378,3.378,0,0,1,2.6.2c.6-.4-.2-1.3.5-1.7.8-.5,1.4.3,1.8.8a3.677,3.677,0,0,1,1.8,1.4,24.122,24.122,0,0,1,6.8,6.3c.1.3.6.2.7.5.1.7.8.9.8,1.8,3.4.6,7.5,1.3,11.7.4a43.869,43.869,0,0,0,7.7-2.9c.6-.2,1.2-.2,1.8-.4,2.6-.9,5.4-2.4,8.1-3.6.9-.4,1.8-.9,3.1-1.4,2.1-.8,4.9-1.8,7.1-2.5,2-.6,4.3-.5,6.3-1.7-1.8-.9-2.5-2.9-4.5-3.6.2-1.6,1.6-.2,2.7-.5.2.3.6.4,1,.6,5.2.4,9.9-.5,14.9-.4,2.1.7,4.4,1.2,5.7,2.6.3.3-.1.3,0,.7.5.3,1.1.4,1.4.8,7.2-1.5,13.4-4.4,20.5-5.9,2.8-.6,5.6-1.5,8.5-2.4a2.927,2.927,0,0,0-2-1.9c-.1-.3-.3-.5-.2-.8-4.2-4.1-8.5-8.1-12.1-12.9-4.4.4-8.8-.1-13-.4-3.4-.2-6.6-1.3-9.8-1.7a10.868,10.868,0,0,0-1.8.1,20.279,20.279,0,0,1-4-1.2,20.082,20.082,0,0,0-2.4-.1c-1.6-.3-3.5-.7-5.2-1.1a25.388,25.388,0,0,1-3.9-1.3c-1.1-.5-2.4-.6-3.6-1a10.419,10.419,0,0,1-1.8-1,5.852,5.852,0,0,0-1.3-.2c-1.5-.6-2.4-1.7-3.8-2.5-.9-.5-1.7-.9-2.6-1.5a35.677,35.677,0,0,1-4.3-3.6c-1.4-.4-2.3-1.7-3.5-2.6-.7-.6-1.8-1.1-1.8-2.3a1.081,1.081,0,0,1,1.5.7,20.851,20.851,0,0,1,4.3,2.7c1.5.2,2.3,1.1,3.9,1.1,1.5,1,4.4.8,6.8,1.3.8.2,1.4.3,2.6.5,2.4.3,4.9,1.1,7.3,1.2.7,0,1.6-.4,2.1.2-.5.9-1.8.7-2.6.6-1.5-.1-3-.5-4.3-.7-2.7-.5-5.7-.4-7.7-1.2a11.108,11.108,0,0,1-2.6.1c-.8-.8-2.4-.7-3.6-1.1.5,1.1,2.8,1.5,3.6,2.9a4.369,4.369,0,0,1,2.7,1.8c2,.5,3.1,1.9,5.2,2.1,1,1.1,3.1,1.1,4.3,2,6.9,1,13.1,3.3,20.4,3.5,1.2.9,3,.5,4.4,1.2a39.789,39.789,0,0,1,7,.5,46.639,46.639,0,0,0,10.5-.6,64.751,64.751,0,0,1,17.6.2,12.128,12.128,0,0,1,1.4.5,13.787,13.787,0,0,0,2,.8c.3.1.7-.1,1,0,.9.3,1.7.9,2.6,1.2a13.212,13.212,0,0,1,3,1c1.7,1,4.4,1.8,6.2,3.1.3-.1.7.4.8,0,.3.6,1.3.5,1.3,1.3a4.655,4.655,0,0,1,3,1.8,4.8,4.8,0,0,1,2.7,1.5c1.6.3,2.3,1.6,4,1.7.2.7,3.3.8,3.2,1.8-.1,1.2-2.2.2-2.7.2-.4,0-.7.3-1.2.4a34.4,34.4,0,0,1-4.3-.4c-4.5-.3-10.2.9-15,1.1-.3,0-.6-.2-1-.1a56.758,56.758,0,0,0-6.9,1.3c1.1,1,2.9.5,4.3.4,2.2-.3,4.1-.4,6.9-.6,1.1-.1,2.1-.4,3.1-.5a20.832,20.832,0,0,0,2.5,0c.7-.1,1.5-.4,2.3-.5a52.292,52.292,0,0,1,5.6,0c0,.7-.8.6-1.3.8s-.9.5-1.3.7c-1.5.7-3.3,1-4.9,1.7a42.414,42.414,0,0,0-8,4.8c.7,1.3,2.2,0,3.7-.7,2.6-1.4,5.7-3,8.3-4.2a20.085,20.085,0,0,1,3-.9c.4-.2,1-.7,1.3-.8.4-.1.8.1,1.2,0,.6-.1,1.1-.7,1.7-.8,1.7-.4,3.3-.3,4.9-.7-.5,1.2-2.1,1.5-3.2,2a14.5,14.5,0,0,0-3.2,2c-4,1.5-7.1,4-10.5,6.2-.5.6-1.2,1-1.5,1.7a35.264,35.264,0,0,0-8.2,7.7c-.7.9-1.3,1.7-2.1,2.6-.4.5-.8,1.2-1.2,1.7-.3.4-.9.6-1.2.9-1.6,1.8-2.6,4.1-4,6.1a3.039,3.039,0,0,0-.7.5,37.514,37.514,0,0,1-2.4,4.4c-.8,1.4-1.8,2.7-2.6,4.2a6.945,6.945,0,0,1-.5,1.3c-.3.5-.9.9-1.2,1.4-.2.4-.2.9-.4,1.3-.4.8-1,1.6-1.4,2.5-.5.9-.6,1.9-1.1,2.9-.2.5-.7.8-1,1.3a46.53,46.53,0,0,0-2,5.2c-1.1,2.9-1.1,5.9-2,9,.6,3.8-.2,9.1,1.7,11.7-.2,1.9,1.1,2.3,1.3,3.8,2.5,2.8,4.9,5.7,7.5,8.5a7.714,7.714,0,0,1,3,1.9c1.6.7,2.6,1.5,4.5,2.3a15.842,15.842,0,0,0,2.9,1.2c.4.1.9-.1,1.3,0,.6.1,1.1.5,1.7.6.8.1,1.6-.2,2.4-.1,1,.1,1.9.7,2.9.1,0-.7-1-.3-1.4-.6a5.319,5.319,0,0,0-2-.5c-2-1.2-4.7-1.8-6.1-3.6a3.6,3.6,0,0,0-1.1-.2,5.663,5.663,0,0,0-2.4-1.9,9.8,9.8,0,0,0-3.1-3.3c-1-1.8-2.3-3.4-3.3-5.1-.7-2.9-1.6-6.2-1.3-9.6.2-2.7.7-5.5,1.1-8.2.5-3.8,2.5-6.8,3.5-9.8,1.3-1.9,2-4.3,3-6.5a36.385,36.385,0,0,1,3.3-6.2,11.37,11.37,0,0,1,1.3-3A34.7,34.7,0,0,1,274,347c.5-.6,1.1-1,1.5-1.5,1-1.1,1.8-2.4,2.7-3.5,1.2-1.3,2.6-2.3,3.7-3.6.8-.9,1.2-2.1,1.9-3,1.3-1.6,3-2.9,4-4.9.1-1.3.9-1.9,1.4-2.7,2-1.3,4.1-2.3,6.1-3.8a16.319,16.319,0,0,0,2-1.7,17.409,17.409,0,0,1,1.2-1.4c.3-.3,1-.4,1.4-.7.6-.4.8-1,1.4-1.1,1.8-.2,3.1-1,4.8-1.4a25.043,25.043,0,0,1,5.2-1.1c4.8-.3,9.8.6,15.5,1.1.7.1,1.5-.2,2.3-.1.3.1,1.1.4,1.1.8,1.1-.5,2.6-.2,3.8-.4.4-.1.2.4.5.5,2-.3,3.8.7,5.7,1.1.8.1,1.6,0,2.4.1,1.9.3,3.8,1,5.8,1.2,1.1.1,2.2-.2,3.1.5a50.447,50.447,0,0,1,8.1,1.8c4.9.4,9.4,2.5,13.8,3.1.6.8,1.8.7,2.7,1a5.387,5.387,0,0,1,1.3.7c.5.2,1.4,0,1.4.7-.1.9-1.5.4-1.9.1a11.489,11.489,0,0,1-3.3.4c-4.8,0-8.9,2.2-13.3,2.4-6.3,1.3-13.5,2-20.2,3-2.8.4-5.5,1.3-8.1,1.7-2.2.3-4.1.6-6.2.7-.5,0-2.3.7-2.4-.4-.1-.9,3.5-.9,4-1,.7-.1,1.5.1,2.3,0a52.4,52.4,0,0,0,7.4-1.3c5.1-1.2,11.4-1.5,16.8-2.9,1.6-.1,3.2-.3,5.1-.5,1.3-.1,2.1-.7,3.7-.8,4-.5,7.7-2.3,12.1-1.8,0-.6-1.2-.2-1.3-.7-2.3.1-4.1-1.6-6.3-1.9a28.579,28.579,0,0,1-4.2-1c-3.1-.7-6.8-1.6-10.1-2.3a29.848,29.848,0,0,0-3,0c-.9-.1-1.8-.7-2.7-.8-.4,0-.8.1-1.2.1a13.942,13.942,0,0,1-3.3-.7,61.684,61.684,0,0,0-7.3-1.2c-2.6-.4-4.9-.5-7.3-.8-1.4,1.3-2.3,4.3-3.2,6.9-.7,2.2-1.1,5.4-1.7,7.9-.4,1.8-1.2,3.5-1.5,5.4-1.2,6-1.7,12.1-2.4,18.8,1.7-.2,2.4-1.4,3.7-1.9a76.8,76.8,0,0,1,16.1-11.8,75.325,75.325,0,0,1,20.4-10.4c-2.6,0-4.9,1.4-7.6,1.7a1.905,1.905,0,0,0-1,.5c-4.3.3-8.4,1.9-12.7,2.5-1.5.2-3.1.2-4.8.5-3.3.5-7.3.3-11.1.5a1.815,1.815,0,0,1,.2-1.1c4.7-.5,9.4,0,14.6-1,1.3-.2,3.1-.6,4.8-.8,3.2-.5,6.7-1.3,10-2a27.736,27.736,0,0,0,2.6-1,11.075,11.075,0,0,1,1.9-.2c.5-.1,1.1-.5,1.5-.6,2.8-.5,5.7-.1,8.5-.8-.3,1.3-2.1,1.3-3.1,1.7-1.2.4-2.6.7-3.7,1.1a33.5,33.5,0,0,0-4.6,1.8c-.5.3-.8.8-1.2,1-1.3.6-2.9.5-3.7,1.7-.5,0-.7.2-1.3.1-5.8,3.2-11.3,6.9-16.8,10.5-3.3,2.3-6,5.3-9.4,7.5-.4.4-.7.9-1.1,1.3a1.777,1.777,0,0,0-1,.4c-.3.8-1.6,1.4-1.9,2.4-.1.5.1,1,0,1.5a108.266,108.266,0,0,0-1.1,13.7,11.183,11.183,0,0,0,2.1-1.7c.8-.6,1.3-1.2,2-1.8.3-.3.9-.3,1.2-.6.6-.5,1.1-1.2,1.8-1.8,1.5-1.3,3.2-2.6,4.6-4,3.1-3.2,6.7-6.4,10.1-9.5.8-.7,1.5-1.2,2.3-2,1-1,1.8-2.2,2.9-3.2,1.6-1.5,3.5-2.6,5.1-4.2a14.112,14.112,0,0,0,5-3.1h.6a45.633,45.633,0,0,1,11.1-7,35.48,35.48,0,0,1,12-3.3,47.728,47.728,0,0,1,10,0c2,.2,3.7-.2,4.9,1A7.211,7.211,0,0,1,397,337c1.3-.1,1.6.8,2.9.7a15.016,15.016,0,0,0,3.8,1.9c.6.1.6.9,1.6.7-.1.5.3.4.4.7a2.725,2.725,0,0,1,1.2.6,44.734,44.734,0,0,1,5.8,4.2,5.935,5.935,0,0,0,2.3,1.4c.9,1.5,2.5,2.6,3.6,3.9a14.93,14.93,0,0,0,1.2,1.4,12.55,12.55,0,0,1,1.1,1.7c.4.6.9,1.3,1.4,2.1.3.5,1,.8,1.3,1.3.2.4.2.9.4,1.2.2.4.7.5,1,.8.2.3.1.7.2,1,.4.7,1.2,1.1,1.7,1.7a12.448,12.448,0,0,1,2.1-1.9,3.249,3.249,0,0,0-1-1.3c-1.8-5.4-6.2-8.1-9.2-12.3-1.3-.2-1.5-1.5-2.7-1.8-2.1-3.2-5.8-4.9-8.7-7.4-.5-.1-.8-.4-1.3-.5-.3-.9-1.6-.8-1.9-1.7a3.6,3.6,0,0,0-1.1-.2c-.3-.7-1.3-.7-1.7-1.4-3.6-1.4-6.1-3.9-9.6-5.4a23.047,23.047,0,0,1-4.6-5.7c-1.1-4.5-3.3-7.9-4.4-12.4-1.5-2.4-1.7-6-3.7-7.9-.2-.8-.8-1.3-1.1-2a77.086,77.086,0,0,1-6.7-8.2c-.1-.3-.6-.2-.7-.5a8.263,8.263,0,0,0-3.2-3.7,45.19,45.19,0,0,0-5.5-7.5,46.032,46.032,0,0,0-3.7-6c0-1.6-1.1-2.2-1.3-3.7-1.2-2.6-2.8-4.8-3.7-7.6-1.1-1.3-1.4-3.2-2.1-4.8-.2-.4-.4-1-.7-1.7-.4-1-1.2-1.5-1.4-2.7-2.1-2.8-3.7-6.1-6.2-8.6-1.3-2.4-2.6-4.8-3.8-7.3,0-.3-.4-.3-.6-.5-.8-2.1-1.5-4.2-2.3-6.4-.5,5,1.4,10.3,2.4,14.3a15.662,15.662,0,0,1,1.2,4.5c.9,1,.7,3,1.8,3.8a6.154,6.154,0,0,0,1.2,3.8,14.254,14.254,0,0,0,1.8,5c.2.4.7.7.8,1.1a6.752,6.752,0,0,1,.2,1.4c.5,1.6,1.6,2.9,2,4.6,1.1,1.6,1.3,3.7,2.1,5.6.4,1,1.3,1.9,1.2,3.1,1.6,4,2.2,8.6,3.7,12.5a41.559,41.559,0,0,0,3.5,7c1.2,3.6,3.2,6.5,5,9.5.9,1.4,1.4,2.8,2.9,3.7.1.4.4.5.4,1,2,1,2.8,3.1,4.2,4.8.9.1,1.1.8,1.9,1,.6,1.7,2.1,2.5,3.1,3.8.5.1.7.4,1.2.5.6,1,1.7,1.4,2.5,2.1,1.8.8,3.8,1.3,4.5,3.1a3.028,3.028,0,0,1-2.3.6c-3.4-1.9-8-2.6-11.3-4.3-1.2,0-1.7-.6-3-.5-1.7-1.1-4.7-1.1-6.7-2.1-2.6,0-4.6-.8-6.8-1.3-3.7-.9-8.1-.6-11.1-2.3-1,0-2.2.1-2.6-.5-1.8.5-3.4-1-4.9-.1a7.113,7.113,0,0,0-5.5-1.1c-.5,0-.6-.4-1-.6-6.7-1.2-14.1-.6-19.9-2.4a1.777,1.777,0,0,0-1,.4c-.9-.3-1.2-1.3-2.6-1.1-.4-.6-.6-1.7-1.7-1.3-.5-1.7-2.8-1.7-3-3.7-.6-.4-1-1-1.8-1.2a100.484,100.484,0,0,0-11.1-10.5c-2.1-1.3-4.6-2.1-6.3-3.7-1.9-.2-3.2-1.1-5.1-1.3-1.8-1.2-5-1-6.8-2.1-3.2-.1-6.1-1.1-9.6-1.3-.4.1-.2-.4-.4-.5-.4-.1-.6.2-.8.4-3.7-.2-8.6-.3-12.6-.2a6.04,6.04,0,0,0-3,.7c-2.3-.6-4.9.7-6.4,0,.1-.8,1.3-.4,1.5-1.1a27.1,27.1,0,0,1-2-4.2c0-.2-.5,0-.6-.2-.3-1.6-1.5-2.2-1.9-3.7a2.769,2.769,0,0,0-1.3-.1c-1-.2-1.6-1.3-2.6-1.5-.6-.2-1.3.1-1.9-.1-.4-.1-1.7-.9-2.6-1.3-.6-.3-.9-.9-1.4-1.3-.9-.7-2-.9-2.5-2-1.3-.8-2.8-1.4-3.7-2.6a5.622,5.622,0,0,1-3.2-2.4,10.547,10.547,0,0,1-3.6-2.3,1.645,1.645,0,0,1-1-.1c-.2-.4-.6-.5-.8-.8-5.4-2.4-11.2-5.5-17.4-6.4-3.4-1.9-8-2-12.3-2.3-3.4-1.4-8.5-.2-11.9-1.1-2.1.6-4.7,0-6.9.6a38.307,38.307,0,0,0-8.3,0,106.226,106.226,0,0,1-12.9.5,63.724,63.724,0,0,1-7.1-.6c-.5-.1-1-.3-1.5-.4-1.2,0-2.6.3-3.8.2-1.1,0-2-.5-3.1-.6-2.6-.3-5.1-.1-7.5-.7a26.767,26.767,0,0,1-9.6-4.6c-.4-.8-1.6-.9-1.7-2,.7-1.2,2.6-.1,3.5.4a3.294,3.294,0,0,1,1.9.6,19.8,19.8,0,0,0,8.9.5,20.946,20.946,0,0,0,2.3-.8c2.9-.8,5.5-1.1,8.3-1.7,3.4-.7,7.1-1.5,10.4-2.1,3.6-.8,8.1-.1,11.7.1,3.1.2,6.5-.2,9.5.7.6.2.8.7,1.5.7,1.2,0,4.3-1.2,5.4-1.4,3-.1,6-1.2,9.2-.8,5.1.6,11.3.1,16.3,1.3.6.1,1.2.6,1.8.7,1.8.4,3.5.5,5.1,1,4.6,1.3,7.7,4.2,11,7,.2,1.5,1.8,1.8,2.7,2.6a24.263,24.263,0,0,1,2.4,3c1.1,1.4,2.2,2.4,3.5,3.8l1,1c.1.1,0,.5.1.6.5.6,1.3,1,1.9,1.7,1.8,1.9,3.5,4.2,5.9,5.6.5-.8-1.7-1.8-1.9-2.5a1.186,1.186,0,0,1,.7-1.4c.7,0,2.2,3.4,2.7,4.2.5.6,1.4,1.2,1.1,2.3a3.623,3.623,0,0,1-2.7-1.5c-3-.9-4.7-4.2-7.4-6-.6-2-2.6-2.7-3.3-4.5-1.7-.9-2.4-2.7-4-3.7.2-.2-.1-.5-.1-.8a47.768,47.768,0,0,1-4.5-4.5,8.7,8.7,0,0,0-1.2-1.4,28.629,28.629,0,0,0-4.3-2.4c-.6-.3-1.2-.8-1.7-1.1-.9-.4-2-.3-2.6-1.1a80.829,80.829,0,0,0-16.4-2.4c-5.5-.3-10.6-.3-16.1,1.1-.5.1-.9.5-1.4.6-1.8.4-3.8.4-5.6.8-3.1.8-5.7,2-9,2.9-1.2.3-2.4.7-3.6,1.1-.8.3-1.3.9-2.1,1-.2,0-.6-.2-.8-.1a58.525,58.525,0,0,0-8.7,2.5,17.9,17.9,0,0,0,4,.2c3.8-.1,8,.5,12,0,.7-.1,1.3-.5,2-.6,2.5-.3,5.4.2,8,.2,3.8,0,6.7-.1,9.9-.2.9,0,2,.4,3.1.4,4.2,0,8.8,1.2,13,1.4a3.028,3.028,0,0,0,2.3.6,18.78,18.78,0,0,0,6.2,1.7c2,1.5,5.4,1.6,7.4,3.2h.8c3.2,1.8,6.6,3.4,9.8,5.2a1.445,1.445,0,0,1,.2.7,139.224,139.224,0,0,1,12.4,8.9c2.2.2,4.1.8,5.2,2a3.812,3.812,0,0,1,1.5-.1,10.361,10.361,0,0,1,2.6,4.3,16.032,16.032,0,0,1,2.5,3.7c.2.5,0,1.4.8,1.4.5-1.6-1.3-2.9-1.4-4.6a8.065,8.065,0,0,1-1.7-3.9c-.7-.8-.8-2.2-1.7-2.9.1-.6-.1-.8-.1-1.3a4.968,4.968,0,0,1-1.3-1.9c-.1-.2.1-.6,0-.8-.2-.6-.8-1-1.1-1.5-.4-.7-.6-1.7-1-2.5-.3-.8-.8-1.4-1.2-2.3-1-1.9-1.5-4.3-2.3-6.4-.2-.6-.5-1.2-.7-1.8-1-3.4-1.9-6.4-2.9-10-.6-2.2-1.2-5.2-1.8-8-.2-1-.6-1.9-.7-2.9-.2-1.7.4-3.6-.1-5.1a21.415,21.415,0,0,1,1.9-8.7c1.5-1.1,1.9-3,3.3-3.9,4.4-2.8,12.1-2.2,17.4-.7,2.8.8,5.5,2.3,8.6,2.6,1.8-1.8,3-4.2,4.5-6.3-.9-1.8-3.1-2.3-4.6-3.5-2.4-.9-5.6-1.1-8-2-3,.4-6.2-.4-8.8.5a22.209,22.209,0,0,0-12.3,10.8c-.5,0-.4.7-.8.7a14.268,14.268,0,0,1-2.3,4.8c-.9-.4-.3-1.6-.4-2.3-.1-2.2-1-4.5-1.1-7-.1-2,.4-4,0-6,1.7-.7,3.6-.4,4.6-1.7a9.765,9.765,0,0,0,2.6-4.8,32.466,32.466,0,0,0,.8-4.3c.3-3.6-.7-7.7.6-11.2a2.356,2.356,0,0,0,.7-1.5c-1.3.4-1.5,1.9-2.6,2.5-.4,1.2-1.3,2.3-1.7,3.7-.3,1-.1,2.1-.7,3-1.4-.1-.8-2.2-1.8-2.7a36.342,36.342,0,0,0-2-6.1,5.826,5.826,0,0,1-1.1-1.5,4.813,4.813,0,0,0-1.4,3.3,13.094,13.094,0,0,0-1,5.8c.1.8.8,1.5.2,2.1-1.1-.5-1.2-1.9-2-2.6,0-.3-.1-.8.1-1a3.73,3.73,0,0,0-1.2-.2c-1-2-3-3.1-5.2-3.9-.4.6.2,1.1.5,1.4,1,2.1.4,4.6.7,6.9.1.4.3.9.4,1.3a17.654,17.654,0,0,0,0,2.3,9.293,9.293,0,0,1,.5,1c.7,2.1.8,3.7,1.9,5.2.5.7,1.3.9,1.7,1.7,1.2.7,2.9.9,4,1.5a69.027,69.027,0,0,0,.5,10.2c.2,1,.3,2.1.5,3.1.2,1.6-.1,3.6.6,4.8.1,3.4,1.4,6.4,1.7,10,1.2,2.7,1.4,6.7,2.6,9.9.1.3.5.6.6.8.3.7.1,1.5.4,2.3.5,1.9,1.5,3.8,1.8,5.8a60.768,60.768,0,0,0,3.5,8.7c.4.8,1.5,1.7.7,2.6-1.4-.2-1.5-2.5-2.6-3.3,0,0-.7-1.8-.7-2a13.562,13.562,0,0,1-2.7-4.9c-.7-.9-5.4-9-5.4-9.6a8.772,8.772,0,0,1-1.8-3.3c-1.3-1.2-1.5-3.5-2.9-4.6-2.4-4.5-5.4-8.4-8.1-12.5a2.353,2.353,0,0,1-.2-.8c-2.4-2.9-3.9-6.5-6.7-9a7.234,7.234,0,0,0-3.5-3.8c.2-1-1.6-1.6-1.7-2.6,0-1,1.3-1.3,2.1-2.1a16.089,16.089,0,0,0,3-6.3,22.565,22.565,0,0,0-.1-3.7c0-.6.2-1.1.2-1.7,0-2.1-1.2-4.6-1.8-7-.6-2.5-.4-5-1.8-6.7-.5-4.2-2-7.3-2.6-11.3-.8,3.4.5,6.8,1.1,10.1a28.858,28.858,0,0,0,.4,2.9c.6,2.4,1.6,4.5,2.1,6.9.4,1.6.3,2.7.6,4.5a20.984,20.984,0,0,1-.2,8.6c-.4,1.3-2.7,5-3.7,4.9-.5-.1-.5-.6-.8-1.1a39.468,39.468,0,0,0-3.3-3.7,28.171,28.171,0,0,0-5.9-8c-.1-.3-.3-.4-.2-.8-1.4-1.1-3.1-2.1-4.5-3.2.4-1.7,1.4-2.9,1.7-4.6.3-1.8-.5-3.6-.6-5.8-1.9-5.2-5.9-8.2-7-14.2a12.608,12.608,0,0,0-.1,9.9c.4.9,1.5,1.5,1,2.5-.8.1-1.4-1-2.3-.1-1.1-.2-1.2-1.4-2.4-1.5-.7-1.9-2.8-2.4-4.2-3.7-.9,0-1.3-.5-2.4-.4-.8,1.5.5,2.8.7,4.5a10.3,10.3,0,0,0,1.8,4.6c.4.4,1.1.4,1.1,1.1-.2,1-1.2.2-1.5-.1-3-.6-8.4-1.4-11,.6a12.131,12.131,0,0,1,3.1,2.1c.6.5,1,1.2,1.5,1.7.3.2.7.2,1,.5.2.2.2.6.5.8.2.2.7.3,1,.5.5.4.8,1.1,1.2,1.3,1.1.7,3,.9,4.6,1.4a17.083,17.083,0,0,0,2.9.8c2.9.3,5.3-.8,8.1-1.3,5.6,4.3,9.6,10.2,14,15.6-.2,1.6-1,1.5-2.5,1.9-1.8.4-3.4,1.4-5.7,1.3-1.6-.1-3.4-1.1-5.1-1.5-.3-.1-.7.1-1,0-2.2-.7-3.9-2.2-6.4-2.7-4.1-.9-8-1.2-11.3.1a21.413,21.413,0,0,0-1.9,1.3c-1.5,1-3.5,1.4-4.9,2.7,1.1.1,2.2-.9,3.3-1.4a11.472,11.472,0,0,1,4.3-1.4c2.1-.2,4.7-.9,6.9-.6a18.156,18.156,0,0,1,2.9.8c1.8.6,3.5,1.8,5.2,2.5a5.852,5.852,0,0,0,1.3.2c1.8.7,2.7,1.5,4.6,2,.4.1.9.4,1.2.5a10.928,10.928,0,0,0,2.4-.4c1-.1,1.6-.1,2.5-.2a23.5,23.5,0,0,1,3.8-1.4c.9-.4,1.7-1.4,2.7-.8,2.2,2.4,4,5.4,6.3,7.7.1,1.3,1.4,1.8,2,2.7.5.7.7,1.6,1.2,2.3.7,1.1,1.6,1.9,2.4,3,.7,1.1,1.2,2.3,1.9,3.3a71.408,71.408,0,0,1,7.1,12.4c.9.8,1.1,2.2,2,3,0,1,.7,1.2.7,2.1,1.1.9,1.4,2.3,2.1,3.5.2.4.6.6.8,1,.1.2.1.6.2.8.5.7,1,1.2,1.7,2.3a21.48,21.48,0,0,1,1.4,2.6,7.281,7.281,0,0,1,1.2,2.5c.6,1.4,2.7,3.3,1.7,4.8-1.6-.6-1.4-2.9-2.7-3.7-.3-1.9-1.9-3.7-2.3-5.1-4-5.6-7.2-12-10.7-18.3-.3-.6-.7-1.1-1.1-1.8-1.6-2.5-3.3-5.4-5-8.1-.9-1.5-2-3-3.1-4.5-.7-1-.9-1.9-2-2.4-.9-2.2-2.7-4.1-4.2-6-.7-.8-1.8-2.6-2.4-2.6-1.2-.1-2.4.6-3.7,1.1-4.2,1.5-7.7,1.6-11.8-.2-.7-.3-1.4-.7-2.1-1-.8-.3-1.7-.4-2.3-.7-.3-.2-.3-.5-.6-.6A20.818,20.818,0,0,0,168,212c-.4-.1-.8-.4-1.2-.5a21.142,21.142,0,0,0-6.7.2c-2.5.4-4.5,2-6.5,3A15.761,15.761,0,0,0,151,216c-1.1.7-2.3,2.6-3.9,1.4.2-1.2,1.4-1.6,2.3-2.3.8-.6,1.5-1.5,2.3-2.1,1.7-1.3,4-1.8,5.7-3.1a9.429,9.429,0,0,0,1-1,25.173,25.173,0,0,1,13.6-.2c2.4.6,5.2,2.6,7.6,3.1.5.1,1.1,0,1.5.1.5.2.9.7,1.4.8,1.5.3,3.8-.3,5.2-.7a8.36,8.36,0,0,0,2.3-1.2c-.9-1.9-2.6-3.1-3.8-4.8-.3-.4-.3-.8-.6-1.2-.5-.7-1.2-1.2-1.8-1.9-1.6-1.9-3.3-3.9-5-5.8-.9.1-1.3-1-1.9-1.1-1-.2-2.7,1-3.7,1.2-4.2.7-7.9-.7-11.1-2-3.7-1.5-5.4-5.1-8.7-6.9-.6-.2-1.7,0-2.3-.2-.3-.2-.4-.7-.4-1.3,1.7-1.1,4.5-1.1,6.5-1.9-5.5-2.1-9-6-12-10.6-.2-.2-.4-.5-.8-.5a5.05,5.05,0,0,0-1.5-2.7c-1.7-3.7-3.9-7-5.7-10.6-2.4-3-4.9-6-9.4-7,.2-.4-.3-.7,0-.8a2.333,2.333,0,0,1,1.8-.6,17.029,17.029,0,0,1,13,5.6c.5-.1.5.3,1,.4-.5-1.4-1.8-3.6-2.6-5.4a6.931,6.931,0,0,1-.7-2.3c-.2-1.2-1-2.4-1.1-3.6a7.569,7.569,0,0,0,.1-1.5c-.2-1.9-2.1-3.3-2.3-5-2.2-2.6-3.5-5.9-5.9-8.5,0-.5-.4-.7-.5-1.2-1.1-.9-1.7-2.3-3-3-1.3-2.7-3.8-4.1-6.1-5.7-.8.9.5,2.6,1,3.3-2.2,1.5-3.1-2.3-5.7-1.5.2,1.8,1.1,3.1,1.4,4.8-2.2.7-3.1-2.3-5.7-1.5,1.5,1.1,1.1,4.3,3.1,5.1a1.777,1.777,0,0,1-.4,1c-2.2-.3-3-2-5.4-2.1a11.23,11.23,0,0,0,2.3,5.1,5.347,5.347,0,0,0,1.3,1.3c.6.3,1.3,0,1.7.7-.4.7-1.2.3-1.8.7a27.485,27.485,0,0,0,6.7,1.9c1.3.8,3.3,1,4.4,2,1.5.2,2.8,1.1,4.3,1.7,3,1.3,6.1,2.3,7.7,4.6-.7,1-1.5-.4-2.4-.4a8.439,8.439,0,0,0-4-2.4c-.1-.2-.3-.2-.4-.5-1.4-.6-2.8-.9-4.5-1.5-2-.8-3.9-2.1-5.8-2.6-.9-.3-1.9-.4-2.9-.7a23.72,23.72,0,0,0-8.7-1.4c.3,2.3,2.3,2.9,2.9,5-2.3-.2-2.6,1.5-4.3,1.9.1.8,1.3.6,1.9.5.2,1.3,2,1,3,1.7-.1,1.9-1.5,2.5-2.1,3.8.4,2.1,3.6.8,5.1,1.3-.5.8-1.6,1.7-1,3.2,1.1,0,2.3-1,3.2-.1.2,1.1-.8,1.9-.1,2.7,1.7-.7,2.6-2.2,4.8-3a20.006,20.006,0,0,1,9.3-.7c.9.1,2.1.2,2.4,1.1a6.464,6.464,0,0,1-3.7-.4c-3.4-.2-5.2-.2-7.5,1.2a14.05,14.05,0,0,0-3.2,2.4c-.6.6-1,1.9-1.8,2-1.6.3-2.4-2-1.9-3.7-1-.3-2.3.8-3.2.2-.5-.8,0-2.2.1-3.2-.8-1.7-2.9-.1-4.3-1.2-.8-2.3,1.2-3.3,1.9-4.8-1.7-1.1-4.6-1.6-5.1-3.5.9-.8,2.6-.7,3-2a3.582,3.582,0,0,0,1.1-.4c.1-.7-.8-.4-1-.8a22.467,22.467,0,0,0-1.9-3.8c1.4-1.9,5.5.2,7.7-.4-.3-1.1-1.7-1.2-2.3-2.1-.2-.3-.2-.8-.5-1.3-.2-.3-.6-.6-.7-1a12.09,12.09,0,0,0-.5-1.8,2.962,2.962,0,0,1-.5-2.5c1.2-.4,2.3.2,3.5.2.2-1.4-.5-2.4-.5-4.3,1.2-.9,3.3.1,4.4.7-.4-1.2-.7-3.4.2-4.4,1.3-.3,2.2.7,3.5.8.6-.6-.3-2,0-2.6,1-.5,1.3.6,2.4.5,1.7,1.1,3.4,2.1,4.9,3.3-.2-3.3,1.2-5.8,1.1-8.3,2.2-.8,3,1.8,4.3,2.7.9-1.5,1.1-5.3,2.9-5.4.6,0,.7.5,1.2,1.1.9,1.1,1.9,2.4,2.6,3.2,1.1-.6.9-2.3,2.1-2.5,1.7-.3,2,1.5,2.4,3.1,1.3-.1,1.9-.9,3.2-1,.7,1.6-.6,2.7-.8,4,1.1-.2,2.1-3.4,3.3-3.6,1.6-.2,1.4,2.1,1.7,3.6,1.1-.1,1.5-1.9,2.7-.8-.2,1-.2,2.1-.4,3.1.9.8,3.1.3,3.7,1.4a1.849,1.849,0,0,1-1.1,1.9c-2.2,3.3-4.7,6.5-5.1,11.7a21.185,21.185,0,0,0,.2,5.6,7.579,7.579,0,0,0,1.6,2.5c.6.7,1.4,1.2,2,1.9.8.8,1.4,1.9,2.1,2.7,1.4,1.6,3.2,2.4,4,4.5,2.3,1.3,3.1,4.1,4.8,6.1,1.5,3.7,3.5,6.9,4.8,10.8.9-.1.5-1.1.6-1.7a10.176,10.176,0,0,1,1.1-2.6,3.708,3.708,0,0,1,2-1.7,23.177,23.177,0,0,0,2.7,8.9c.8,1.2,1.6,2.4,2.5,3.9,1.1,1.9,3.4,5.2,2.5,8.2.7,2.3-.5,4.6-1.2,6.3a33.677,33.677,0,0,0,3.1,2.1,40.843,40.843,0,0,1,3.1,3.9,19.466,19.466,0,0,1,2.4,2.6,11.422,11.422,0,0,0,2.6,3.6,8.125,8.125,0,0,0,2.1,3,11.085,11.085,0,0,0,1.9-4.4,8.385,8.385,0,0,0,.8-3.2c0-.7-.5-1.6,0-2.4-.9-3.9-1-7.7-2.4-11.2-.4-1-.8-2.4-1.3-3.8.1-2.2-.5-3.7-.8-5.8a16.838,16.838,0,0,1,.4-5.4c.3-2.9.4-5.6,1.3-8a30.712,30.712,0,0,1,1.7-3.1c.5-1.1.5-3.4,2.1-3,.3,2.5-1.4,4.4-1.9,6.7a14.084,14.084,0,0,0-.1,2.1c-.1.4-.5.7-.6,1.2-.6,3.3.4,7,1.2,9.9.3,1.2.8,1.9,1.1,3.5s1.1,2.8,1.4,4.6c.1.6.6,1.2.7,1.8.1.4-.1.9,0,1.3.1.8.6,1.9.8,2.9.1.7.1,1.3.2,1.8a23.008,23.008,0,0,1,.8,5.7c0,5.4-2.6,8.6-4.9,11.9,1.7,2.2,3.6,4.3,5.4,6.4.9,2,2.9,3.1,3.6,5.4,2.8,3.3,4.5,7.7,7.5,10.8,1.5,4,4.4,6.5,6,10.4a7.34,7.34,0,0,1,2.4,4c2,2,2.6,5.3,4.2,7.7.1-1-.6-1.9-.8-2.9,0-.2.1-.5,0-.7,0,0-.3-.1-1-2.6-.5-1.9-1.3-3.8-1.9-5.6-.2-.6,0-1.6-.7-2-.1-3.3-1.2-6.5-1.9-9.5-.2-4.3-1.3-8.2-1.8-12.4-.4-3.1-.2-6.8-.6-10.6a12.393,12.393,0,0,1-2.9-.6c-.9-.9-1.4-2.1-2.7-2.6a19.836,19.836,0,0,1-2.1-7.7c0-.6-.5-1.3-.6-1.9-.4-2.4.6-5.9-1.3-7.5v-.8c-.3-.7-1.7-1.4-1-2.4,1-.2.9.8,1.4,1.1,1.6-.2,2,.8,3.5.8a7.559,7.559,0,0,0-1.1-3.5,1.549,1.549,0,0,1,.2-.8,68.483,68.483,0,0,1-1.3-10.5c-.1-1.3-.3-2.6-.4-3.9-.3-3.3-.6-6.2-1.1-9.2-.1-.7-.6-1.4-.7-2.1-.1-.6,0-1.1-.1-1.7-.1-.4-.5-.7-.6-1.1-.3-.7-.2-1.5-.5-2.1a11.729,11.729,0,0,0-1.9-3c-.6-.3-1.5-.2-1.4-1.2,2.7-.4,5.9,1.5,7.9,2.7,1.1.7,1.9,1.1,2.4,2.3.7-1.1.4-2.3.8-3.6.2-.7.8-1,1.3-1.9s.7-2.3,1.5-2.4c.5,0,2.1,1.8,2.4,2.3.2.3.1.6.2.8.6,1.2,1.3,2.2,1.7,3.1.2.6.5,3.1,1.1,1.3a19.211,19.211,0,0,1,4.5-7.3c.2-.2.7-.3,1-.5,1-.7,1.5-1.6,3.3-1.5-.1,2-2.2,3-2,5.6-2.3,5.3-1.1,13.9-.8,20.7a23.482,23.482,0,0,0,.1,2.7c.1.4.3.7.4,1.1,0,.4-.2.7-.1,1.1.3,2.4.8,6.3.4,8.9.7-.1,1.3-1.2,2.6-1.1.1,1-.5,1.4-1.1,1.8-.2.2.2.6-.5.5.7,2-.5,3.8-.8,6a49.107,49.107,0,0,0,.1,5.4,18.108,18.108,0,0,1-.5,5.7,16.585,16.585,0,0,1-1.8,3.8,11.442,11.442,0,0,1-3.7,3.2,4.256,4.256,0,0,0-1.7.4c-.1.5.3.9.4,1.4a10.113,10.113,0,0,1-.4,2.3c-.1,2.4.7,4.8.5,7.3a27.508,27.508,0,0,0,1.4-3,23.262,23.262,0,0,0,1.7-2.6,7.28,7.28,0,0,0,1.7-1.8c.4-.1.5-.4,1-.4a11.86,11.86,0,0,1,5.8-4.6,31.67,31.67,0,0,1,3.8-1.7c2.7-.6,5.9.1,8.7,0a10.19,10.19,0,0,1,5.5,1.3c2.4.2,3.8,1.4,5.7,2.1a2.177,2.177,0,0,1,.5.8c.6,0,.9.3,1.4.4a4.316,4.316,0,0,0,1.5-2.4c2.9-4.5,5.7-9,7.4-14.8,1-.8,1.1-2.6,1.7-4.4.4-1.2,1.2-2.3,1.5-3.5a14.162,14.162,0,0,1,.4-2c.1-.3.4-.4.5-.7.3-1.1.2-2.3.8-3.2-.4-2.2.6-4.2.8-6.3a61.3,61.3,0,0,0,0-14.2c-.1-.9-1.4-2.5-.1-3.1.5.3.5,1,1.1,1.2a5.646,5.646,0,0,0,1,3c-.2,1,.3,1.4.2,2.4,1.6,3.9,2.3,9.1,2.6,14.5a8.809,8.809,0,0,1,.2,1.7,4.951,4.951,0,0,1-.4,1.3c-.1,1.2,0,2.4-.1,3.6-.3,3.5-.9,6.9-1.5,10.2-.3,1.7-1,3.4-1.4,5.1a21.051,21.051,0,0,0-.2,2.5c-.9,4.8-2.6,9.1-3.9,13.1,5,3.4,12.6,4.2,20.4,4.8-.2,1.4-2.5.8-3.2,1-1.7.3-3.4,1.3-5.2,1.8a25.747,25.747,0,0,1-5.7.5,34.706,34.706,0,0,1-5.6-.1c-1.4-.3-3.3-1.1-4.2-.8-.7.2-1.1,1.8-1.5,2.6a15.664,15.664,0,0,1-1.7,2.1c-.5.8-1.1,1.5-1.5,2.3-2.1,1.1-2.4,3.9-4.5,4.9,0,.4-.2.7-.2,1.1-2.6,1.9-4,4.9-5.5,8-2.6,2.7-3.8,6.7-5.8,9.9-.2,2.7-2.1,5.2-2.6,7.6-.1.6,0,1.2-.1,1.9-.5,3-1.3,6-1.1,10a13.637,13.637,0,0,0,.4,1.7,33.014,33.014,0,0,0,1.5,7.6,9.384,9.384,0,0,1,1.5,3c4.1.8,9.4-.5,13.9.7a34.134,34.134,0,0,1,7.3.7c1.8.4,4,1.1,6,1.6a59.516,59.516,0,0,1,6.7,1.7c1.6.6,2.9,1.5,4.4,2.1.4.1.8.1,1.2.2a2.693,2.693,0,0,0,1.8,1c2.1,1.9,4.4,3.5,6.7,5.2,1,1.9,2.9,2.8,4.3,4.3.1.4.3.6.4,1,.5.2.8.6,1.4.7a2.735,2.735,0,0,0,1.3,1.3c.2.5.6.7.7,1.2.6.2.8.8,1.2,1.2,1.2,1,2.7,1.6,3.6,2.9a138.5,138.5,0,0,0,18.1,2.1c.5-.3.4-1.5.1-2a26.735,26.735,0,0,0-.2-7.5,43.5,43.5,0,0,0-.6-5.2,54.909,54.909,0,0,0-2.1-6.9,10.55,10.55,0,0,0-.5-1.9c-.8-1.8-2.4-3.1-3.1-4.9-.1-.3-.1-.7-.2-1-.3-.5-.8-.8-1.1-1.3-.5-.9-.4-2-1-2.7-1.5-1.2-2-3.4-3-5.1a31.453,31.453,0,0,0-1.1-4.4c-.4-1.7-1-3.4-1.4-5.1.1-.5-.6-.3-.6-.8-.1-.6.3-.8.4-1.3a57.793,57.793,0,0,1-1.4-7c-.5-3.7.4-7.7.1-11.4-.1-.2-.1,0-.1.1-.2-2.6.1-5.4,0-8,0-1.1-.3-2.4-.4-3.6a12.149,12.149,0,0,0,0-2.7c-.5-2.1-1.6-3.9-1.8-5.9a20.622,20.622,0,0,1-1.2-2.6c-.4-.5-.6-1.1-1.2-1.4-2.1-4.4-5-7.5-6.3-12.5-.2-.2-.4-.6-.6-.8-.3-2.8-1.5-4.6-1.7-7.5-.9-4.3-1.5-9.1-2.7-13.1-.7-2.3-2.5-4.1-2.7-6.3,1.7-.3,1.8,2,2.9,2.7.2.2.6.4.8.6a21.163,21.163,0,0,1,1.2,2c3.1,3.8,6.4,7.3,9,11.5,1.3.9,1.5,2.8,2.7,3.7v.8c.7.7,1,1.8,1.8,2.4,2.1,5.3,4.9,11.1,6.3,17.5.5,2.3,1.6,4.4,1.8,7a75.584,75.584,0,0,0,1.1,7.5c.1.7,0,1.5.1,2.3.1.6.4,1.1.5,1.7a33.891,33.891,0,0,1,.2,4.5c.1.9.5,1.9.6,2.9.2,1.7.1,3.4.4,5a137.136,137.136,0,0,1,1.7,14.3c.1,1.5.6,2.8.5,4.4a3,3,0,0,0,.4,1,24.368,24.368,0,0,0,1.4,6.5,12.2,12.2,0,0,1,.5,1.7c.1.6.6,1,.7,1.5.3,1,.5,2.1.8,3.2a43.368,43.368,0,0,1,.8,4.6,16.25,16.25,0,0,1,.7,3.7c1-2.1.9-5.2,1.5-7.6.1-.5-.2-.7-.1-1.2a5.716,5.716,0,0,1,.7-.8,169.762,169.762,0,0,1,3.8-21.1c.3-1.2.9-2.5,1.3-4.2.2-.7.1-1.6.4-2.5.4-1.5,1-3.1,1.5-4.6.6-1.7,1.5-3.7,1.4-4.8-.1-.5-.6-1.1-.7-1.5-.1-.5,0-1.1-.1-1.7s-.3-1.3-.5-2.3a11.639,11.639,0,0,0-.6-1.5c0-.2.2-.4.1-.6-.1-.4-.4-.6-.5-1-.6-2.7-.1-5.9-.5-8.8a47.844,47.844,0,0,1,.1-7.5c0-.5-.6-.7-.4-1.1,0-.7.5-1.4,1.1-1.2,1,2.1.3,5.6.8,8.6.1.8.5,1.6.7,2.5.5,2.5.9,4.9,2.3,6.7,1.2-5.5,3-10.5,4.4-15.8-.8-1.4-2.5-2.1-3.5-3.3a16,16,0,0,1-1.1-1.9,6.42,6.42,0,0,1-1.5-4.2,22.078,22.078,0,0,1,.2-6.3c.3-1,.7-2.3,1.1-3.7.4-1.6,1.1-3,1.4-4.4.1-1.2-.2-2.9.4-3.9,1.7.6,1.9,2.8,3.3,3.7.8-.4.6-1.2.8-1.8.9-2.5,2.5-5.1,3.7-7.9.4-.9.9-1.7,1.3-2.6a57.614,57.614,0,0,0,3.9-10,28.371,28.371,0,0,0,.6-3.1,41.528,41.528,0,0,0-.2-7.9c.7-.2,1.1.8,1.7,1.1a9.516,9.516,0,0,0-2.3-4.3c-.2-.3-.6-.3-1-.6-.4-.4-.7-1.1-1.1-1.4-.7-.5-1.7-.7-1.9-1.8-2.4-.9-5.2-2.5-8.3-3-3.6-.5-7.3-.1-10.5-1.3-1-1.2-2.8-1.5-3.6-2.9.3-.8,1.5-.7,2-1.3a4.767,4.767,0,0,0,2-.4c1-1.7,3.5-1.9,5.5-2.6-1-1.2-1.1-3.4-2.1-4.5-.1-2.4-1.4-3.5-1.8-5.6,3.6-.4,6.9.9,9.9,1.8-.3-3.6-1.8-8.2-1.5-12,2.1.7,3.5,2.1,5.7,2.7.6-3.1.2-7.6,1.5-10.2a7.635,7.635,0,0,1,3.8,4.1c2.1,1.7,3.2,4.4,4.9,6.5-1.2-6.6.9-13.9,3-19,1.9.6,2.4,2.5,3.5,3.9a54.858,54.858,0,0,1,4.9-6.7,3.365,3.365,0,0,1,.8,1.7c.5,1,1.1,1.9,1.7,3,.8-.4,1.2-1.3,1.8-1.9,1.7.6,1.4,3.3,2,5.1.7,0,.7-.7,1-1.2a10.3,10.3,0,0,0,2.6-2.5c.3-.1.7-.1,1.1-.2,1.1.6.7,2.7,1.1,4,1.2-.7,2.1-1.8,3.3-2.5.6.2.5,1.2,1,1.6-.1.3,0,.7-.2,1,1.6,5.3-.9,10.1-1.1,15.4a2.011,2.011,0,0,0,1.7-1.4c1.5-.4,2-1.9,3.5-2.4,0,.1,0,.1.1.1.8,1.3-.2,3.8-.4,5.2,2-1.3,1.3-4.8,1.4-8a21.163,21.163,0,0,0,.2-2.4c-.1-1-.7-2-.8-3-.1-.8,0-1.6-.1-2.3-.1-.6-.6-1-.8-1.5-.2-.6-.3-1.2-.5-1.8a70.488,70.488,0,0,0-4.2-9.8c-1.9-2.2-3-4.8-4.8-6.9-.8-.9-1.8-2-2.7-3.1a16.3,16.3,0,0,0-3-2.9c-.6-.4-1.5-.4-1.9-1.1-2-1.1-4.7-1.5-6.7-2.6-5.7-.5-11.6-1.2-17.1-.1-.5.1-1,.5-1.4.6-.6.1-1.3,0-1.9.1-1.9.4-3.9,1.4-5.7,1.9-1.4.4-2.8.5-3.6,1.7-1.5.8-3.1,1.4-3.9,2.9-3.5,2-5.1,5.9-6.9,9.6-1.2,4.6-.5,10.6-.5,15.8a4.17,4.17,0,0,1-.6,2.7c-1.1-.3-.4-1.9-.6-2.7-.1-.5-.5-.8-.7-1.2a25.728,25.728,0,0,1-2.3-7.4c-.1-.7.1-1.3,0-2-.9-6.7.8-13.8,3.8-18.2.4-.6,1-1.1,1.4-1.8,1.2-1.8,2.8-3.5,4.2-5.2,1.2-.2,1.6-1.1,2.5-1.8,1.5-1.1,3.4-1.2,5.2-1.9.5-.2.8-.6,1.3-.8a14.1,14.1,0,0,1,3.1-.7c2.8-.6,5.2-1.5,8.3-1.8a7.279,7.279,0,0,1,3.6.2c-1.8,1-4,.2-6.2.7a.349.349,0,0,0-.2.1,39.971,39.971,0,0,1-4.2,2,19.97,19.97,0,0,1-4.6,3.5,30.436,30.436,0,0,0-7.3,9c1.8-.6,3.4-2.5,5.5-3.3.7-.3,1.7-.4,2.6-.7,1.7-.5,3.3-.8,5.4-1.3a22.505,22.505,0,0,1,2.4-.8c3.7-.7,7.8-.5,11.8-.5a26.1,26.1,0,0,1,8.5,1.2c.4,0,.3.5.6.5a23.467,23.467,0,0,1,8.9,4.6c2.4,3,5.5,5.2,7.1,8.9a2.866,2.866,0,0,1,1.3,2c1.5,1.4,2.1,3.9,3.3,5.6a29.753,29.753,0,0,0,2,5.5c.5,4.8,1.9,9.6,1.1,14.9.5.2.7-.7,1-1.1.9-.2,1.2-.9,1.4-1.7,2.4-.4,2.2-2.9,2.9-5.6.4-1.5,1-2.9,1.1-3.8a11.379,11.379,0,0,1,0-3.2,25.512,25.512,0,0,1,1.1-3.3,39.238,39.238,0,0,1,3.2-8c-.2-1,.5-1.6.8-2.4,1.1-2.8,2.1-5.8,3.7-8v-.8c1.3-2,2.1-4.4,3.6-6.2-.1,2.8-2.2,4.5-2.7,7.3a1.794,1.794,0,0,1-.7.5,20.561,20.561,0,0,1-2.6,7.1c-.7,3.8-2.9,6.2-3.8,9.8a3.919,3.919,0,0,0,1.2-2.3c2.1-3,4.2-5.9,6.1-9,.3,0,.3-.2.6-.1a148.826,148.826,0,0,0,10-14.5c.4-3,1.4-5.9,1.9-9.2,1.1-8.1,1.4-18,2.4-26.5.1-.7.5-1.4.6-2.1a42.694,42.694,0,0,1,.8-5.5c.1-.3.5-.5.6-.8.4-.9.5-1.9.8-2.7.7-1.6,1.9-2.8,2.3-4.4.4-.2.5-.7,1-.8,1.2-2.9,3.3-4.9,4.6-7.7-1.5,1.2-2.5,3-3.7,4.6a4.291,4.291,0,0,0-2.4,2.7c-1.2.4-1.3,1.9-2.4,2.5-2,4.1-4.9,7.2-5.6,12.6-2.3,5.7-2.1,12.2-4.2,17.9a7.539,7.539,0,0,1-.6,1.3,62.877,62.877,0,0,1-2.6,6.5c-.4.8-.9,1.5-1.3,2.3a66.926,66.926,0,0,1-4.3,7.5,1.1,1.1,0,0,1,0,.8c-1.2.6-1.4,2.2-2,3.4-.2.4-.6.6-.7,1a28.061,28.061,0,0,0-.8,3.1c-.2.5-.6.8-.7,1.2-.4,1.4-.4,2.8-1.4,3.8-.4,2.6-1.3,5.1-1.8,8.5-.3,2.3-1.6,4.4-1.7,6.7-.7.3-.6,1.3-1.1,1.8-1.4-.4-.8-3.5-.2-4.4.5-3.3.3-7,1.1-10.2-.1-.3-.1-.7-.2-1a68.4,68.4,0,0,0,.1-20.2c-.4-2.7-1.6-5.5-1.2-8.2.8-.2,1,.6,1.1,1.1.4,1.6.3,4.2.7,5.8.7.6.4,2.1.6,3.5a13.741,13.741,0,0,1,.4,3.1c0,2.6,1,5,.7,7.6-.1.7-.5,1.2-.6,1.9-.2,1.9.1,3.8,0,5.6-.2,2.2-1.3,4.2-.6,6.2,1.1-5.4,2.5-11.2,4.6-15.8.8-1.6,2.1-2.9,2.5-4.6,0-.4.4-.4.6-.6.3-2.1,1.8-3,2.1-5a59.838,59.838,0,0,0,8.3-20.4c.3-1.5.3-2.9.6-4.3a60.3,60.3,0,0,1,1.9-7.6c.4-1.2.6-2.5,1.1-3.7a34.47,34.47,0,0,1,2-3.2c.7-1.5,1.4-3.3,2.7-4.4a7.326,7.326,0,0,1,2.6-3.6c.1-.3.1-.6.2-.8.5-.2.8-.7,1.3-.8,1.1-2,3.1-3.1,4.1-5.2,1-.3,1.4-1.3,1.9-2.1,1.6-.7,2.3-2.8,4-2.9.8,1.6-1.3,2-2,3.1a14.731,14.731,0,0,0-.7,1.7c-1,1.5-2.5,3.2-3.2,5-1,.6-1,2.3-2.3,2.7-.8,3.3-3.3,5.7-4.6,9.2-.2.6-.3,1.4-.6,2.1-1.1,3.3-1.5,7.6-1.9,11.5-.3,3.8-.6,7.6-1,11.3-.2,2.2-.5,4.3-.6,6.7a23.635,23.635,0,0,0-.2,4.6c-1.4,2.9-1.3,7.2-2.9,9.9-.1.4-.5.5-.7.8-2.4,5-6.2,8.7-9.2,13.1a2.177,2.177,0,0,0-.8.5c-.7,1.9-2.2,2.9-2.7,5a2.344,2.344,0,0,1-1,.5,5.862,5.862,0,0,1-1.7,2.4c-2.5,4.3-3.7,10-4.8,15.7.6.2,1.1-.6,1.5-1,2.3-.6,3.8-2.1,6.2-2.6.5-.4,1-1.3,2-.8-.3,1.6-.7,3.6-1,5.8,2.1.5,3.9-1,6-.6-.2,2.1-1.8,2.8-2,4.9,1.3.4,3.3.2,4.6.6.2,1.8-2.1,2.6-1.7,4,.3,1.2,2.6.7,3.6,1.5-.2,1.7-1.1,2.7-1.7,4.2.5.5,3.6,1.2,3.7,2.3.1.8-1.7,2.3-1.5,3.2.1,1.1,3.1,1.3,3.1,2.5,0,.1-1.1,1.6-1.3,1.9-.5.7-1.5.9-1.3,1.8.6.8,2.2.6,2.6,1.5.2,1.1-1.2,1.5-1.7,2.4.6.7,2.3.3,2.3,1.4,0,1.4-2.6.4-3.2,1.5.6,1.4,2.6,1.3,3.7,2.1,0,2.2-2.7,1.6-3.1,3.3.8.1,1.2,1.1,1.8,1.5.5.4,1.7.5,1.8,1.1.2.9-.5.8-1.2,1.2-.4.2-.6.6-.9.8-.7.4-1.7.4-1.7,1.3.1.9,1.9,1.2,1.7,2.5-.2,1.1-2.3,1-2.6,1.9.7,1.2,1.7,3.2.2,4.3a24.739,24.739,0,0,1-3.8.1c-.4-.1-.7-.4-1.1-.5a12.1,12.1,0,0,1-1.9-.1c-.7-.2-1.9-1-3-.9-.9,0-1.4.7-2.4.7,0,1.3,1.3,1.2,1,2.7-.7.5-2.3,0-3.1.4-.1,1,.7,3,0,4.2-1.1.2-1.2-.6-1.4-1.3a6.228,6.228,0,0,1-1.5-2.1c-1.6-1.2-2.3-3.3-4.8-3.7-.2-.4-.4-.8-1-.8-1.9,2.7-2.8,6.4-4.3,9.5,0,.4.1,1.1-.1,1.3-2.2,4.9-4.4,9.8-6.3,14.9-1.4,1.8-1.9,4.3-2.6,6.5-.7,2.3-2.5,3.9-3,6.2-.5,0-.5.6-.8.7-1.2,2.9-2.9,5.9-4.4,8.8-.8,1.5-1.5,2.9-2.4,4.4-.5,1-1.4,2-1.9,3.2-.2.4-.2.8-.4,1.2-.1.3-.5.4-.7.7-.5.8-.5,1.9-1.5,2.3-2.3,4.6-5.6,8.1-7.7,12.9-.5.1-.5.7-1.1.7-1.3,3.1-3.7,5.1-4.9,8.3.6.6.9-.4,1.3-.6.2-.1.5.1.7,0,.6-.3.9-1,1.4-1.4,1-.8,2.3-1.3,3.2-2.1.5-.4.7-1.1,1.2-1.5,1-1,2.4-1.7,3.5-2.6,1.1-1,2.2-1.7,3.3-2.6.1-.2.6-.1.7-.2a15.483,15.483,0,0,1,3.8-2.1,28.965,28.965,0,0,0,2.9-1.9c3.8-2.4,10-4.1,15.5-5a80.931,80.931,0,0,1,9.9-.7,20.9,20.9,0,0,1,2.5-.1,34.763,34.763,0,0,0,3.6.5,9.254,9.254,0,0,1,3.7,1c.6.2,1.5-.1,1.8.7,2.8.6,4.3,2.5,6.2,4-.2,1.2.6,1.3.5,2.4a16.874,16.874,0,0,1,5,8.8c.7,3.9.4,7.8-.1,12.3a53.917,53.917,0,0,1-.8,5.6,19.467,19.467,0,0,0-.7,3.1,6.552,6.552,0,0,1,0,1.4c-.1.5-.5.8-.6,1.3-.1.3.1.7,0,1.1-.2.9-.7,1.8-1,2.7-.2.8-.2,1.8-.4,2.6-.4,1.9-.8,4.4-1.1,6.7-.2,1.4-.8,2.7-1,4-.1.6.2,1.1.1,1.7a4.95,4.95,0,0,1-.4,1.3,11.327,11.327,0,0,0,1.1,4.8,1.161,1.161,0,0,1-1.8-1.2c-.6-.5-.9-1.3-1.7-1.7a45.215,45.215,0,0,1-4.2-9.4c-.2-.7-.7-1.4-.8-2-.2-.8-.1-1.8-.4-2.7a11.619,11.619,0,0,1-.8-3.1,27.44,27.44,0,0,1,1-8,46.5,46.5,0,0,1,2.9-12c.5-1.3.9-2.9,1.5-4.5.8-2.1,2.2-5,.2-6.2-.2-.1-.6-.1-.7-.2-.2-.2-.3-.6-.5-.7-.3-.2-.8-.1-1.1-.2-.2-.1-.4-.5-.6-.7a10.789,10.789,0,0,0-2.7-1c-.9-.3-1.8-.9-2.7-1.2a44.361,44.361,0,0,0-9.2-1.3,41.8,41.8,0,0,0-5,.2,25.507,25.507,0,0,0-7.1,1.9c-3.2.3-5.3,1.7-8.1,2.4a6.07,6.07,0,0,0-1,.7c-4.5,1.3-7.7,3.9-11.3,6.1-2.7,2.7-6,4.8-7.9,8.3,2.4,4.2,3.5,9.7,6.8,13a3.258,3.258,0,0,0,.8,1.9c1.5,1.9,2.7,3.6,4.2,5.6.2.2.5.1.8.1a8.17,8.17,0,0,0,2.9,3.7,8.114,8.114,0,0,0,3,3.6c1.2,2.6,3.3,4.3,5,6.3a22.182,22.182,0,0,0,2.5,4.2,16.049,16.049,0,0,0,1.9,4.8,41.557,41.557,0,0,0,3.8,10.1c.9,5.4,4.4,8.2,8.8,10.1a5.363,5.363,0,0,0,2.9,1.8c1,1.2,2.6,1.7,4.2,2.4a23.591,23.591,0,0,0,5.8,3.9,60.714,60.714,0,0,0,5.7,4.3c.5,1.2,1.9,1.5,2.3,2.9,1,.3,1.9.7,2.1,1.7,2.9,1.9,4.5,4.9,7,7.1.7,1.4,1.9,2.9,2.7,4.3.6,1.1,1.4,2.4.8,3.6-.3.6-1.4,1.2-2,2-.5.7-.4,1.5-1.2,1.7-1.1-.4-1.2-1.8-1.4-3.1-1.4-2.4-3.2-4.5-4.6-6.9-1.2-.7-1.3-2.6-2.9-3.1-.2-1.2-1.5-1.6-2.4-2.5-.5-.5-.7-1.2-1.1-1.5-1-.9-2.5-1.4-3.2-2.7-3.3-1.5-5.6-3.9-9.2-5.1-.1-.3-.4-.4-.6-.7a17.191,17.191,0,0,1-4.8-1.9c-2.1-.3-4.2-1.3-6.4-1.5-.7-.1-1.3.1-1.9,0a27.319,27.319,0,0,0-4.6-.8,34.354,34.354,0,0,0-8.6,1,48.416,48.416,0,0,0-4.9,1.8c-.5.2-1.2.2-1.7.4-1.6.6-3.2,1.8-4.8,2.5-.3.2-.8.2-1.1.4-.4.2-.6.6-1,.8-2.1,1.5-4.9,2.2-6.3,4.4-.4-.1-.4.2-.8.1-4.5,3-9.2,5.8-12.3,10.2-3.1,1.9-5.3,4.9-8.1,7.3-2.1,1.8-3.9,3.8-6.1,5.6-1.8,1.6-3.6,3.2-5.4,5-.9.1-1.2.9-1.9,1.4-1,.9-2.7,1.6-3.1,2.6a23.944,23.944,0,0,0-.4,4.2c-.2,4.7-.5,12.8.1,17a13.266,13.266,0,0,1,.4,2.4c1.8-2.4,2.6-5.7,4.8-7.7,0-.4.3-.5.2-1,2.7-3.5,5.8-6.5,8.7-9.8.6,0,.6-.6,1.2-.6,4.1-4,9.8-6.4,16.2-8.1a1.861,1.861,0,0,0,1.7-.5c-.1-2.8,2.3-3.1,3.2-4.9,1-.3,1.3-1.1,2.4-1.5,2.6-1.1,7-.7,8.9-2.3.9-.7.9-1.9,2.3-1.4a6.835,6.835,0,0,1,.1,3.2,27.062,27.062,0,0,1,10-.7c.5.1,1,.4,1.4.5,1.2.2,2.5.2,3.7.5,1.4.4,2.2,1.2,4.1,1.1.5,0,.5.5.8.6a13.365,13.365,0,0,1,5.6,2.1c1.5-.2,1.7,1,3.1,1.1.5,1,2.3.6,2.3,2.1-1.4,1.3-4,1.4-5.5,2.6-1,0-2.7-.6-3.3.1a28.646,28.646,0,0,1,8.8,5.8c.7.1,1.1-.1,1.5,0a9.983,9.983,0,0,0,6.1,1.7c-.1-1.3-3.2-1-2.9-2.4.3-1.5,4.9-.1,6.2-.7-.5-.9-2.4-.5-3-1.4-1.7,0-2-.6-3.6-.7.4-1.7,2.3-1.8,3.6-2.6-1.9-1.1-5.1-1.1-7.7-1.1.3-1.2,2.5-1,3.9-1,1.7.1,4,.4,4.8,1.2.5,0,.8-.5,1.1,0-.1,1.4-2.3,1.6-3.1,2.7a14.45,14.45,0,0,1,5.4,2c.8-.1,1.2.2,1.1,1a14.33,14.33,0,0,1-5.4,1.2c-.1.9,1.8.9,1.4,2.5-3,.8-6.7,0-9.3-1.2-1.1.1-1.9-1.1-2.5,0,1.6.5,3.5.8,4.5,1.9.2-.2.5-.1.8-.1.6,1,2,1.3,2.7,2.1.5.1.5-.3.8-.2,0,1.5,2.3,1.4,2.3,2.7,0,1-1.5,1.4-2.9,1.3.1,1.5,1.3,1.9,1.1,3.8a3.243,3.243,0,0,1-1.7,0,8.51,8.51,0,0,1-1.3-.6c-.4.1-.5.7-.7.8a3.672,3.672,0,0,1-1.8.1,9.575,9.575,0,0,1-1.7-1.4,17.346,17.346,0,0,0-2.5-2.1c-.3.6.8.8.6,1.8-.8.2-1.3-.8-2.4-.7-1.2-1.7-4.9-1.9-7.3-1.5-4-1-9.5-.4-14.3-1.2a35.212,35.212,0,0,1-5.2-1.2c.2,1.3-.1,2.8.4,4.2a1.174,1.174,0,0,1-1,.6c-1.6-1.6-2.6-3.8-5.7-3.9-.2-.3-.7-.3-1-.6-5.8-.7-3-.5-4.5-1.1-.7-.3-1.4-.2-2-.6-1.6-1-2.6-2.6-3.8-3.9-.2-1.7-.8-3.1-1.1-4.8a8.118,8.118,0,0,0-5.5,1.4c-.9-.3-1.5.5-2.1.8-1,.6-2.3.9-3.1,1.4-1.1.7-1.8,1.9-2.7,2.7-1.3,1.1-2.8,1.6-3.9,2.6-4.1,5.4-9.9,10.4-10.8,19-.3,3,.6,5.7,1.1,8.6.3,1.6,1.3,2.7,1.9,4,1,2.3,1.3,4.9,2.9,6.5,0,.5.2.5,0,.8,0,.4.4.4.6.6a19.856,19.856,0,0,0,3.3,6.1c-.2.3-.6.4-.8.7-1.8-.7-2.6,1-4.3.7v-1c-.3-.2-.7-.4-.5-1.1-.8-.6-1.2-2.3-1.9-3.6a29.946,29.946,0,0,1-3.7-8.5c-1-1-1-3-1.9-4.2a40.045,40.045,0,0,0-2.3-7.4c.4-1.1-.4-2.1-.6-3.1-.1-.5.1-1.1,0-1.7-.1-1.1-.4-1.8-.5-3.1a59.772,59.772,0,0,0-1.1-7.9,10.282,10.282,0,0,1-.1-1.8,71.907,71.907,0,0,1,.1-12.3c-5.9,2.8-11.4,6-18.3,7.7-6.1.7-12.8,1.7-18.8,1.5-.3-.6.5-1.2.8-1.5,1.7.6,4.1-.6,6.1-1.6a41.931,41.931,0,0,0,4.3-2.3c1.8-.9,3.1-2.6,5-3.5.4-.2.8-.2,1.2-.4a28.768,28.768,0,0,0,4.4-3.1c.8-.5,1.7-.7,2.5-1.2.4-.3.8-.8,1.2-1.1a22.022,22.022,0,0,0,4-2.3c1.2-1,1.9-2.5,2.9-3.6s2.3-2,3.3-3.1a31.4,31.4,0,0,1,3.1-3.2c1-8.1,1.7-16.5,3.1-24.2a61.759,61.759,0,0,1-8.6-.2c-2.7-1.1-6.6-1.2-9-2.4-1.6.3-2.5-.7-3.7-1.1-1.7-.6-3.3-1.2-4.9-1.7-1.2-.4-2.2-.7-3.3-1.1A4.5,4.5,0,0,0,286,335a8.062,8.062,0,0,0-1.4,1.2,15.384,15.384,0,0,0-1.2,1.3c-.5.7-.7,1.7-1.2,2.4a23.131,23.131,0,0,1-2.4,2c-.3.3-.3.8-.6,1.2s-.9.6-1.2,1c-.9,1-2.1,2.2-3,3.3-1.2,1.6-2.2,3.2-3.3,5a13.074,13.074,0,0,0-1.1,1.2c-.2.4-.1.9-.4,1.3-.6,1.3-1.7,2.4-2.4,3.9-1.3,2.9-2.4,5.8-4,8.9-.8,3.6-3.5,6.1-3.7,10.7a19.418,19.418,0,0,1-.2,2.4c-.2,1.6,0,3.3-.2,4.9a10.26,10.26,0,0,0-.4,2.7c.4,4.1,1.4,7.7,4.2,9.8,1.8,3.8,5.4,5.6,8.2,8.3,1.4.1,2.5,1.3,3.8,1.7.2.1.6-.1.8,0,.4.1.7.6,1.1.7a24.435,24.435,0,0,0,3.9.7c.5.1.9.5,1.4.6,2.6.6,5.8.1,8.5.1a51.411,51.411,0,0,1,6.8,0c2.6.4,4.6,1.5,6.8,2.4.1,1.1,1.4.9,1.5,1.5-1,1.6-2.8,0-4.2-.4-2.7-.6-5.9-.2-8.6-.1-1.9.1-4,.4-5.8.6-3.4-.9-6.7-.8-9.8-1.9-2.1.4-4.1-1.2-6.7-1.2-.4,0-.3-.5-.6-.5-1.6.3-1.8-.8-3.3-.6-.6-.6-1.8-.7-2.6-1.1a2.407,2.407,0,0,0-.6-.8c-3.5-1.6-6-4.2-8.7-6.5-.2-.8-.5-1.5-1.3-1.7,0-.3-.2-.5-.2-.8-5.2-5.1-6-16.7-3.6-25.1.3-.9.3-1.9.6-2.7.4-1.1,1.1-2.3,1.5-3.6,2.4-7,6.7-13.8,10.4-19.8.5-.7.6-1.6,1.1-2.3.4-.6,1-.9,1.4-1.4.4-.6.5-1.3.9-1.8.7-.8,1.6-1.5,2.3-2.4.4-.4.6-.9,1-1.3a42.863,42.863,0,0,0,3.8-4.5,21.212,21.212,0,0,1,1.5-1.5c1.1-1.2,2-2.6,3.1-3.8-.5-.9-2-.9-2.5-1.8a8.323,8.323,0,0,0-2.6,1.9c-2.2.6-3.6,2.6-5.4,3.8-1.2.8-2.4,1.4-3.5,2.3-2,1.7-4.2,3.3-6.2,5.2-.9.9-1.6,2.1-2.6,3.1-.9.8-1.9,1.5-2.7,2.3s-1.7,1.6-2.5,2.5-1.4,2.1-2.3,3.1c-.4.5-1,.8-1.4,1.3a42.345,42.345,0,0,1-3.2,4.2c-2,4.8-5.5,8.1-6.9,13.5,4.2,3.2-1.2,10.4,0,15.9a5.01,5.01,0,0,0,.8.7c.1.7-.1,1.3-.7,1.3-.5,0-.4-.5-.8-.8-.5-.4-1.2-.5-1.5-.8-.7-.6-1-1.8-1.5-1.9-1.3,8.7-5.2,14.9-9.4,20.7-1.9,1.6-3.4,4.2-5.8,4.9a25,25,0,0,1,.1-6.7c-1.1.2-1.2,1.5-1.8,2.4-.8,1.2-2.1,1.9-2.5,3.5-1.3.9-1.8,2.5-3.7,2.9a25.634,25.634,0,0,1-1-8.8c1.2-3.5,1.8-6.9,3.5-9.8a14.932,14.932,0,0,1,1.2-1.4c1-1.4,1.9-3.1,3-4.5,1.8-2.6,3.2-5.2,5.2-7.3-1.2-.4-3.6.9-4.8-.1.2-1.4,1.7-1.5,2.6-2.1,2-1.3,3.5-3.4,5.1-5.1,1.9-1.2,3.3-2.8,5.2-3.9,1.2.1,2-1,3.5-.6,1.9-2.1,2.7-5.4,4-8.1a18.482,18.482,0,0,0,3.8-6.2c2.5-2.4,4.4-5.3,6.5-8,1.2-.5,1.8-1.6,2.6-2.4-1.4.5-2.8,2-3.9,3.2-2.2,1.1-3.9,2.9-5.7,4.3-.4.3-.9.4-1.3.7-.5.4-.9,1-1.4,1.4a17.393,17.393,0,0,0-1.8,1.1c-.7.5-1.1,1.3-1.8,1.8-.4.3-.9.4-1.3.7-.8.6-1.6,1.4-2.5,2-.8.6-1.5,1.6-2.3,2.1a9.147,9.147,0,0,1-1.7.9c-1.4,1-3,2-4.4,3.1-1.7,1.3-4,2.5-5.7,4a2.937,2.937,0,0,0-1.9,1c-7.5,4.1-14.8,8.4-22.7,12.1a5.662,5.662,0,0,0-3.3,1.1,21.314,21.314,0,0,0,5.8,7.1c.2,2.3-2,2.1-3.6,2.3-.5.7-.3,1.6-1.1,1.8-1.1.2-2.1-2.1-3.1-1-.1.6.7.2,1,.5,0,.5.4.6.7.8-.2,1.3.8,1.5.7,2.7.6.5.4,1.4,1.1,1.3A3.353,3.353,0,0,1,190.3,402.5ZM339.7,79.3a20.462,20.462,0,0,0-2.7,1.2,26.542,26.542,0,0,0-3,1.1,17.682,17.682,0,0,0-2.4,1.7,13.879,13.879,0,0,0-5.4,6.3,13,13,0,0,0-3.7,4.9,12.863,12.863,0,0,1-.4,1.9c-.2.5-.6.7-.7,1.2-.1.3.1.7,0,1.1-.4,2.6-1.4,4.7-1.1,7.9.4,3.9.7,7.2,2.1,9.8.1-5.1.1-10.2,1.3-13.8a38.113,38.113,0,0,1,5.2-9.8c1.7-2.4,3.1-4.8,4.5-7a21.317,21.317,0,0,0,4.8-4.2,10.887,10.887,0,0,0,2.3-1.4c.8-.5,1.9-.7,2.3-1.5h-.4C341.8,79.2,340.7,79,339.7,79.3Zm28.8,30c-.9,2-2.6,3.7-3.5,5.7-.3.6-.1,1.5-1.1,1.5-.4-2.1-1.6-3.4-2.6-4.9-1,.6-.8,1.8-1.2,3.2A26.221,26.221,0,0,0,359,119c-.1,2.4-.9,4.7-.6,7.6a19.25,19.25,0,0,0,.4,3.8c.2.7.9.8,1.4,1.4,1.2,1.3,1.7,3.5,2.7,4.6a32.708,32.708,0,0,1,2.1-16.8c1.4-.6,1.3.8,1.7,1.5.2.4.6.6.8,1.1a26.037,26.037,0,0,1,1.7,5.4c1.6-3,2.9-6.2,5.6-8.1,1.4.9,1.2,3.3,1.7,5.1.3,1.2,1,2.3,1,3.5,1.6-1.8,2.8-3.9,5-5,.6,0,.4.8,1.2.6.8-2.7.7-6.3.5-9.2-1.7.3-2.1,1.8-3.3,2.5-1.1-.8-.6-3.3-1.5-4.3-1.5,1.5-3.3,2.6-3.8,5.1-.9,0-1-1.1-1.2-1.8-.3-1.3-.3-3-.8-4-1,.4-1.3,1.3-2.3,1.7a22.239,22.239,0,0,0-2.4-4.6C368.8,109.3,368.7,109.3,368.5,109.3ZM133.9,121.2c-.3.1-.3.5-.7.4-1.3-1.2-1.8-3.2-3.3-4.2-1.4,2.1-1.1,5.9-.8,8.6,1,1.2,1.7,2.7,3.1,3.5.4,1.4,1.6,2.4,2.4,3.7.7,1.1,1.6,2.2,2.1,3.2a19.524,19.524,0,0,0,1.7,2.3,58.463,58.463,0,0,1,2.9,5.6,9.819,9.819,0,0,0,.8,1.8c.8.9,2.9,1.4,3.8,2.1a29.442,29.442,0,0,1,3.1,3c.4-1.2-.8-1.8-.5-3-.5-.1-.7.4-1.1.1-.9-.7-.8-2.1-1.3-3.1-.3-.7-.9-1.1-1.1-1.8-.2-1,0-2-.2-2.7-.4-1.4-.8-2.9-1.1-4.4-.1-.8,0-1.7-.1-2.6a33.133,33.133,0,0,1,0-8.9c.4-1.9,1.5-4.2,1.8-5.6-1.3,0-1.2,1.3-2.7.9a5.957,5.957,0,0,1-.7-3.3c-.6.1-1.5,1.3-1.8,2.3-.3.9,0,2.2-1,2.1-.9,0-.9-1.7-1.4-2.7-.1-.2-.5-.5-.6-.7-.6-1.3-.7-2.3-1.8-2.6C134.7,116.9,133.1,119,133.9,121.2Zm10.9,4.9a41.823,41.823,0,0,0,.1,10c.5,2.5,1.4,5.1,1.9,7.5.3,1.3.4,2.3,1.2,3,.6-.4.2-1.1.2-1.7,0-1.7.5-3.3.6-4.9.3-.2.8-.1,1-.5-.2-3.2,1.1-5.7,1.8-8.3,1.3-2.1,3.1-3.9,4.2-6.3-1.3-.8-2.3.9-3.6.1a9.329,9.329,0,0,1,.1-2.5c-.9-.1-.9.9-2,.6-.6-.7-.3-2.3-.7-3.2C147,120.5,147.1,124.7,144.8,126.1Zm254.4-2.4c-1.3.1-1.8,1.1-2.5,1.9-3.4,2.2-5.3,6-7.9,9a35.391,35.391,0,0,1-1.2,6c2.5-1.7,3.4-5,6.7-5.8.9-1.4,2.6-2,4.4-3a4.238,4.238,0,0,1,3.1-.7,27.4,27.4,0,0,1-2.1,7c1.8-.5,3.8-.7,5.7-1.1.3,3-1.7,5.8-2.6,8.3a18.231,18.231,0,0,1,6.4-.7c.5,2.8-2.4,4.1-2.7,6.9-.8-.1-.9.7-1.3,1.1,1.3,1,5.8,1.4,5,3.9-1.2.4-1.9,1.3-3,1.8a2.024,2.024,0,0,0,1.4,1.3c1.7-1.4,4.8-1.4,6.5-2.7a7.081,7.081,0,0,0,3.6-.8c-.2-.6-1.4-.3-1.8-.8,0-1.5,1.5-1.4,1.9-2.4-.4-1.4-2.9-.6-2.7-2.6,1.7-.4,1.9-2.1,3-3.1-1-.9-2.7-.7-3-2.1-.2-1.4,1-2.3,1.3-3.7-1.5-.7-3.5-.4-3.6-2.1,0-1.4,1.5-2.2,1.5-3.8-1.4-.4-3.3-.3-3.7-1.7.6-1.2,1.2-2.2,1.8-3.5-1,.1-2.4-.9-3.6-.2-2-1.1,0-3.9.7-5.1-1.4.6-4.2.4-5.6,1.2-.3-1.9.4-3.8.6-5.6A11.756,11.756,0,0,0,399.2,123.7Zm-50.5,6.2c.4.3,1.3.6,1,1.3-.8.3-1.1-.6-1.7-1-.7-.5-1.4-.7-2-1.1a6.365,6.365,0,0,0-2.9-1.2c-.7,1.6.5,4,.7,6.1.1.8-.1,1.5,0,2.3.1.9.8,1.9.1,2.6-2.6-.5-6-2.3-8.9-1.4.8,3.2,2.1,5.9,3.1,8.9.2.4,1,.3.8,1.1a7.429,7.429,0,0,0-6.3,2.1,4.794,4.794,0,0,0-3,1.5c1.8,1,3.7,2.2,6.3,2.4,1.1.1,2.3-.1,3.5,0,2.3.2,4.5,1.2,6.5,1.4,1.2.5,2.1,1.3,3.6,1.5,1.5.9,2.5,2.4,4.2,3.1a37.683,37.683,0,0,1,3.7,5.5,6.958,6.958,0,0,1,.2,1.6c.3.9.9,1.2,1.4,1.9.7,2,1.9,3.8,1.7,6.3.5-.1.5-.7.6-1.2,1.1-.7,1.3-1.9,2.4-2.9.7-.6,3.1-1.8,3.5-2.6a11.844,11.844,0,0,0,.2-2.7c.1-1.4.2-3.1.2-4.6,0-2.6-.6-5.1-.7-7.3a30.967,30.967,0,0,1-1.1-4.6c-.1-.3-.4-.5-.5-.8-.2-2.5-1.5-4.4-1.5-6.7-.2-.3-.5-.4-.6-.7-1.2-4.9-3.9-8.4-6.9-11.5-.6-1.6-1.8-2.5-2.4-4-.4-.4-.9-.7-1.3-1.1a5.6,5.6,0,0,0-3.3-2.9A49.53,49.53,0,0,0,348.7,129.9Zm25.6-8.7a27.962,27.962,0,0,1-2.5,3.5c-1,1.5-1.1,3.8-2.6,4.8-.9-.8-.9-2-1.2-3.1a27.114,27.114,0,0,0-1.3-3c-.2-.5-.1-1.3-.7-1.7-.9,1.2-1,2.9-1.3,4.5A34.942,34.942,0,0,0,364,137c0,.5-.5.4-.5.8,2.8,8.4,6.7,18.8,4.9,29.9.7.1.9-.8,1.5-.4-.6,1.5.2,3,.4,4.6a13.049,13.049,0,0,1-1.4,7.4,37.17,37.17,0,0,1,3.7-3,17.817,17.817,0,0,1,3.7-1.3c3.3-2.5,10-2.7,14.4-1.4a51.341,51.341,0,0,1,7.1,3.3,13.361,13.361,0,0,0,2.6,2.7,4.381,4.381,0,0,0,1.7,2.3c.4-1.7-1.2-2.1-.7-3.5,1,.4,1.9.2,3.2.4,0-1.1-1.3-1.2-.7-2.5,1.4,0,1.8-.9,2.6-1.6-.3-1-1.5-1.3-.8-2.6.4,0,.9-.6,1.3-.2.4.6-.3.6-.4,1.1.5.8,1,1.6,1.4,2.4,2.6.9,6.3,2,9.2,1.2.1-1.5-.9-1.9-1.5-2.6,0-1.9,2.2-1.7,2.6-3.2-1.1-.1-1.1-1.3-1.3-2.3.3-1.5,3.3-1.5,3.2-2.7-.1-1.1-2.6-1.2-3.2-2.1-.3-1.9,2.6-2.1,2.9-3.5-.4-.4-.7-.1-1.2-.4-.2-.1-.2-.4-.5-.6-.2-.1-.7-.1-1.1-.2-.7-.3-1.1-.9-1.4-1a4.3,4.3,0,0,0-2.1.5,21.41,21.41,0,0,0-4.3,1.7v1.2c-1.6.8-4.5.9-6.2,1.1,2,.6,4.1.9,5.7,1.9.8,1.7,4.1,1.4,3.6,3.9-1.4-.3-2.2.6-3.2,1.1.1,1.1,2.1.9,2,2-.1.7-2.4,1.5-3.3.7.3-.6,1.6-.2,2-.7-.2-.9-1-1.1-2.1-1.1-1.4-2.3,2.3-2,3.1-3.2-.1-.2-.6-.1-.8-.2-.9-1.4-2.7-1.9-4-2.9-2.1-.2-4.1-1-6.3-1.1-3-.1-6,.7-8.9,1.3-.3.2-.5.5-.8.6h-.8c-1,1-2.6,1.1-3.8,1.9-.3.2-.4.5-.7.7-1,.6-1.9.9-2.9,1.5a11.7,11.7,0,0,0-2,1.2c-.6.5-.7,1.6-1.8,1.2a7.859,7.859,0,0,1,3-3,29.172,29.172,0,0,1,4.8-2.9c1.8-1,3.8-2.6,6.1-3,.3-.1.7.1,1.1.1,1.5-.1,2.9-1,4.5-1.2.9-.1,1.9.1,2.9.1a10.622,10.622,0,0,0,1.9-.4c2-.2,4.1.3,6-.6a4.415,4.415,0,0,0-2.4-1.8c.5-1.8,2.8-1.8,3.3-3.6-1.2-.7-4.4-1.1-4.5-2.5a7.036,7.036,0,0,1,1-1.9c.9-1.4,1.6-2.3,2.4-3.5a6.249,6.249,0,0,0,1-2c-1.7.1-3.6.7-5.1.6-.5.4-1.9,1.1-2.4.7,0-.7.7-.8,1-1.2.4-3,2.1-4.6,2.5-7.5-2.9.1-4.7,1.2-6.9,1.9.7-2.9,2.4-4.8,3.2-7.6a18.97,18.97,0,0,0-3.8,1.7c-2.4,1.2-3.8,3.4-6,4.5-1.1,2.1-3.3,3.3-4.5,5.4,0,.4.5.3.4.8-1,1.7-.7,4.7-2.5,5.6-.5,2.4-1.8,4.6-2.7,6.8-.3.7-.4,1.5-.7,2.1-.2.4-.6.7-.8,1.1-1.3,2.5-2.2,5.3-4,7.5-.3.8-.5,1.6-1.5,1.7,2.6-5.3,5.5-10.3,7.6-16.1a32.084,32.084,0,0,0,4.3-13.7c.8-1.2.3-2.6.6-4.2.1-.5.5-1,.6-1.5a28.635,28.635,0,0,0,.2-5c-1.9.8-2.7,2.9-4.6,3.7-1.2-2.3.6-6.2-1.1-7.7-.5.7-2.1,1.5-3,2.5-.5.6-.5,1.3-1.2,1.5a1.485,1.485,0,0,1-1.4-.4c-.5-2.6-1.5-4.8-1.9-7.5C374.6,121.2,374.5,121.2,374.3,121.2Zm-223,34c.5.8,1.3,1.3,1.4,2.4-.2.1-.3.3-.6.4-3.7-3.5-5.2-9.2-10.7-10.8-.3.7.6,1.3.4,2.4a4.068,4.068,0,0,1,1,2.3c1.3,1.8,2.4,6.1,4,7.7.8.8,2,1.4.5,2-.7-.2-.9-.9-1.3-1.3-.7-.2-1.4-.4-1.7-1-1.1.1-1.5-1-2-1.4-1.4-1.3-3.4-2.1-4.6-3.3-1.6-.3-4.3-2-5.6-1,4.6,1.8,6.7,6.1,9.3,9.9a114.2,114.2,0,0,0,6.7,11.9c.2.3.7.3.8.6a2.345,2.345,0,0,1,.5,1c2.2,1.6,3.4,4.2,6.3,5.1.6,1.2,2.1,1.2,3.3,1.7.7.3,1.2.9,1.9,1.1a20.421,20.421,0,0,1,3.2.6,18.676,18.676,0,0,1-2.4-10.1c2.4-.9,4.6,1,6.7,1.5,1.4.9,2.3,2.4,3.8,3.2-1.6-3.2-2.3-7.3-4.2-10.1v-1.1a11.74,11.74,0,0,0-1.5-2.7c-.7-2.7-2.7-4.1-3.3-6.8a8.8,8.8,0,0,0-1-.6v-.7c-.5-.4-.9-.9-1.4-1.3-.9-2.2-3.2-3-4.2-5.1-1.4-.3-1.4-2-2.7-2.4-.8-1.8-2.7-2.5-3.3-4.5-.2,0-.2-.2-.4-.1C149,148.2,151,151.7,151.3,155.2Zm77-8.2a15.417,15.417,0,0,0-3.8,4.2,14.565,14.565,0,0,0-1.8,3.5c-.3,1.3-.2,3-1.2,3.6-1.1-1.3-1.6-3.6-2.3-4.9-.3-.5-.2-1.1-.5-1.6-.1-.3-.5-.3-.6-.6-.5-.9-.7-2.2-1.7-2.6-.9.9-1,2.2-1.4,3.6a10.047,10.047,0,0,0-1,2.6c-.3,2.5,1.7,4.6,1.3,6.8-1.2-.5-1.3-2-2-3,0-1.7-1.2-2.4-2-3.5a11.375,11.375,0,0,0-5.2-3.6,47.748,47.748,0,0,0,2,5.7c.5,3.5,1,6.8,1.3,10.4.1.7.1,1.5.2,2.3.5,3.9.8,9.1,1.7,12.5-.2,3.1,1.2,5.3,1.8,8,.9.7,1.6,1.6,2.5,2.4a28.347,28.347,0,0,1,2-7.4,3.81,3.81,0,0,1,1.3-1.9,5.542,5.542,0,0,1,1.7,3c1.7,1.3,2.3,3.8,3,6.1.8-1,1.1-2.3,1.8-3.3.7-1.1,1.8-1.8,2.4-2.9-.8-.6-.3-1.5-.2-2.4.2-4.5-.8-8.9-1.1-13.3,0-.6.1-1.2.1-1.8,0-2.7-.6-5.5-.6-8.2a35.7,35.7,0,0,1,2.5-13.5C228.5,147,228.4,147,228.3,147Zm45.4,32.3c-.7,4.1-2.1,7.8-2.7,11.4a10.955,10.955,0,0,0-1.7,4.4c-.7.7-.7,1.6-1.1,2.6a36.048,36.048,0,0,1-2.6,5.2c-.9,1.7-2,3.3-2.9,5a64.923,64.923,0,0,1-3.1,5.9c-.4.6-1,1-1.4,1.7-.3.5-.4,1.1-.7,1.5-.9,1.2-1.8,2.4-2.7,3.7a65.474,65.474,0,0,0-5.1,8.1c-.9,1.8-2.2,3.5-3,5.2-.5,1-.6,2.2-1.1,3.2-1.6,3.9-3.5,7.3-4.3,11.5-1.4,3.1-1.3,7.1-2.1,10.7.9-1,1.1-2.5,1.5-3.8a30.3,30.3,0,0,0,1.2-4.3c2-4,4.3-7.6,6.3-11.7,2.1-2.6,4.2-5.2,6.2-7.6a48.663,48.663,0,0,1,3.5-4.2c1-1,1.9-2.3,3-3.5,1-1.2,1.7-2.6,2.6-3.8.4-.5,1-.7,1.3-1.2,1.2-1.7,2-3.6,3.2-5.4a36.759,36.759,0,0,1,2.3-4.9c1.7-3.9,3.8-8,4.6-12.5,1.1-6.3,2.9-12.6,2.4-19.8a23.592,23.592,0,0,0-1.1-6c0-2.3-1-4.5-1.7-6.5A57.275,57.275,0,0,1,273.7,179.3Zm81.4-2.5c-.2.5-.7.9-.8,1.4-.3,1-.1,1.9-.5,2.7a9.432,9.432,0,0,0-1,2.3c-1.5,1.5-1.7,3.9-2.7,5.7-.2.3-.6.5-.7.8-.2.3-.1.8-.2,1.2-.6,1.6-2.1,2.9-2.3,4.8-.2.2-.6.2-.6.6a26.269,26.269,0,0,0-.8,3,20.726,20.726,0,0,1,1.5,6.4c.4-.4,1.3-1,1.7-1.4.1-.2.1-.5.2-.7.7-.7,1.8-1.6,2.6-2.5.9-1,1.9-2.9,3.3-2.7.1,1.5.1,3.2.2,5a15.414,15.414,0,0,1-.1,3.7c-.3,2-.5,4.6-2.1,5.4.3-4.3,1.6-7.8.8-11.9a29.476,29.476,0,0,0-7,8.3c-.4,1.4-.7,2.8-1.8,3.5-.3-1.4.4-2.8.8-3.9a19.22,19.22,0,0,0-.6-6.8,2.047,2.047,0,0,1-.8-.8,2.609,2.609,0,0,0-1.9-2.7c-.6,4.2-3.3,7.9-3.2,12.7.1,2.9,1.1,4.5,1.8,6.5.9.1,1.2,1.4,2.1,2.3,1.3,1.2,3.4,2,1.7,4-1,5.1-2.4,9.9-3.8,14.6-.2.4-.8-.4-.8.2,2.5,3.7,4.5,8,7.5,11.3.8,1.6,1.9,3,2.7,4.5,2.1-2.2,3.3-5.5,5.5-7.6,2.2-4.6,5.4-8.7,7.7-13.2.5-.9.7-2.1,1.2-3,.2-.3.7-.5.8-.8.3-.5.5-1.2.8-1.8.7-1.2,1.3-2.6,2-3.8.4-.6,1-1.1,1.4-1.8,2.2-3.3,3.2-7.4,4.9-11.1a33.714,33.714,0,0,0,5.8-12.7c.1-.2.4-.3.5-.5,0-.5.3-.6.2-1.2,2.3-4.5,3.8-9.5,5.7-14.4,1-2.5,2.4-4.7,2.9-7.5-3.2-.6-7.8-.9-11,.1-.2.7.8.4.7,1a16.021,16.021,0,0,1-2.7,2.5c-.6,1.6-1.6,2.5-2.1,3.8-.4,1-.6,1.9-1.1,3.1-.2.4-.6.7-.7,1.1-.3.8-.2,1.5-.5,2.4a23.865,23.865,0,0,1-1.6,3.2c-.2.4-.3.9-.5,1.3a38.363,38.363,0,0,0-1.8,3.5,8.874,8.874,0,0,0-.2,1.5c-.5,1.3-1.6,2.5-1.8,3.8a5.71,5.71,0,0,0-1.3,2.1c.3.2,1.4-.6,1.7.2-.2.7-.7,1-1.1,1.5-4.3,2.4-5.4,8-7.9,12.3-1,.9-1.9,1.9-2.9,2.9-.7.2-1,.8-1.7,1.1-1.7-.5-2.6.9-4.4.5-1.4,3.6-3.3,6.6-3.8,10.8-1.4,1.9-1.3,5.3-2.7,7.1-.9-2,.7-4,1.2-6.2.1-.3-.1-.6,0-1.1a8.01,8.01,0,0,1,1-2.3c.2-.5.3-.9.5-1.5a22.386,22.386,0,0,1,1.1-3.1c.2-.6.2-1.3.4-1.8.1-.1.4-.3.5-.5.5-1,.5-2.3,1-2.6.8-.6,2.4-.2,3.5-.4,1.4-.2,1.8-1,3-1.3.7-1,1.7-1.5,2.5-2.5a26.242,26.242,0,0,0,3.3-6.2c.1-.3,0-.7.1-1,.9-1.9,2.8-2.8,3.7-4.3-3.6,1.3-7,3.1-9.2,5.7-.4.5-.4,1.7-1.5,1.3,2.1-5.8,10.2-5.6,12-11.7a4.448,4.448,0,0,0,1.4-2.9c.1-.3.6-.2.6-.7a24.459,24.459,0,0,1,3-7.4c.1-.5-.2-1,0-1.2.1-.2.5-.2.6-.5a73.255,73.255,0,0,1,3.5-9,37.171,37.171,0,0,0,3-3.7c-3.6.8-6.6,2.3-8.2,5.1-.2.2-.6.2-.8.4a1.288,1.288,0,0,1-1.3,1.4c0-4.3,3.8-9.4,1.4-13.8-.6.6-1.5.8-2,1.4-3,1.4-4.5,4.2-5.7,7.4-.5.1-.5.8-1.1.8-.3-3.2.1-6.4-.8-8.7-1-.9-1.5-2.2-2.4-3.2h-.4C356.1,170.7,356.1,174,355.1,176.8Zm36.1-1.5c-.4,1.5-1.4,2.8-1.9,4.3a13.639,13.639,0,0,1-.4,1.7c-.6,1.4-1.4,2.7-1.9,4.2s-1.3,2.9-1.8,4.4c-.3.8-.3,1.8-.6,2.6-.2.4-.6.8-.8,1.2a15.431,15.431,0,0,1-.5,1.7,28.251,28.251,0,0,0-2.5,6.5,12.344,12.344,0,0,0-.8,2.3c-.5,1.1-1,2.3-1.5,3.2-.3.6-.5,1.2-.8,1.7-.2.3-.6.5-.8.8-.3.6-.3,1.3-.6,1.9-1.5,3.2-3.6,6.1-4.6,9.6a23.7,23.7,0,0,0-2.1,3c-.6,1-.9,2.3-1.5,3.3-.6,1.1-1.7,1.8-1.8,3.3-1.6,2-2.5,4.7-3.8,7-.4-.1-.5.1-.7.2a32.309,32.309,0,0,1-2,4.2c-.4.7-1.1,1.1-1.5,1.8-.6,1-.7,2.1-1.3,3.1-1.3,2.1-3.2,3.9-4.2,6.3-.5.8-2,1.3-1.3,2.6a19.543,19.543,0,0,0,3.3-5.4,34.773,34.773,0,0,0,5.8-8.7,91.8,91.8,0,0,0,10.6-17.4c1.4-1.5,2.1-3.4,3-5.1.9-1.8,1.5-4,2.5-5.7,1.6-2.9,4-5.6,4.3-9.5.3-.3.4-.6.7-.8a41.134,41.134,0,0,1,3.3-7.3,13.492,13.492,0,0,0,.8-2.4c.9-2.2,2-4.6,2.9-6.5a18.247,18.247,0,0,0,.7-2.5c.4-1.1,1-2.2,1.4-3.3.7-2.1,1.2-4.2,2-6A7.581,7.581,0,0,1,391.2,175.3Zm-218.8,5.4c.2-.1.1-.5-.2-.5C172.2,180.5,172.2,180.7,172.4,180.7Zm122.4,7.7c1.6,8.1,3.1,16.3,5.6,23.4,2,2.8,3.2,6.3,5.5,8.8a44.792,44.792,0,0,1,2.3,4.9c.3-1.9-.1-4.2-.2-6.3-.2-1.9.1-3.9-.2-5.6-.2-1.2-1-2.8-1.3-4.3a21,21,0,0,0-2.1-6,8.166,8.166,0,0,0-1.4-3.8v-.8c-1.3-2.3-2.9-4.4-4.2-6.8a4.82,4.82,0,0,1-1.9-2.5c-1.2-.7-1.6-2.2-2.4-3.3h-.4A3.928,3.928,0,0,0,294.8,188.4Zm11.1,13c-.1-.1-.7-.8-.8-.5.1,1.4,2.5,5.6,3.1,8.9.2,1,0,2.2.4,3.1.2.4.5.6.6,1.1,0,.4-.2.9-.2,1.3,0,1.8.7,3.7,1,5.6.1,1.3-.1,2.9-.1,4.3,0,.9.4,1.7.4,2.5,0,4-.5,8-.2,12v2.1c-.1,2.2.5,4.6.5,6.3,0,1.8-.3,3.6-.2,5.4.6.8.2,2.1.4,3.3.3,3.2,1.4,6.1,1.9,9.2.4,2.4.5,4.9,1.7,7,.4,2.8,1.6,5.5,3.2,6.7a7.906,7.906,0,0,0,2.1,4.6c.2,1.7,1.5,2.3,1.8,3.9,1.6,1.2,1.8,3.4,2.6,5.5.4,1,.9,1.9,1.1,2.6,0,.2-.1.6-.1.8.1,1.6.9,3.6,1.2,5.4.2,1,.4,1.5.5,2.1a24.367,24.367,0,0,1,.1,2.7,52.115,52.115,0,0,1-.5,6.9c1.1.4,2.9.1,3.7.7a70.485,70.485,0,0,0,1.9-7.3c1.5-3.1,2.6-6.4,3.8-9.4.4-1,1-2,1.4-3a13.64,13.64,0,0,1,.4-1.7,44.948,44.948,0,0,1,2.4-4.2c.8-1.3,1.3-2.8,2-4.2,1.6-3,2.8-4.9,4.4-7.7.6-1.1,2.1-2.8,2.1-3.8.1-.8-.6-1.8-1-2.7-.3-.9-.5-2.1-1.3-2.4a7.433,7.433,0,0,0-2.4,3.1,7.168,7.168,0,0,0-2.6,3.7c-2.6,3-4.3,7-6.4,10.5-.4.7-.4,1.9-1.4,2,.1-3,2.3-5.4,3.6-7.9.5-1,.5-2,1.4-2.4,1.9-4.2,4.8-7.4,7.5-10.8-.1-.5-.6-.7-.6-1.3-.5.2-.6.7-1.2.8-3.2,5-6.8,9.6-9.9,14.8-.1,1.5-1,2.5-1.4,3.5-.3.6-.2,1.5-1.1,1.4a36.535,36.535,0,0,1,1.2-8.7c.2-.8.5-1.4.6-2.1a10.868,10.868,0,0,1-.1-1.8,9.623,9.623,0,0,1,.7-1.8,13.664,13.664,0,0,0,.2-1.9c.1-.4.5-.8.6-1.2.5-1.5.4-3.3.8-4.9.4-1.5,1.2-3,1.7-4.4.5-1.7.7-3.5,1.2-5,.2-.7.9-1.3,1-1.9.1-.9-.7-1.8-.6-2.6-.9.4-.8,1.5-1,2.3a15.959,15.959,0,0,1-1,2.3c-.3.9-.2,2-.5,3.1-.2.5-.6.8-.7,1.3-.3,1.1-.1,2.1-.4,3.2-.2.8-.7,1.6-1,2.5-.2.7-.3,1.5-.5,2.3-.2.7-.6,1.4-.7,2-.1.2.2.6.1.8a23.346,23.346,0,0,1-.7,2.5c-.2.9-.4,1.7-.6,2.6,0,.5.6.4.5.9a62.692,62.692,0,0,1-1.3,6.3c-.5,2.1-.5,3.9-1,5.8-.1.5-.6,1-.7,1.5-.6,2.3-.2,4.9-.6,7.1-.1.7-.6,1.6-.7,2.6-.1,1.3.5,3.4-1.2,3.3-.1-3.3-.7-6.2-.8-9.2-.3-.3-.6.6-1.1.1-.3-3.1-1.8-5.7-3-8.4a16.694,16.694,0,0,0-.5-1.8c-.1-.3-.5-.5-.6-.7-.5-1-1.1-2.2-1.5-3.2-.7-1.7-1-3.6-1.7-5.5a5.973,5.973,0,0,1-.6-1.1c-1.4-4.9-1.6-10.4-2.3-16a3.182,3.182,0,0,1-.1-3c.8.5.8,1.8,1,2.7.1,1,.4,2,.5,3,.4,3.4.4,7.1,1.2,10.2a12.377,12.377,0,0,0,1.2,3.7c0,.3-.2.4-.1.7.8,1,.9,2.3,1.3,3.5.4,1,1.4,2.1,1.8,3.2.1.3,0,.6.1.8s.4.3.5.6c.7,1.6,1,3.1,1.8,4.6a25.813,25.813,0,0,1,1.8,4.6c-.1-2.8-1.2-4.7-1.4-7.5-1-.9-.8-2.3-1.1-3.6-.1-.5-.5-.9-.6-1.3-.3-1-.4-1.6-.6-2.3a43.859,43.859,0,0,1-1.4-10,32.707,32.707,0,0,0-.4-4.4,20.849,20.849,0,0,1-.7-3.6,84.219,84.219,0,0,0-.8-10.1c-.3-1.8-.6-4.9-1-6.4-.9-3.9-.8-8-1.4-11.8-.1-.8-.6-1.6-.7-2.4-.5-2.9-.8-5.8-2.1-8.2V218C313.3,218.6,306.5,202.3,305.9,201.4Zm-34.4,8.5c-.4.9-1.1,1.7-1.4,2.6a10.929,10.929,0,0,1-.5,1.7,25.65,25.65,0,0,1-4.4,6.2c-.7,1.9-2,3-3.1,4.4a56.32,56.32,0,0,1-3.8,4.5c-.7.8-1.1,1.5-1.8,2.4-.9,1.1-2.1,1.9-3,3.1a18.756,18.756,0,0,1-1.2,1.8c-.4.5-1.1,1-1.5,1.5-.6.8-.8,1.8-1.3,2.6-.3.5-1,.8-1.3,1.3-.6.9-.9,2.3-1.5,3.3-.3.5-.7.7-1,1.1a39.882,39.882,0,0,0-1.9,4.6c-1.7,4.5-3.4,8.7-4.3,13.8a22.352,22.352,0,0,0,0,7.3,55.854,55.854,0,0,0,3.3,12c.2.3.7.3.7.7.2.7-.1,1.9.8,1.8.7-.8-.5-1.7-.8-2.3-.1-2.8-1.5-4.3-1.8-6.7,0-.4.1-.8.1-1.3a25.579,25.579,0,0,0-.5-2.7,36.313,36.313,0,0,1,.7-9.8c.2-.8.2-1.7.4-2.5a51.235,51.235,0,0,1,2.5-6.5A28.878,28.878,0,0,1,248,249c2.6-4.1,4.6-8.5,7.4-12.3.4,0,.5-.3.8-.4.9-2.3,2.4-3.8,3.8-5.5,1.1-1.3,2-2.9,3.2-3.8,1.1-1.6,1.8-3.2,3-4.9,1.1-1.5,1.7-3,2.7-4.3.1-.5-.2-.7-.1-1.2a5.009,5.009,0,0,1,.8-.7c1.2-3.2,2.7-6.2,3.5-9.9A14.592,14.592,0,0,0,271.5,209.9Zm-36.4,7.5c-3.7.1-6.3,1-8.4,3.2-.7,1.4-1.7,2.4-2.3,3.7-.9,2-.3,4.6-1.3,6.8.8,1.1.5,3.3.7,5.1.4,1.4.8,2.8,1.1,4.3.4,1.9.5,4.4,1,6.2,1,3.9,2.9,7.6,3.5,11.7.5,1.3,1.3,2.4,1.5,3.9,0,.3.5.1.5.5a43.036,43.036,0,0,0,3.5,7.5v.8a8.03,8.03,0,0,1,1.5,2.9c.1.4,0,.9.1,1.3.2.5.7.8,1,1.3.2.4.2.9.4,1.3.6,1.3,1.7,1.9,1.5,3.6.9,1.1,1.1,2.9,2.1,3.8.3.3-.2,1.4.5,1.3,1.4-.5-.5-1.3-.1-2.6-6.1-11.5-4.4-31.5,1.3-42.9-.1-2.5,1.6-3.2,1.8-5.4a5.566,5.566,0,0,0,1.5-2.7c.7-1.5,1.5-3.1,2.3-4.5,1.2-2.4,3.1-4.7,4.2-7.1C247.4,219.7,241.8,217.2,235.1,217.4Zm34.8.6c-.4,1.7-1.6,3.3-1.9,4.8a29.241,29.241,0,0,0,14.4.2c1.2-.3,2.5-.3,3.3-1.1C279.6,221.9,274.9,219.6,269.9,218ZM416,243a11.868,11.868,0,0,0-4.5-3c-.2-.1-.2-.5-.4-.6-4.9-1-11-2-15.8-1.2-2.9.5-6.2.4-8.9.9-2.7.6-5.6,2-8.1,2.5-3.1,1.8-6.1,3.6-9.3,5.2-.4,1.1-1.7,1.2-2.6,1.8-.4.3-.6.7-1,.9a26.314,26.314,0,0,1-4.9,3.3c-1.1,2.4-4,3.6-6,5.2-.5.4-1.4,1.4-1.4,1.9,0,.3.4.7.5,1.2a10.225,10.225,0,0,0,1.7,3.8c2.1-2,3.3-4.8,6.1-6.2,1.1-1.3,2.8-2.1,3.7-3.6.9.1.9-.6,1.8-.6a20.218,20.218,0,0,1,5.8-3.2c5.8-2.2,11.7-5.2,18.6-5.5a19.79,19.79,0,0,1,8.1-.2c.4.1.8.4,1.2.5,2.8.4,5.7.2,6.9,1.5.7-.1,1,.2,1.7.1a1.576,1.576,0,0,1,.7.7c2.2.1,2.8,1.8,4.6,2.3.3.5.4,1,1.1,1.1A13.166,13.166,0,0,0,416,243Zm-265.9,1.5a37.5,37.5,0,0,0-7.5-.1c-1.5.2-3.2.6-4.9,1-1.7.3-3.5.3-5,.7-.4.1-.9.5-1.3.6-1,.2-2,.1-3,.2-4.9.9-9.4,3.5-15.2,2.6-1.4-.2-2.7-1-4.3-1,.2.7,1.1.9,1.7,1.2a33.617,33.617,0,0,0,10,3.1c1,.1,1.9-.2,2.9-.1.7.1,1.3.5,2,.6,1.3.2,2.7-.1,4,0,.6,0,1.1.3,1.7.2.6,0,1.1-.4,1.7-.5s1.3,0,2-.1c.9-.1,1.9-.5,2.9-.7a24.385,24.385,0,0,0,3.1-.6c.5-.2.8-.6,1.3-.7,1.4-.4,2.9-.3,4.3-.7a14.168,14.168,0,0,1,1.8-.8c1.2-.3,2.5-.4,3.6-.7s2.1-.8,3.2-1.2c2.2-.9,4.5-1.2,6.4-2.1Q155.5,244.95,150.1,244.5Zm265.1,11.7c-.6,1.7-1,3.5-1.5,5.2a27.508,27.508,0,0,0-1.4,3c-.4,1.1-.6,2.5-1,3.7-.6,2.2-.9,4.4-1.3,6.3-.5,2.5-.2,5.3-.2,7.9a26.913,26.913,0,0,0,.6,6.3c.3,1.2,1,2.3,1.4,3.6.3.9.3,2,1.2,2.5a5.223,5.223,0,0,0,.7,2c.3.4.5-.7.8-.2.1.5-.6.2-.5.8.7.7.7,2.1,1.7,2.5a38.956,38.956,0,0,1,.6-6.5c.6-2.7.9-5.5,1.4-8.1.3-1.2.9-2.4,1.1-3.6.1-.4,0-.9.1-1.3.2-.6.8-1.3.8-1.8.5-5,2-10.7,2.5-16a38.5,38.5,0,0,0-1.1-10.8,15.127,15.127,0,0,0-3.5-4.4A38.069,38.069,0,0,1,415.2,256.2ZM333.9,279c1-1.3,1.5-3,2.9-3.9,1.5-3.7,4.7-5.7,6.3-9.3.6-.4,1.1-.7,1.3-1.4a51.905,51.905,0,0,1-4.2-10.2h-.4C337.6,262.4,334.6,269.9,333.9,279Zm14.5-3.2c-.7,1.3-1.8,2.5-2.5,3.8-.6,1-.9,2.2-1.5,3.2-.3.5-.7.9-1,1.4s-.4,1.2-.7,1.7c-.4.7-1.1,1.3-1.5,2-1.3,2.5-2.3,5.7-3.8,7.9-.1,2.5-2,3.3-2.1,5.7a55,55,0,0,0-4.3,13.7c2.7.6,5.6.6,8.3,1.1.8.1,1.5.7,2.3.8.5.1,1-.1,1.5,0,.7.1,1.5.5,2.3.7a43.653,43.653,0,0,0,6.3,1.1c5.8,1.3,11.5,2.5,17.3,3.7,2,1.1,4.7,1.4,6.7,2.6,2.6.3,4.4,2,6.7,2.3a6.255,6.255,0,0,0-3.1-1.7c-4-2.5-7-6-10.4-9.2a8.7,8.7,0,0,0-1.5-2.1,18.478,18.478,0,0,1-1.4-1.4,59.047,59.047,0,0,1-4.4-5.8,65.393,65.393,0,0,0-3.5-6.4c.1-1.1-.5-1.4-.8-2-.7-1.2-1.3-2.5-1.9-3.7-.1-.2,0-.6-.1-.8a20.128,20.128,0,0,1-1.4-2.5c-.5-1.4-.6-3.2-1.2-4.6-.2-.5-.5-.7-.6-1.2-.3-1.1-.1-2.3-.4-3.6a18.509,18.509,0,0,0-1.7-4,30.021,30.021,0,0,0-1.1-2.9C348.5,275.5,348.5,275.7,348.4,275.8Zm-55.7,37.3a11.1,11.1,0,0,0-2.7-1.7c-.4-.2-.5-.7-1-.9-.8-.5-1.9-.8-2.7-1.3-.3-.2-.5-.6-.8-.8-.4-.3-1-.4-1.5-.7s-.9-.8-1.3-1c-.9-.4-1.5-.4-2.3-.7-1.6-.7-2.5-1.5-4.4-1.5a5.716,5.716,0,0,1-.8-.7c-3.7-.6-6.6-2.5-10.7-2.4-.3,0-.3-.4-.6-.4-4.5-.5-8.5-1.1-12.6-.2.4,1.6,1.6,2.3,2.9,3.1.8,2,2.9,2.7,3.8,4.6,1.4.8,2.3,2.1,3.6,3,.2.3.3.5.5.8,1.8,1,3,2.7,4.5,4a24.73,24.73,0,0,1,4.3-1c2-.3,4.3-.5,6.4-.7l5.4-.6c1.7-.1,3.4.1,5,0a8.33,8.33,0,0,0,1.5-.4c1.9,0,3.8.6,5.6,0C294,313.4,293.6,313,292.7,313.1Zm-16.3,11.6c-.4,0-.7-.2-1.1-.2-.1-.5-.5-.7-.7-1.1-.4.1-.4-.1-.7-.1-2.6-2.4-6.1-3.7-8.2-6.5-2.1-.9-3-3.1-5-4-2.1-2.4-4.8-4.4-6.8-6.9-.3-.2-.6-.2-.8-.5,0-.3-.2-.3-.1-.6-1.6-.9-2.3-2.7-3.5-3.9-.5,0-.6.3-.8.5,1.2,1.7,2.3,3.5,4.3,4.4,2,3.2,5.1,5.3,7.4,8.2,4.2,2.8,7.7,6.3,11.4,9.5,2.6.6,3.6,2.8,6.2,3.3.6.6,1.3,1,1.9,1.5.3-.3.8-.3.8-.8a2.051,2.051,0,0,0-2.1-.7C278.2,325.7,276.6,325.9,276.4,324.7ZM65,301.6a44.77,44.77,0,0,0,.6,6.4c-1.7.8-2.6-1.2-3.9-1.5-.2.7.5,1.6.4,2.7.9,1.8,1.2,4.1,2.7,5.2a12.715,12.715,0,0,0,4.4,4.8c-1.1-5,1.1-11.1-.2-16.2-.6.8-.5,2.5-1.7,2.3-1.3-.2-1-2.9-2-3.7Zm90.1,7.1c-1.4-.2-2.1-1.3-3.7-1.3a38.827,38.827,0,0,0-21.1-4.9,37.539,37.539,0,0,0-14.4,3.9,2.94,2.94,0,0,0-1.5,1.4,28.291,28.291,0,0,1,5.6-1.9,22.15,22.15,0,0,1,6.3,0c1.5.1,2.9-.1,4.4,0,2.6.2,5,1.3,7.4,1.3,1,.8,2.4.6,3.7.8.5.1,1.1.5,1.7.6,2.2.4,4.4.9,6.5,1.3.7.1,1.6,0,2.4.1,2.4.4,6.2,1.5,8.9.1-1.8-.3-3.6-.9-5.6-.7C155.5,309.2,155.3,308.9,155.1,308.7Zm-44,1.9c-.6,1.4-2.2,2.2-3.3,3.5-.6.7-1.3,1.6-1.9,2.4a19.5,19.5,0,0,0-1.8,2.5,5.019,5.019,0,0,0-.2,1.2c-.2.4-.7.7-1,1.2-.5,1.1-.8,2.5-1.4,3.8a30.437,30.437,0,0,0-1.7,3.7c-.2.8-.2,1.8-.4,2.7-.2.8-.6,1.6-.8,2.4-.5,2.3-.8,4.8-1.2,7-.1.4-.3.9-.4,1.3a21.247,21.247,0,0,0,.2,6.7c.1.9,0,2,.1,2.9a34.923,34.923,0,0,0,2.4,9c.6,3.8,3.2,5.7,4.3,9,1.3.8,2,2.3,3,3.5,1.2,1.3,2.8,2.2,3.5,3.9a9.487,9.487,0,0,1,3,2.1c.5-.1.7.1,1.1.1a.5.5,0,0,0,.2.6,5.825,5.825,0,0,1,1.8,1.1c.4.3,1.6.8,1.7,1.2.3,2-4.4,0-4.9-.2-1.2-.5-2-1-2.9-1.4-.3-.2-.7-.1-1.1-.2-1.1-.5-1.9-1.6-2.7-2-.4-.2-.8-.2-1.2-.4-.9-.5-1.5-1.7-2.5-1.7-3.6-3.2-7.5-6-10.7-9.5-1.1-1.2-1.7-2.7-2.7-3.9-.5-.6-1-1-1.4-1.5a55.831,55.831,0,0,1-3.2-5.2c3-4.7-1.2-10.1-.7-15.1-1.1.4-1.9,3.4-2.1,5.2,0,.3.2.7.1,1-.4,1.6-2.2,0-2-1.3-1.1-1.5-2-3.3-3.9-3.9-.7,1.9-.1,4.8.4,6.7-2,2.3-4-1.1-6.7-1.1.1.8.9.7,1.4,1.2.9.8,1.4,2.2,2.4,3.1.5.5,1.3.8,1.7,1.3.2.3.1.6.4.8.7.7,1.7,1,2,1.9,1.8.8,4.1,2.3,6.5,1.2,2.2,3.5,4.2,7.1,7.3,9.8.2.2.1.6.2.7.6.2.9.8,1.4,1.1-.1.4.2.5.2.7,2.2,1.5,3.7,4,6,5.6,1,.7,2.2,1.2,3.2,2a33.573,33.573,0,0,0,2.9,2.4,44.158,44.158,0,0,0,5.8,2.6c3.4,1.3,6.7,2.9,10.8,2.3-1.7-2.1-4.3-3.4-6.1-5.1-.3-.3-.8-.5-1.1-.8-.9-1-1.8-2.5-2.6-3.3a10.168,10.168,0,0,1-2.7-4.3c-.2-.3-.6-.4-.7-.7a88.685,88.685,0,0,1-4.5-13.2,15.03,15.03,0,0,1-.2-2,52.278,52.278,0,0,1-1.2-5.4,28.252,28.252,0,0,1,.2-2.9c.2-4.4-.2-10,1.2-13.8a3.145,3.145,0,0,1-.1-1.7,23.152,23.152,0,0,0,1.8-4.6c.6-1.8,1.9-3.2,2.7-4.8.2-.4.4-.9.6-1.3a42.484,42.484,0,0,1,3.5-3.9,18.188,18.188,0,0,0,1.5-2.3,16,16,0,0,1,6.9-5.7c.2-.6,1.9-.9,1.3-1.4C117.9,306.7,114.3,308.8,111.1,310.6Zm159.2,8.1c.8,1.6,3,2.3,4.4,3.3.4.3.5.7.8.7,1.5.3,3.2-1.7,4.2-2.3,1.7-1.1,4-1.7,5.2-2.9C279.9,317.5,275.4,318.4,270.3,318.7Zm-10.8-.3c-1.5.3-3.2,1.1-4.9,1.4-3.2.6-6.7.9-8.1,2.5-3.1.1-5.1,1.4-8,2.3-.8.2-2,.4-3.2.7s-2.2,1-3.2.8c-1.1-.2-1.7-1.6-2.4-2.1a10.492,10.492,0,0,0-4.9-1.9c-3.9-.5-7.3.4-11.3.2-1.3-.1-2.8-.6-4,.1a7.148,7.148,0,0,1,2.9,1.8,19.017,19.017,0,0,0,9,1.5c-.3,2.5-2.7,2.5-4.5,3.6a11.452,11.452,0,0,0-5.6,6.9,19.4,19.4,0,0,0,11-.5c.6-.3.8-1.1,1.5-1.3.3-.1,1,.3,1.2.7a10.624,10.624,0,0,0-2.9,5.7c-.5,2.4.2,4.3.4,6.5.8-.4.7-1.1,1.2-1.7,1.5-1.9,4.1-2.5,5.6-4.3a13.442,13.442,0,0,0,2.7-4c1.3-3.5-.5-5.6,0-8.9,7.4-2.8,15.3-5.4,23.1-7.6,3-.8,6.3-1,9.2-2.3C262.8,317.7,261.1,318.1,259.5,318.4Zm57.2-.2c-1,0-2,.2-3.1.2-.4,0-.7-.2-1.1-.2a26.415,26.415,0,0,0-2.9.2c-1.5.2-3.4,1.3-5.1,1.5a12.317,12.317,0,0,0-6,2.7c0,.6-.6.7-.7,1.3-1.9,1-3.1,2.7-5.2,3.4-.7,1.2-2.6,1.1-3.1,2.5a16.074,16.074,0,0,0,3.3,1.2c.3.1.5.4.8.6a14.909,14.909,0,0,1,1.8.4c.5.2.8.6,1.2.7.3.1.7-.1,1.1,0,.6.2,1.3.8,2.3.5,5.3,2,12.2,2.7,18.5,2.7.6-3.1,1.2-5.8,1.7-8.7,1.5-2.2,1.9-5.5,3-8.1C321.1,318.9,318.9,318.3,316.7,318.2Zm-34.6,5.6a4.483,4.483,0,0,0-2.7,1.5c.8.1,1.6,1.3,2.6,1.2.7-.1,2.3-1.6,3.1-2.1a24.28,24.28,0,0,1,3.1-2.1,54.014,54.014,0,0,1,4.9-3c.3-.2,1.6-.2,1.2-1C290,320,285.5,321.4,282.1,323.8Zm42.5-4.4a37.5,37.5,0,0,0-4.2,15.2,16.95,16.95,0,0,0-1.1,3.6c-.3,1-.9,2.5-1.1,3.3-.6,3.2-.7,6-1.1,9.2-.2,1.4-.4,2.9-.5,4.4-.1,1.3-.5,2.5-.6,3.7-.1,1.7.1,3.5-.1,5.2-.1.5-.4,1-.5,1.5-.4,2.3-.4,4.6-.6,6.9-.3,2.7-1.3,5.3-1.3,7.5a7,7,0,0,1,0,2.5c-.2.5.5,0,.4.5.3,1.2-.4,2.7-.5,3.9,0,.5.2.9.2,1.4.4,4.3.3,9.4,1.3,13.2.5,3.5.6,7.1,1.7,10,.7,1.9,1,4.3,1.5,6a58.408,58.408,0,0,0,3.1,7.5c.3.7.4,1.4.7,2s.9,1.1,1.2,1.7c.6,1.1.9,2.3,1.4,3.2.5,1,1.2,1.7,1.2,3,.7-.2,1.9,0,2.4-.5a15.673,15.673,0,0,0-2-3c-.1-1.6-1-2.4-1.2-3.9-1-1.1-1.5-3-2-4.3-.4-.8-.5-1.6-.8-2-.2-.2-.1-.3-.2-.6a20.338,20.338,0,0,1-2.4-11.3c.2-.5-.3-.2-.2-.6.3-4.5,2.3-7.4,3.7-10.8a6.921,6.921,0,0,0,1.7-2.6c.6-.2.8-.9,1.3-1.2,3.4-4.7,8.1-8.1,12.5-11.8,3.7-1.4,7.7-3.6,12.1-3.5a5.734,5.734,0,0,1-.6,3.1,3.467,3.467,0,0,0,.8,1.1c0,.5.4.6.2,1.2a11.074,11.074,0,0,0,3,3.1c.6.4,1.2.9,1.7,1.2,1.8,1,4.5.9,6.8,1.5.1,0,.2.3.4.4.3.1.7-.1.8,0,.8.4,1.3,1.1,2.1,1.3.2-2.6-2-4-3.2-5.6-1-.6-2.4-.8-2.6-2.1,3.2-.5,4.6,2.8,6.3,4.6,2.5.3,4.4,1.5,6.7,1.8,1.2.1,1.9.4,2.7.5a41.541,41.541,0,0,0,7,.1c1.7,0,3.5.4,5.2.5a39.342,39.342,0,0,1,4.9.2c.5.1.9.7,1.5.5-.2-1.1-1.3-1.8-2.1-2.5a16.378,16.378,0,0,0-2.5-2.1c-1-.6-2.3-.6-3-1.7.9-.8,2.1.2,3,.6,1,.5,2,1.1,2.9,1.5.4.8,1.3,1.2,1.9,1.8.4,1,1.3,1.5,1.8,2.5a7.069,7.069,0,0,1,3.2,2.7c.5,0,.8.3,1.3.2a2.142,2.142,0,0,1,.8-1.9c.8.6,1.5,1.2,2.3,1.8.2-1.6-1.1-2.7-1.9-3.7.8-.9,2.4.6,3.3-.1a1.541,1.541,0,0,0-1.5-.8c-.1-.5-.7-.5-.8-1.1-2.6-1.2-5-3-7.7-3.6-.1-.6.4-.6.5-1-.5,0-.7.3-1,.5-3.4-.1-7.6.1-10.4-1.2a1.794,1.794,0,0,1,.5-.7c1,0,1.7.5,2.6.1,2,.8,7,1.1,8.7-.2a2.913,2.913,0,0,0-1.8-1.2c.1-.4-.1-.5-.2-.7-2.5-1.5-5.8-2.2-8.1-3.9-.4,0-1,.4-1.1-.1-.1-.8.8-.8,1.2-.8,2-.2,4.9.4,6.9-.2,1-.8,3.2-.4,3.7-1.7-1.2-1-3.4-1.6-4.9-2.4a6.607,6.607,0,0,0-1.5-.5c-.4-.1-.7-.5-1-.6-.5-.1-1.1,0-1.5-.1-.6-.1-1.1-.6-1.8-.8-.4-.1-1,0-1.4-.1-2.3-.5-4.5-1.6-7.1-1.7-1.1,0-2.2-.6-3.2-.6-2-.1-5.8.3-7.1,1.2-.7.5-.5,1.1-1.1,1.9-.2.3-.8.6-1.2,1-1.3,1.2-3,2.6-4.8,2.9.5-1.3,2-1.4,3-2.1a7.7,7.7,0,0,0,3.3-6.2c-2.1.9-4.5,2.1-6.9,2.1a8.682,8.682,0,0,0-3.9,1c-.4.3-.9,1.1-1.5,1.7-.5.4-1.1.6-1.4,1-1.1,1.2-.9,2.8-1.7,4.4-1.9.2-3.9.1-5.6.7a7.46,7.46,0,0,0-1.2.7,36.943,36.943,0,0,0-4.2,1.7c-1.3.7-2.8,1.3-3.8,2-.4.3-.6.8-1,1.1s-.9.5-1.3.8c-1,.8-1.9,1.8-2.9,2.6l-.8.8a40.371,40.371,0,0,0-7,9,17.224,17.224,0,0,0-4.5,10.8,1.626,1.626,0,0,1-1.1.5c-1.2-2.3-.8-5.7-1.3-8.7-.2-1.6,0-3.2-.1-4.9-.4-5.2.2-10.7.4-16.2.1-2.7.6-5.3.8-7.9.1-1.5,0-3,.1-4.4.2-2.5,1.4-4.8.7-7.3a53.574,53.574,0,0,0,1-7.3,133.35,133.35,0,0,1,7.6-31.5A4.235,4.235,0,0,0,324.6,319.4Zm-110.3,6.8c-.3,0,.1-.5-.4-.4-.5,0-1.2-.5-1.5-.4-1.9.6-4.4,1.2-6.3,1.7a107.091,107.091,0,0,0-12.7,4.5c-1.2.5-2.3,1.3-3.5,1.8-1.9.9-4,1.3-6,2.1-4.4,1.8-9.4,3.6-15,3.1a19.4,19.4,0,0,0,7.1,3.3,17.223,17.223,0,0,0,6.4.1,4.234,4.234,0,0,1,2.5.2c-.4.9-1.6.9-2,1.8-5.5,2.4-9,7-12.1,11.8,4.7-.4,11.2-.5,14.8-3.2.8.1,1.2-1,2-.5-.9,1.5-2.8,2-2.7,4.5-.3.1-.8.9-1,1.3-1.2,2.8-1.2,6-1.4,9.8.6.4-.1,2.2.5,2.6a21.11,21.11,0,0,1,8.3-8.7c2.3-1.4,4.8-3.1,7.1-4.3,2.1-1.1,4.6-1.9,6.9-2.9,3.4-1.5,7.1-2.3,9.8-4.5,2.4-.9,3.9-2.9,5.6-4.5-1-2.6.2-5.6.7-7.7-2-.3-4.7.3-6.7.5-1.3-.9-4.5-.1-4.9-1.7-.1-.4.5-1.5.8-2.3a18.558,18.558,0,0,1,3.3-4.8c1.2-1.2,3.7-1.7,4.8-2.6A23.206,23.206,0,0,1,214.3,326.2Zm59.1-.1a4.44,4.44,0,0,1-1.1.8,18.46,18.46,0,0,0-4.4,2.3c-.4.3-.7.8-1.1,1.1-.8.5-1.8.9-2.6,1.4-2.1,1.5-4,2.9-6.1,4.3q-2.25,1.5-4.2,3c-1.4,1-2.9,1.8-4.3,2.9a2.158,2.158,0,0,1-1.8,1.5c-.1.5-.6.5-.7.8-2.3,1.2-3.8,3.2-6.1,4.4-1.2,1.9-3.2,2.7-4.9,3.9-2.1,1.6-4.1,3.5-6.1,5.2a77.86,77.86,0,0,1-6.5,4.8,21.1,21.1,0,0,1-2.3,1.9c-.9.5-2,.7-3,1.3-.9.6-1.7,1.5-2.6,2-1.7,1-3.6,1.6-5.4,2.6-.6.3-1.1,1-1.7,1.3-3.6,2.1-7.2,3.7-10.7,5.7-2.8.9-5.2,2.7-8,3.7-.9.3-2,.3-2.7,1.2a9.228,9.228,0,0,0,5-1.1c4.6-2.1,8.6-4.8,13.3-6.8,6.3-3.8,12.6-7.2,18.3-11.4.7-.5,1.6-.8,2.3-1.3,2.6-1.9,4.9-4.2,7.5-6.1,2.6-2,4.9-4.3,7.7-6,2.3-2.4,5.1-4.1,7.7-6.2.8-.6,1.4-1.4,2.1-2,2.3-1.7,4.5-3.3,6.8-4.9.8-.5,1.7-1.5,2.7-1.1a15.18,15.18,0,0,1-3.1,3.1c-2.1,2-4,4.1-6.1,6a38.588,38.588,0,0,0-4.9,5,112.977,112.977,0,0,0-10,14.8c-.4,2.1-1.5,3.5-2.5,5.1-1.7.3-3,.9-4.5,1.3-.5.7-1.5.9-1.9,1.7-1.4.7-2.2,1.9-3.3,3-.7.7-1.6,1.2-2.3,1.9-.3.3-.5.9-.8,1.2-.4.3-1.1.3-1.1,1,1,.1,1.4-.5,2-.7,2,0,3.5-1.5,5.5-1.9-.4,2.6-1.8,4.7-1.5,7.5,1.7.4,2.2-1.3,3.6-1.7a10.916,10.916,0,0,1,1.3-1.7c0-.9-.5-2.2.2-2.5,1.2.8,1,3.4,1.8,4.9,1.3,0,1.1,2.2,2.1,2.1a26.162,26.162,0,0,1,.7-5.1,39.609,39.609,0,0,0,1.3-4.6c.3-2.3-2-4.1-1.5-6.3.4-2.1,1.8-3,2.3-5.2,2.6-3.2,4.1-7.1,6.7-10.4,2.5-3.2,5.3-6.1,7.9-9.2,1-.4,1.4-1.4,2.5-1.7.9-1.4,2.1-2.4,3.1-3.7a83.03,83.03,0,0,0,7.3-6c2.5-2.1,5.3-3.7,7.6-6a2.245,2.245,0,0,0,1.4-.6C274.4,326.3,273.9,326.2,273.4,326.1Zm39,10.8c-.3,0-.6.2-1,.2-1,0-2-.9-3.2-.5-.6-.6-1.3-.4-2.3-.5-1.4-.2-3-1-4.5-1.2a7.193,7.193,0,0,1-2.4-.5c-.9-.3-2.1-.4-3-.6a8.228,8.228,0,0,1-2.1-1.1,7.844,7.844,0,0,0-1.4-.2c-1.1-.4-3.7-2.4-3.8-.5,3.2,1.3,6.3,2.7,10.5,3,1,1.2,3.8.7,4.9,1.8a.574.574,0,0,1,.7-.2c3.9,1.6,8.3,1.9,12.7,1.9,0-.7.8-1.1.5-1.7C316.3,337.9,314.2,337,312.4,336.9ZM48.2,360.7a3.588,3.588,0,0,1,1.4,1c-.3,1.4-2.1,1.3-3.3,1.2-3.2-.4-6.9-1.8-10.1-.7a76.672,76.672,0,0,0,5.8,5.6c1,.9,2.6,1.1,3.6,2,.4-.2,1.1-.2,1.2.2-.2,1.3-1.4,1.5-2.3,2.1-2.2-.1-3.3.8-5,1.2-1.3,1.3-3.7,2.1-3.9,4,1.8-.1,3.5-.4,5.2-.4.6,0,1.1.4,1.8.5a22.942,22.942,0,0,1,3.2.6c.9.2,1.9.8,3,1.1a21.535,21.535,0,0,1,4.5,1.5c3.7.6,6.7,2.1,10.2,1.9a5.359,5.359,0,0,1,1.1.5c1-.5,2.4.1,3.7,0,.9-.8,2.4-1,3.1-2-1.4-.2-1.9-1.2-3.2-1.4-.4-.9-1.6-1.3-2.1-1.9-.1-.1-.1-.5-.2-.6-.5-.5-1.2-.4-1.2-1.2,0-1,1.1-1,1.9-1.3a11.032,11.032,0,0,1,5.2-1.1c-1-1.4-1.4-3.3-2.5-4.5,0-.4-.2-.7-.1-1.2-.3-.5-.7-.9-1-1.4-3-1.7-5.5-3.8-9.3-4.6-.2-.1,0-.6-.4-.5a4.735,4.735,0,0,1-2.4-1c-.5-.2-1.1-.4-1.7-.6-2.2-1-3.8-1.9-5.7-2.7a23.791,23.791,0,0,1-2.7-1.2c-1.3-.8-2.3-2-3.5-2.9C43.4,356.6,46.5,357.9,48.2,360.7Zm263.3,7.6c-.8.8-1.8,1.4-2.6,2.3-.7.8-1.2,1.8-2,2.6a29.489,29.489,0,0,1-4.3,3c-1.8,1.1-3.9,2.7-5.5,3.8-1.9,1.4-4.5,2.1-6.5,3.6-.5.3-.8.9-1.2,1.2-.1.1-.4.1-.5.1-.4.2-.8.7-1.2.8a44.7,44.7,0,0,0-6.9,3.5c12.5-.3,23.7-4,31.9-9.6.8-4.4,1.1-10,1.7-14.2,0-.1,0-.1-.1-.1C313.1,366.1,312.4,367.4,311.5,368.3ZM74.6,373.9c.4.3,1.8.6,1.8,1.1s-.8.8-1.7.8a8.3,8.3,0,0,1-2-.5c-2.4-.3-5-.6-5.8.5a30.7,30.7,0,0,0,5.8,4.2c-.1.4.2.4.1.7.5,0,1,0,1.2.2.1,1.1-1,.8-1.7,1.1s-1.3.9-2,.8c-1.3,1.2-3.2,2.3-3.8,3.8,1.9-.3,3.3,0,5.1-.2.5,0,.6.4,1.1.5a12.1,12.1,0,0,1,3.3,0c2.4-.1,5.9-1.4,7.1-2.7.8-.9.9-2.3,2-2.4.6-.1.9.6,1.4.7,1.5.4,3,.3,4.8.6a57.238,57.238,0,0,0,11.8,2.4c5.8.5,11.3,1.8,16.9,1.1.7-.1,1.5,0,2.3-.1.5-.1,1-.4,1.5-.5,1.2-.2,2.3.2,3.5-.1-.5-1-2.7-.4-3.5-.1-2.7-.3-6,.2-9,0a48.391,48.391,0,0,1-7.4-1.1c-2.3.3-4.2-.7-6.5-.7-.5-.7-1.5-.2-2.3-.2-.4,0-.9-.4-1.4-.5-1.5-.3-3.2-.3-4.6-.6-.6-.1-1.2-.5-1.8-.6a50.706,50.706,0,0,1-5-.9c.1-.5.4-.7.4-1.2-.5-2-1.9-2.9-2.6-4.6-.5-.1-.7-.6-1.3-.6-2.3-3.3-7.5-3.8-11-6.1A15.269,15.269,0,0,0,74.6,373.9Zm148.9,6c-.8,2.1-2.7,3.4-4,5.1-1.3,1.6-2.3,3.7-3.7,5.8-1.4,2.2-3.4,4.2-3.8,6.9a21.278,21.278,0,0,0-1.8,5.2,26.567,26.567,0,0,0,.6,7.5c3.7-3.2,6.3-7.5,8.3-12.4.9.7-.2,1.9-.2,3-.1,1.4.3,3-.4,4.2.5.9-.1,2.1.2,2.6,1.3-.3,2.1-1.2,3.1-2.3a19.887,19.887,0,0,0,4.3-6.1c3.1-4.2,5.9-9.5,5.5-16.8-1.9,1.4-3.3,3.1-6.3,3.3-.5-2.9.6-5.7,1.2-7.7A29.106,29.106,0,0,1,223.5,379.9ZM177,392.6c-1.4.7-.9,2.9-1.2,4.6a34.686,34.686,0,0,1-1.5,5.6c-.5,1.2-.5,2-1.6,2.4-.5-.2-.3-1.1-.8-1.2a1.625,1.625,0,0,0,1,2.3c1.6-.9,1.9-3.1,3.9-3.6.5,1.2,2,1.4,2.6,2.5,1.2-1,.3-4,2.3-4.2a32.264,32.264,0,0,0,2.9,2.5c1.3-.4.5-2.3,1.9-2.7.9-.3,1.5.1,2.4.2.1-2.2-1.6-3.7-2.1-5.6-2.3.8-3.4-1-5.1-1.4-1.1.8-1.4,2.3-2.9,2.7C177.3,396.1,178.2,393.3,177,392.6ZM296.6,411a111.7,111.7,0,0,1-14,.4c-.7.6-2.8-.2-3.2.6,2.8.1,5.5.9,8.3,1.2,3.5.3,6.3-.5,9.5-.5,2,0,3.8.2,5.6.1C301.3,411.6,298.6,411.7,296.6,411Z" transform="translate(437.236 0.104) rotate(90)"/></svg>