<svg data-name="Layer 1" xmlns="http://www.w3.org/2000/svg" viewBox="0 0 313.33 258.7"><path d="M106.4 126.69a19.83 19.83 0 1 1-19.84 19.83 19.83 19.83 0 0 1 19.84-19.83zm0 0"/><path d="M299.52 142.62L313 36.6 216.51 0l-115.7 55.26L0 12.69l13.61 113.1L.57 237.16l107.1 20.09 109.25-20.8 96.41 22.25zM216.15 11.23l85.44 32.2-5.88 46.35-85.16-21.54zm-11.3 5.88l-4.51 48.54h-.07l-59 7.61-.36 1.3c-.07.28-6.91 25.55-14.12 37.05a40.17 40.17 0 0 0-15.52-5.27l-4.78-42.26zm-9 108.27l-51.24 7.73a40.72 40.72 0 0 0-14.4-19.32c6.71-10.7 12.77-31.43 14.29-36.91l55.5-7.16zm-99.74-60.8l4.73 41.85a40.58 40.58 0 0 0-33 27.75l-43.7-6.76-4.22-40.53c14.48-1 25.34-5.67 32.31-14.08 6.27-7.57 8.08-16.53 8.42-23.2zm-83.5-35.26l44.06 18.6c-.13 6.15-1.52 15.06-7.53 22.32-6.28 7.57-16.27 11.81-29.73 12.66zm-.56 199.41l10.83-91L66 144.44c0 .69-.1 1.38-.1 2.08a40.33 40.33 0 0 0 8.76 25.1l-22.38 18-7 45.35zm84.43 15.83l-47.32-8.87L56 191.74l21.3-17.1a40.39 40.39 0 0 0 25.26 12.2zm-22.56-98A32.48 32.48 0 1 1 106.4 179a32.52 32.52 0 0 1-32.48-32.48zm33.74 100.14l-.91-.18 6.32-60a40.56 40.56 0 0 0 33.85-39.93c0-1.08-.08-2.14-.16-3.21l50.08-7.55 4.16 42.64c-22 1-38.4 7.79-48.74 20.27-12.06 14.56-12.63 32.72-12 41.7zm36.64-7c-.49-8.52.22-25.24 11.09-38.37 9.61-11.61 25.13-17.87 46-18.82l4.45 45.45zm65.88-167.41l85 21.5-5.07 40.21-84-10.14zm68.36 96.37l-38.68-4.6 7.08 68.62L216 226l-8.8-91.81.91-.14 81.16 10.3 12 100.85L251 233.63l-6.63-65 34.48 4zm0 0"/></svg>