<svg data-name="Layer 1" xmlns="http://www.w3.org/2000/svg" viewBox="0 0 180.91 264.12"><path d="M90.45 33.94a4.66 4.66 0 0 0 4.66-4.66V4.66a4.66 4.66 0 1 0-9.32 0v24.62a4.66 4.66 0 0 0 4.66 4.66zm0 0M67.56 37.45a4.66 4.66 0 1 0 6.59-6.6l-17.41-17.4A4.66 4.66 0 1 0 50.15 20zm0 0M110.06 38.81a4.66 4.66 0 0 0 3.3-1.36L130.76 20a4.66 4.66 0 1 0-6.59-6.59l-17.41 17.4a4.66 4.66 0 0 0 3.3 8zm0 0M64.94 110.91a4.67 4.67 0 1 0-4.66-4.67 4.66 4.66 0 0 0 4.66 4.67zm0 0"/><path d="M178.23 246.67l-25.53-12-7.8-45a31 31 0 0 0 20.68-34.64L147.36 49.9a4.66 4.66 0 0 0-5.36-3.8L90.46 55l-51.52-8.9a4.66 4.66 0 0 0-5.39 3.8L15.33 155.05A31 31 0 0 0 36 189.68l-7.8 45-25.53 12a4.67 4.67 0 0 0 1.19 8.82l49.46 8.56a4.22 4.22 0 0 0 .79.07h.11a4.66 4.66 0 0 0 3-8.16l-19.82-19.7 7.79-45h.66a30.86 30.86 0 0 0 30.46-25.66L90.46 84l14.14 81.66a30.87 30.87 0 0 0 30.46 25.66h.66l7.79 45-20 19.88a4.66 4.66 0 0 0 3.28 8 4.22 4.22 0 0 0 .79-.07l49.42-8.64a4.67 4.67 0 0 0 1.19-8.82zM41.94 56.09l42.6 7.37-3.82 22.05-42.6-7.38zm.19 125.55a21.64 21.64 0 0 1-17.61-25l12-69.33 42.6 7.38-12 69.31a21.55 21.55 0 0 1-21.27 18 22.16 22.16 0 0 1-3.72-.32zm-1.79 70.7L20 248.82l11.39-5.34zM113.79 164l-12-69.33 42.6-7.38 12 69.33a21.62 21.62 0 0 1-17.61 25 22.16 22.16 0 0 1-3.72.32A21.55 21.55 0 0 1 113.79 164zM139 56.09l3.82 22-42.6 7.38-3.85-22.01zm1.6 196.25l8.92-8.86 11.39 5.34zm0 0"/><path d="M114.44 98.39a4.66 4.66 0 0 0 0 9.32 4.66 4.66 0 0 0 0-9.32zm0 0M142.87 106.34a4.65 4.65 0 1 0-3.29 1.37 4.67 4.67 0 0 0 3.29-1.37zm0 0M129.27 115.55a4.66 4.66 0 0 0-4.66 4.66 4.66 4.66 0 1 0 9.32 0 4.66 4.66 0 0 0-4.66-4.66zm0 0M41.33 114a4.66 4.66 0 0 0-4.66 4.66 4.66 4.66 0 0 0 8 3.29 4.68 4.68 0 0 0 1.33-3.29 4.64 4.64 0 0 0-4.67-4.66zm0 0M63.56 129.39a4.68 4.68 0 1 0-1.37 3.3 4.67 4.67 0 0 0 1.37-3.3zm0 0"/></svg>