<svg data-name="Layer 1" xmlns="http://www.w3.org/2000/svg" viewBox="0 0 295.45 285.6"><path d="M290.53 59.09h-14.78v-4.92a4.92 4.92 0 1 0-9.84 0v4.92h-19.7v-4.92a4.93 4.93 0 1 0-9.85 0v4.92h-19.7V14.77a4.65 4.65 0 0 0-4.92-4.92h-44.32V4.92a4.92 4.92 0 1 0-9.84 0v4.93h-19.7V4.92a4.93 4.93 0 0 0-9.85 0v4.93H83.71a4.65 4.65 0 0 0-4.92 4.92v44.32h-19.7v-4.92a4.65 4.65 0 0 0-4.92-4.93 4.66 4.66 0 0 0-4.93 4.93v4.92H29.55v-4.92a4.66 4.66 0 0 0-4.93-4.93 4.65 4.65 0 0 0-4.92 4.93v4.92H4.92A4.65 4.65 0 0 0 0 64v216.68a4.65 4.65 0 0 0 4.92 4.92h285.6a4.65 4.65 0 0 0 4.93-4.92V64a4.65 4.65 0 0 0-4.92-4.93zm-4.93 9.85v167.42h-68.94V68.94zm-275.75 0h68.94v167.42H9.85zm0 177.27h68.94v29.55H9.85zm78.79-4.92V19.7h118.18v256.06H192v-44.32a4.65 4.65 0 0 0-4.92-4.93h-78.75a4.65 4.65 0 0 0-4.92 4.93v44.32H88.64zm24.62-4.93h29.54v39.4h-29.54zm39.39 39.4v-39.4h29.54v39.4zm133 0h-68.99v-29.55h68.94zm0 0"/><path d="M118.18 73.86H128a9.88 9.88 0 0 0 9.88-9.86v-9.83a9.88 9.88 0 0 0-9.88-9.85h-9.85a9.88 9.88 0 0 0-9.85 9.85V64a9.88 9.88 0 0 0 9.85 9.84zm0-19.69H128V64h-9.85zm0 0M167.42 73.86h9.85a9.87 9.87 0 0 0 9.85-9.86v-9.83a9.88 9.88 0 0 0-9.85-9.85h-9.85a9.88 9.88 0 0 0-9.85 9.85V64a9.87 9.87 0 0 0 9.85 9.84zm0-19.69h9.85V64h-9.85zm0 0M118.18 113.26H128a9.89 9.89 0 0 0 9.85-9.85v-9.85a9.88 9.88 0 0 0-9.85-9.85h-9.85a9.88 9.88 0 0 0-9.85 9.85v9.85a9.89 9.89 0 0 0 9.85 9.85zm0-19.7H128v9.85h-9.85zm0 0M167.42 113.26h9.85a9.88 9.88 0 0 0 9.85-9.85v-9.85a9.88 9.88 0 0 0-9.85-9.85h-9.85a9.88 9.88 0 0 0-9.85 9.85v9.85a9.88 9.88 0 0 0 9.85 9.85zm0-19.7h9.85v9.85h-9.85zm0 0M118.18 152.65H128a9.88 9.88 0 0 0 9.85-9.85V133a9.88 9.88 0 0 0-9.85-9.9h-9.85a9.88 9.88 0 0 0-9.85 9.85v9.85a9.88 9.88 0 0 0 9.85 9.85zm0-19.7H128v9.85h-9.85zm0 0M167.42 152.65h9.85a9.88 9.88 0 0 0 9.85-9.85V133a9.88 9.88 0 0 0-9.85-9.85h-9.85a9.88 9.88 0 0 0-9.85 9.85v9.85a9.88 9.88 0 0 0 9.85 9.85zm0-19.7h9.85v9.85h-9.85zm0 0M118.18 192H128a9.88 9.88 0 0 0 9.85-9.85v-9.84a9.88 9.88 0 0 0-9.85-9.81h-9.85a9.88 9.88 0 0 0-9.85 9.85v9.84a9.88 9.88 0 0 0 9.85 9.85zm0-19.69H128v9.84h-9.85zm0 0M167.42 192h9.85a9.88 9.88 0 0 0 9.85-9.85v-9.84a9.88 9.88 0 0 0-9.85-9.85h-9.85a9.88 9.88 0 0 0-9.85 9.85v9.84a9.88 9.88 0 0 0 9.85 9.85zm0-19.69h9.85v9.84h-9.85zm0 0M246.21 108.33h9.85a9.88 9.88 0 0 0 9.85-9.85v-9.85a9.88 9.88 0 0 0-9.85-9.84h-9.85a9.87 9.87 0 0 0-9.85 9.84v9.85a9.88 9.88 0 0 0 9.85 9.85zm0-19.7h9.85v9.85h-9.85zm0 0M246.21 147.72h9.85a9.88 9.88 0 0 0 9.85-9.84V128a9.88 9.88 0 0 0-9.85-9.85h-9.85a9.88 9.88 0 0 0-9.85 9.85v9.85a9.87 9.87 0 0 0 9.85 9.84zm0-19.69h9.85v9.85h-9.85zm0 0M246.21 187.12h9.85a9.88 9.88 0 0 0 9.85-9.85v-9.85a9.88 9.88 0 0 0-9.85-9.85h-9.85a9.88 9.88 0 0 0-9.85 9.85v9.85a9.88 9.88 0 0 0 9.85 9.85zm0-19.7h9.85v9.85h-9.85zm0 0M246.21 226.51h9.85a9.88 9.88 0 0 0 9.85-9.85v-9.84a9.88 9.88 0 0 0-9.85-9.85h-9.85a9.88 9.88 0 0 0-9.85 9.85v9.84a9.88 9.88 0 0 0 9.85 9.85zm0-19.69h9.85v9.84h-9.85zm0 0M49.24 78.79h-9.85a9.87 9.87 0 0 0-9.84 9.85v9.84a9.87 9.87 0 0 0 9.84 9.85h9.85a9.88 9.88 0 0 0 9.85-9.85v-9.84a9.88 9.88 0 0 0-9.85-9.85zm0 19.69h-9.85v-9.85h9.85zm0 0M49.24 118.18h-9.85a9.87 9.87 0 0 0-9.84 9.82v9.85a9.87 9.87 0 0 0 9.84 9.84h9.85a9.87 9.87 0 0 0 9.85-9.84V128a9.88 9.88 0 0 0-9.85-9.85zm0 19.7h-9.85V128h9.85zm0 0M49.24 157.57h-9.85a9.87 9.87 0 0 0-9.84 9.85v9.85a9.87 9.87 0 0 0 9.84 9.85h9.85a9.88 9.88 0 0 0 9.85-9.85v-9.85a9.88 9.88 0 0 0-9.85-9.85zm0 19.7h-9.85v-9.85h9.85zm0 0M49.24 197h-9.85a9.87 9.87 0 0 0-9.84 9.85v9.84a9.87 9.87 0 0 0 9.84 9.85h9.85a9.88 9.88 0 0 0 9.85-9.85v-9.84a9.88 9.88 0 0 0-9.85-9.85zm0 19.69h-9.85v-9.84h9.85zm0 0"/></svg>